<svg id="Layer_12" data-name="Layer 12" xmlns="http://www.w3.org/2000/svg" viewBox="0 0 889.98 1065">
  <defs>
    <style>
      .cls-1 {
        fill: #ededed;
      }

      .cls-2 {
        fill: #c4c4c4;
      }
    </style>
  </defs>
  <title>running guy</title>
  <path class="cls-1" d="M375.06,970.07c-25.92,7.53-52.4,15.13-79.36,14-7.79-.33-15.88-1.52-22.3-5.95s-10.64-12.85-8.07-20.21c2.08-6,7.83-9.76,13.21-13.1L340,906.65c3.21-2,6.49-4,10.15-5,5.83-1.53,12-.22,17.87,1.15,15,3.51,50.68,6.06,49,27.72C415.26,953.4,394.2,964.51,375.06,970.07Z"/>
  <path class="cls-1" d="M692.85,982.71c-20.89,9.41-45.14,17.47-66.13,8.3-4.65-2-8.91-4.83-13.4-7.19-16.75-8.8-36.22-11.2-53.18-19.58-3.42-1.69-6.9-3.79-8.64-7.19-1.49-2.92-1.47-6.35-1.41-9.63l0.22-12.14c0-2,.13-4.17,1.42-5.7,1.53-1.82,4.18-2.08,6.56-2.26a207.25,207.25,0,0,0,54.82-11.67c-0.34,5.26,3.38,10.09,7.93,12.76s9.85,3.65,15,4.85a160.82,160.82,0,0,1,53.59,23.43C701,964.41,709.3,975.3,692.85,982.71Z"/>
  <path class="cls-2" d="M568.84,940c-2.36-.76-3.7-2.66-6.43-2.9-3.37-.3-5.14-0.47-8.26-2.16-7.18-3.88-6.63-9.91-6.74-17.29-0.07-4.69-2.11-9.32-2.59-14-0.43-4.18-.42-8.41-0.79-12.6q-1.45-16.76-3-33.52c-2.06-22.31-4.35-44.61-7.28-66.83-5.77-43.85-14-87.56-28-129.59a427.22,427.22,0,0,0-29.12-68c-34.85,25.51-41.92,73.78-46.11,116.77l-6.76,69.3-7.27,74.52L412.87,891l-1.82,18.63c-0.29,3,1,11-1.2,13-1.74,1.65-4.09,1.07-6.36,1.06-5.68,0-10.95.59-16.17-1.51-7.22-2.9-15.26-3.94-22.08-8.09-6.62-4-10.08-11.06-15.2-16.78-6.42-7.18-13.39-14.74-15.25-24.47-2.21-11.54-1.8-23.12-1.8-34.83V784.39c0-7.63-.91-15.76.87-23.21a29.71,29.71,0,0,0,1.11-7.52c-0.18-18.5-2.87-37.3-4.17-55.77-1.25-17.74-2.4-35.89,2.37-53,4.24-15.24,12.92-28.82,18.74-43.53,6.42-16.21,17.68-46.63,1.33-60.5-18.66-15.83-76,1.71-99.68,1.13-3.06-.08-6.48-0.34-8.54-2.61s-2-6.08-1.54-9.3c4-31.62,12.21-62.53,20.42-93.33,10-37.51,20.41-75.92,42.85-107.6,14.49-20.46,35-38,58.87-46.41,32.35-11.44,38.38.82,47.85-36.85-7.5-9.61-22.56-3.18-33.33,2.53s-28.84,6.58-30.49-5.5c-0.84-6.16,3.83-11.5,7.39-16.6,15.51-22.2,12.83-51.75,11.7-78.82s1.88-58.15,23.67-74.24C413,58,442.64,62.91,464.89,75.52c20.43,11.59,38.91,35.32,29.8,57,11-7.75,28.25,2,29.66,15.33S514.14,173.59,500.92,176a93.27,93.27,0,0,0,11.78,57.63c2.28,3.93,4.94,8.06,4.58,12.59-1,12.08-18.73,12-30.24,8.22-7.26,6.12-1.74,19,7,22.75s18.68,2.1,28.16,2.73c22.61,1.48,42.58,16.53,55.57,35.09s20.13,40.49,27.09,62.06l30.78,95.36c1.75,5.42,27.55,84.26,22.84,83.85a430.38,430.38,0,0,0-65.44-.82c-2.44.16-5.18,0.48-6.71,2.39a7.93,7.93,0,0,0-1.39,4c-2.36,17.17,6.28,36.44,7.73,53.62,1.51,18,4.71,36.29,7.2,54.52A847.4,847.4,0,0,1,607.56,774c0.12,9.36.23,16.78-2.16,25.48-3.22,11.72-.56,27.09,1.14,38.94,1,6.69.76,13.25,0.83,20,0.05,5.09,1.37,9.75,1.59,14.77,0.39,8.93,1.46,17.4,1.46,26.46,0,4.82.27,9.71,0.07,14.52s-3.29,6.32-6.07,9.88c-2.42,3.11-3.64,5.33-7.47,6.8s-7.62,3.33-11.22,5.07c-4.77,2.3-10,5.18-15.8,4.37A6.4,6.4,0,0,1,568.84,940Z"/>
  <path d="M333.75,958c1.09-3.29,3.46-3-.16-2.23-1.16.24-2.31,0.43-3.45,0.75-3.44.94-7.09,1.36-10.47,2.49-7.36,2.47-12.73,8.44-16.16,15.21-4.36,8.59,8.58,16.19,13,7.57,1.55-3,3.35-6.19,6.46-7.89s7.07-1.67,10.43-2.64c6.16-1.78,12.52-2.18,14.87-9.26,3.05-9.18-11.43-13.12-14.46-4h0Z"/>
  <path d="M310,947.77c-6,.83-12.18,1.46-17.92,3.37a20,20,0,0,0-7.39,4.1c-2.19,2-3.58,4.35-6.27,5.77-4.86,2.56-9.39,5.87-9,12,0.33,5.68,4.92,7.64,8.3,11.31,6.55,7.12,17.14-3.51,10.61-10.61-1.46-1.59-4.13-2.74-4.93-4.49l1,3.79q-2.47,3.51.24,1.6L286,974a21.35,21.35,0,0,0,4.08-2.63c2.07-1.73,3.45-4.53,5.86-5.72,2.12-1.05,5.25-1.19,7.55-1.68,3.46-.73,7-1.2,10.5-1.69,4-.56,6.23-5.69,5.24-9.23-1.21-4.32-5.18-5.8-9.23-5.24h0Z"/>
  <path d="M629,977.5a95.66,95.66,0,0,1,12.53.85c1.61,0.18,3.68-.2,5.18.27,1.22,0.39,2.57,1.78,3.55,2.57a28.81,28.81,0,0,1,6.56,7.25,29.24,29.24,0,0,1,1.78,3.05,3.19,3.19,0,0,1,.51,1.06q0.8,3.72,1.6-3.85c-7,6.64,3.58,17.23,10.61,10.61,7.82-7.38-2-20.66-7.63-26.24-4.15-4.13-9.71-8.84-15.73-9.43A166.2,166.2,0,0,0,629,962.5c-9.64.14-9.67,15.14,0,15h0Z"/>
  <path d="M649.77,972.48c5.77-2.82,13-4.11,19-1,2.09,1.09,3,2.87,4.42,4.83a38.75,38.75,0,0,0,7.47,8c3.17,2.57,7.49,3,10.61,0,2.66-2.6,3.14-8.07,0-10.61-3.62-2.93-5.84-6.2-8.67-9.84-3-3.84-6.49-5.79-11.1-7.2-10.33-3.16-19.72-1.84-29.33,2.87-8.67,4.24-1.07,17.19,7.57,13h0Z"/>
  <path d="M403.46,210c0.66-9.08-2.26-17.64-4-26.42-1.83-9.2-2.44-18.65-3.08-28-0.66-9.57-1.13-19.13-1.19-28.73,0-4.51,0-9,0-13.54,0-3.63-.58-7.7.72-11.17,2.18-5.78,7.63-10.37,12.48-13.9,6-4.34,12.19-8,19.46-9.57,14.58-3.13,31.47-2,43.87,6.69,4,2.83,7.75,6,11.89,8.73,2.84,1.85,5,3.34,6.37,6.5,4.12,9.26,1.95,20.24,2.38,30,0.42,9.62,15.42,9.67,15,0-0.47-10.76,1.22-21.84-2.27-32.27-2.93-8.74-8-13.16-15.36-18.19-8.26-5.61-15.32-12-25.05-15.12-8.27-2.63-17.5-2.77-26.1-2.53a68.67,68.67,0,0,0-47.92,21.28c-5.88,6.06-10,13.23-10.42,21.78-0.52,10.87-.2,22,0.16,32.84,0.4,12,1.21,24.15,2.66,36.09a161.78,161.78,0,0,0,3.11,18.18c1.38,5.78,2.74,11.29,2.3,17.28-0.7,9.63,14.3,9.59,15,0h0Z"/>
  <path d="M474.46,148c0,0.21,0,.86-0.33.81s1.27-1.12.67-.68a18.84,18.84,0,0,1,4-2.16,65.87,65.87,0,0,1,13.46-3.43,104.63,104.63,0,0,1,21.15-1.45c2.48,0.1,6.86.57,7.6,2,1.47,2.78-1.77,8.85-3.17,11.58-2.53,4.94-5.2,7.1-10.89,7.81-6.91.86-13.37-2.46-20-3.69-9.44-1.74-13.48,12.72-4,14.46,7.63,1.4,14.82,4.75,22.73,4.33,6.66-.35,13.72-2.08,18.82-6.59,4.53-4,7.21-10.08,9.33-15.6s3.4-11.58,1.33-17.28c-4-10.94-16.82-12.33-26.87-12a135,135,0,0,0-25.27,3c-9.86,2.25-23.19,6.84-23.59,18.88-0.32,9.66,14.68,9.64,15,0h0Z"/>
  <path d="M498.73,174c-3.72,10.14-4.46,20.82-5.86,31.43-0.91,6.9-2.6,12.87-9.28,16.05-4.3,2-14,5.33-18.43,2.12-3.48-2.52-4.91-8.75-7-12.34-2.19-3.84-6.06-6.87-7-11.27-2-9.43-16.5-5.44-14.46,4,1.36,6.32,6,10.12,8.92,15.59,2.82,5.26,4.79,11,9.43,15.06,8.45,7.3,21.07,5.51,30.82,2,9.48-3.38,16.59-9.79,19.84-19.44,1.93-5.72,2.17-12.1,2.88-18.05A92.31,92.31,0,0,1,513.19,178c3.33-9.08-11.16-13-14.46-4h0Z"/>
  <path d="M392.46,208c1.48,22.24,9,43.66,10,66,0.45,9.61,15.45,9.67,15,0-0.51-10.91-2.34-21.92-4.28-32.66-2-11.11-5-22-5.72-33.34-0.64-9.58-15.64-9.65-15,0h0Z"/>
  <path d="M478.46,232v36c0,9.65,15,9.67,15,0V232c0-9.65-15-9.67-15,0h0Z"/>
  <path d="M348,524.5c-5,.27-8.75,2.19-13.35,3.77a57.47,57.47,0,0,1-11.3,2.19c-9,1.19-18,3.12-27,4.68s-18.08,3.09-27.24,4c-9.49,1-19,2-28.31,4.15s-5.42,16.68,4,14.46c8.65-2,17.4-2.88,26.21-3.81,9.23-1,18.32-2.47,27.46-4.05,8.61-1.5,17.21-3.33,25.86-4.59a108.93,108.93,0,0,0,11.79-1.86c4-1,7.77-3.75,11.87-4,9.6-.53,9.66-15.53,0-15h0Z"/>
  <path d="M497,533.5c8.74-.14,17,2.29,24.9,5.8,3.85,1.7,7.6,3.65,11.52,5.2,3.46,1.37,7.4,2.31,10.28,4.8,7.26,6.3,17.92-4.27,10.61-10.61a40.16,40.16,0,0,0-12.57-7c-4.71-1.8-9.2-4-13.83-6-9.9-4.28-20-7.34-30.91-7.17-9.64.15-9.67,15.15,0,15h0Z"/>
  <path d="M556.49,479.79a17.88,17.88,0,0,0,9.61,7.1c4.15,1.37,7.09,2.19,10.89,4.61a59.61,59.61,0,0,0,12.85,6.05c4.21,1.45,8.48,2.67,11.82,5.75,7.09,6.53,17.73-4.05,10.61-10.61-6.86-6.31-15.15-7.5-23.2-11.47-4-2-7.51-5-11.73-6.64a42.33,42.33,0,0,0-4.93-1.51,24,24,0,0,0-3-.85c-5.51-7.84-18.52-.35-13,7.57h0Z"/>
  <path d="M583.73,346c1.24,5.16,1.52,10.46,2.51,15.67a89.6,89.6,0,0,0,4.47,15.07c3.8,10,8.54,19.59,12.37,29.57a623.16,623.16,0,0,1,20.46,64.83c5.72,21.79,10.85,43.47,18.17,64.82,0.71,2.07,2.3,5,1.49,7.23-1.49,4-8,3.67-11.24,3.55-4.42-.17-8.71-0.59-13.12,0s-8.45,3.49-12.89,3.36c-5.83-.18-11.84-2.48-17.38-4.11s-11.23-3-16.78-4.75c-5-1.58-9.76-4.41-14.9-5.48-3.78-.79-9.63-0.31-12.62-3.09-7.06-6.57-17.69,4-10.61,10.61a23.76,23.76,0,0,0,13,6,57.88,57.88,0,0,1,13.77,3.79c10.68,4.39,22.48,7.34,33.69,10.08,5.13,1.25,10.93,2.6,16.21,1.7s9.24-3.6,14.71-3.5c10.53,0.2,20.7,1.3,28.56-7.3,7.57-8.28,4-17.78.82-27.08-4.09-12.06-7.71-24.23-10.67-36.62-5.78-24.22-12.24-48.3-20.36-71.85-4.41-12.8-9.52-25.22-14.9-37.63a128,128,0,0,1-6.88-19c-1.67-6.54-1.88-13.3-3.45-19.85-2.26-9.38-16.72-5.41-14.46,4h0Z"/>
  <path d="M288.46,334c-2.13,33.33-18.88,61.38-33.17,90.62-7.1,14.52-9.54,30.4-12.15,46.18-1.32,8-3.68,15.61-5.44,23.49-1.81,8.13-1.56,16-1.31,24.27,0.31,10.45-4.55,26.64,4.26,34.74,7.1,6.53,17.73-4.06,10.61-10.61-0.72-.66-0.21-0.52-0.06-0.05a12.42,12.42,0,0,1-.45-2.65,52.08,52.08,0,0,1,.07-7.84c0.29-5.18.71-10.2,0.51-15.39-0.3-8-.12-15.12,1.93-22.86,2-7.5,3.66-14.88,4.92-22.54,2.43-14.83,5-29.65,12.08-43,7.48-14.07,14.79-28.2,20.8-43,6.7-16.45,11.26-33.58,12.4-51.34,0.62-9.64-14.39-9.6-15,0h0Z"/>
  <path d="M579.46,566c-0.09,11.06,1.76,22.26,2.43,33.31,0.69,11.45,1.41,22.91,2.8,34.3,2.57,21,6.72,41.74,6.76,63,0.05,27.65,1.41,55.32,3,82.92,1.76,29.93,3.87,59.93,8.08,89.63,0.73,5.13,1.56,10.24,2.56,15.32,2.09,10.56,2.49,21.19,2.4,31.93-0.07,7.68.08,15.8,7.65,20,7.32,4.08,17.21,4.93,25.34,6.09,4.47,0.64,8.67,1.13,12.8,3.08a92.43,92.43,0,0,1,13.23,8.2A175.25,175.25,0,0,0,687,965.93c2.87,1.49,5.57,3,7.42,5.7a7.67,7.67,0,0,1,.59,1.59c-0.07-.16-0.19-1.55-0.05.17-0.06-.78-0.31,0-0.09-0.18-3.41,3.48-8.69,5.5-13.74,7.09-13,4.11-27.35,6.89-41,6.12-21.27-1.2-37.16-15.32-56.14-23.1a67.1,67.1,0,0,0-13.85-4.21c-2.49-.43-6.41.09-8.67-1.13-3.09-1.67-4.35-7.62-4.8-10.67-0.71-4.85-.34-9.89-0.23-14.77,0.51-22.47-4.75-44.42-5.95-66.78-1.09-20.42-1.35-40.9-2.3-61.33-0.46-10-.8-20-2-29.88-0.75-6.23-3.17-11.57-5-17.59-3.18-10.64-4.44-21.74-7.27-32.46s-6.73-21.12-10.17-31.66-5.69-21.48-8.8-32.17c-3-10.37-6.48-20.41-8.86-31a222.78,222.78,0,0,0-8.82-30.34c-2.75-7.25-6.34-20.24-15.94-20.61-9.32-.36-16.08,10.32-20.62,17-5.46,8.09-11.75,15.57-17,23.81a97.2,97.2,0,0,0-12.11,29.34c-5.25,21.39-4,43.18-4.37,65-0.22,11.69-1,23.3-1.8,35-0.3,4.59-.13,9.25-1.24,13.74a49.7,49.7,0,0,0-1.12,5.4c-3,22-2.42,44.73-3.55,66.93-0.26,5-.53,10.05-1,15.07-0.08.93-.18,1.86-0.27,2.79-0.06.61-.46,2.84,0,0.53a31.09,31.09,0,0,1-1.15,4.39c-6.78,20.52-11.14,43.12-11.65,64.75-0.11,4.69.11,9.36,0.11,14,0,5.37-1.63,10-3.06,15.12-0.85,3.08-.53,7.35-3,9.43s-7.43,2.51-10.58,3.12c-9.5,1.83-18.8,4.35-28.19,6.65-10.65,2.61-21.69,5.85-32.72,5.56a67,67,0,0,0-15.31,1.22,72.16,72.16,0,0,1-15.74,1A61,61,0,0,1,283,977c-3.42-.87-8.24-1.92-10.42-5-3.08-4.36.85-10.92,3.48-14.52,5.38-7.37,14-11.26,21-16.78,8-6.3,16.11-12.8,24.4-18.74,7.17-5.14,16.9-4.41,25-7.13,15.68-5.27,9.1-24,7.13-35.82-4.4-26.36-6.32-53.61-8.51-80.41-2.26-27.61-4.93-55.41-5.17-83.12-0.1-11.33.24-22.68,1.21-34,0.89-10.41.75-21.33,4.49-31.16,4-10.39,8.36-20.44,11.41-31.15,1.42-5,2.77-9.94,4.68-14.76,2-5,4.14-9.95,5.28-15.26a79.26,79.26,0,0,0,1-29.2c-1.64-10.21-5.33-19.52-5.49-30-0.15-9.64-15.16-9.67-15,0,0.18,11,3.38,20.92,5.59,31.57,2,9.79.85,20.88-2.45,30.26-1.59,4.54-3.68,8.9-5.19,13.47-1.89,5.69-3.24,11.55-5.08,17.26-3.4,10.57-9.51,20.71-11.67,31.62-1,4.83-1,9.7-1.34,14.59-0.4,5.83-1.2,11.63-1.61,17.47-0.82,11.64-1,23.31-.76,35,0.3,13.58,1.31,27.14,2.27,40.69,2.07,29,4.36,58,7.45,87,1.3,12.18,2.65,24.41,4.8,36.47,0.82,4.6,3.16,10.17,2.23,14.81-0.44,2.23-.48.92,0,0.58s-1.71.34-1.94,0.38c-2.07.4-4.14,0.63-6.18,1.13-4.65,1.14-9.48,2-13.93,3.76-4.68,1.88-8.39,5-12.23,8.2-4.22,3.51-8.83,6.52-13.2,9.83-8,6.08-17.24,11.36-24.58,18.24-10.56,9.9-19.05,28.17-7.54,40.58,6.7,7.23,17.9,9.43,27.27,10.4a120.48,120.48,0,0,0,14.63.4c5.82-.11,11.25-1.73,17-2.24,5-.45,10,0.37,15-0.18a169.83,169.83,0,0,0,17.68-3.29c10.79-2.38,21.4-5.51,32.18-7.9,7.46-1.65,15.7-2.17,22.22-6.59a17.87,17.87,0,0,0,7.53-11.09c1.07-4.66,2.3-9.22,3.51-13.85,2.65-10.16,1-21,1.57-31.34,0.58-10.84,2.62-21.63,4.82-32.25,2.62-12.66,7.31-24.42,8.29-37.34,0.91-11.95,1.31-23.94,1.8-35.91,0.48-11.73.86-23.47,1.7-35.19,0.13-1.82.3-3.64,0.46-5.46,0.13-1.49.26-1.68,0-.6,0.12-.59.18-1.18,0.34-1.76,2.67-10.09,2.56-21,3.22-31.38,1.44-22.72-.44-45.72,1.92-68.34a111.29,111.29,0,0,1,7.3-30.43c4-9.63,10.6-18.11,16.89-26.32,2.84-3.7,5.32-7.62,8-11.42a40.34,40.34,0,0,1,3.61-4.52,15.62,15.62,0,0,0,2.15-2.07q3.32-1.81-3.54-1.94l0.59,1c0.51,2,2.15,4.22,3,6.15,1,2.38,1.91,4.82,2.79,7.26,1.84,5.09,3.53,10.21,4.88,15.46,2.74,10.66,4.58,21.54,8.11,32,3.58,10.61,6.07,21.39,9.06,32.17,3,11,7.12,21.64,10.55,32.49s5.39,21.9,7.8,33c1.7,7.84,5.2,15.18,6.76,23,0.32,1.6-.14-1.63.08,0.63,0.08,0.79.17,1.58,0.24,2.37,0.22,2.33.4,4.66,0.56,7,1.66,23.92,2.23,47.91,3,71.87,0.47,13.9,2.13,27.6,3.9,41.39,1.45,11.22,2.63,22.46,2.41,33.79-0.19,9.79-.62,19.79,3.72,28.86,2,4.09,4.89,8.13,8.89,10.42,3.45,2,7.13,2,11,2.44,9.57,1,18.52,5.75,26.79,10.37,9.28,5.18,18.31,10.78,28.49,14a81.83,81.83,0,0,0,30.64,3.43c16.53-1.18,74.19-10,55.79-38.24-4.44-6.82-12-9.9-19-13.38-8.07-4-14.88-10.14-22.64-14.71a52.54,52.54,0,0,0-12.56-5.57c-5.16-1.41-10.71-1.64-16-2.61A96.31,96.31,0,0,1,624,923.92c-0.13,0-2-.78-1.22-0.41a0.77,0.77,0,1,0-.35-0.2c0.76,1.14.12-1.14,0.08-1.74-0.7-11,.07-21.9-1.48-32.93-0.9-6.4-2.35-12.72-3.33-19.11-2-13.16-3.33-26.43-4.52-39.68-2.86-31.89-4.68-63.9-5.85-95.89-0.45-12.43-.82-24.87-0.85-37.32,0-21.94-4.47-43.23-7-64.93-1.25-10.76-1.92-21.58-2.58-32.39-0.67-11-2.52-22.25-2.43-33.31,0.08-9.65-14.92-9.66-15,0h0Z"/>
  <path d="M485,284.5c6.72-.08,14-1.39,20.57.29,3,0.76,5.66,1.71,8.76,1.88s6.14-.42,9.25.27c6.74,1.52,12.79,5.37,19.53,7.06,6.27,1.57,12.86,2.92,18.25,6.67a39.34,39.34,0,0,1,12,12.75c3,5.58,5.41,11.45,8.51,17s6.52,11.24,9.52,17c2.82,5.4,5.73,10.8,10.36,14.88,7.21,6.36,17.86-4.2,10.61-10.61-4.61-4.07-6.81-9.84-9.75-15.11-3.57-6.4-7.42-12.66-10.84-19.14-3.06-5.81-5.05-12-9.19-17.18a59.38,59.38,0,0,0-14.9-13.38c-6.23-3.83-13.54-5.56-20.54-7.34-6.75-1.72-12.81-5.3-19.53-7.06a37.71,37.71,0,0,0-10.63-.8c-3.23.06-5.74-1-8.84-1.74-7.54-1.68-15.45-.52-23.08-0.44-9.65.11-9.67,15.11,0,15h0Z"/>
  <path d="M298.46,349.79c3-4,4-9.87,6.3-14.38s3.57-10.15,6.43-14.43,6.85-7.7,10-11.78,5.48-7,10-9.27a54.63,54.63,0,0,0,6.4-3.38c2-1.32,3.75-2.93,6.07-3.51,2.77-.69,5.64-0.53,8.4-1.42,2.44-.8,4.71-1.66,7.24-2.22,2.78-.63,6.14-2.24,8.9-2.44,2.31-.17,5.26,1,7.84,1.15,6.93,0.43,14,.38,20.9.4,9.65,0,9.67-15,0-15-7.09,0-15.09.75-22.07-.5-3.58-.64-6.09-1.66-9.82-0.77-3,.72-5.9,1.85-8.94,2.52s-5.74,1.75-8.7,2.61c-2.69.78-5.57,0.59-8.28,1.34-5.58,1.54-10.37,5.72-15.52,8.28a34.31,34.31,0,0,0-12.41,10.5c-3.29,4.43-7.15,8.31-10.56,12.65-4,5-5.35,10.68-8.14,16.31-1.39,2.8-2.77,5.58-4,8.45-1,2.33-1.54,5.32-3,7.33-2.43,3.28-.52,8.34,2.69,10.26,3.79,2.27,7.87.55,10.26-2.69h0Z"/>
  <path d="M386.46,247q-0.24,3.86,2.81-1.29a14.72,14.72,0,0,1-2.25.52c-0.84.13-1.9,0.18-2.69,0.22-3.92.21-7.79-.22-11.71,0.23-4.08.46-8.05,1.35-12.08,2.12a30.85,30.85,0,0,1-5.51.78,9.86,9.86,0,0,1-3.64-.36q-3-1.21.88,2.19v4c-0.71,3.22-1.89,1.41-.25,1.16a9.3,9.3,0,0,0,1.78-.86,19.34,19.34,0,0,0,4.42-3.25,21.94,21.94,0,0,0,5.53-11.9c0.29-1.7.19-4.14,1-5.7,0.64-1.26,1.5-1.4,2.79-2.3A16.73,16.73,0,0,0,374.29,221c0.65-4.45.21-8.93,0.17-13.41,0-5.32-.09-10.62-0.57-15.93-0.43-4.76-.1-9.5-0.49-14.24-0.47-5.79-1.09-11.39-1.1-17.21,0-10.8.1-21.59,0-32.4,0-4.55,0-8.59,1.22-13,1.37-4.81,1.47-9.75,2.36-14.64,1.43-7.86,4-13.22,10.89-17.32a159.29,159.29,0,0,1,26.58-12.73c5.36-1.94,10.35-2.06,16-1.83s11.08,0,16.58.61c5.22,0.56,8.29,2.28,12.67,4.9,3.63,2.17,8.2,3.26,11.06,6.49,6.43,7.23,17-3.41,10.61-10.61-3.74-4.21-8.83-5.76-13.55-8.51-6.11-3.56-10.92-6-18.08-6.95-6.69-.86-13.45-0.73-20.18-1C421.56,53,415,53.52,408.54,56s-12.74,5.26-18.88,8.28-12.9,6.13-17.9,10.74c-8.69,8-10,19.72-11.58,30.69-0.4,2.82-1.37,5.37-2,8.12a47.43,47.43,0,0,0-.86,11c0,7.85.21,15.7,0.12,23.56-0.08,7.14-.45,14.39.12,21.52s0.73,14.5,1.36,21.73c0.59,6.7.46,13.41,0.66,20.12,0.06,2.05.83,5.64-.14,7.61-1.22,2.48-5,3.45-6.72,6-3.14,4.73-1.83,10.43-4.29,15.17-2,3.76-7.42,4.09-9.63,8.23-3.81,7.16,2,13.09,8.66,14.89,8,2.17,15.92-.44,23.83-1.76,11.12-1.86,31.63,3,30.22-14.93-0.76-9.56-15.76-9.64-15,0h0Z"/>
  <path d="M492,259.5c3.29,0.37,6.39,2.51,9.6,3.28a45.89,45.89,0,0,0,10.13.78c7.3,0.09,15.3-2.75,15.32-11.46,0-7.65-6.65-10.91-11.42-15.55-2.27-2.2-4.41-4.52-4.91-7.71-0.64-4.06,0-7.81-1.47-11.82-3.26-9-17.76-5.12-14.46,4,1.94,5.36.37,11.14,2.92,16.48a36.3,36.3,0,0,0,9.59,11.7c1.06,0.87,3.73,3.88,5,4.15q3.7-5,.31-4.72l-1.74-.07c-1.34,0-2.75.11-4.09-.05-5.09-.62-9.58-3.39-14.78-4-4-.46-7.5,3.77-7.5,7.5,0,4.43,3.46,7,7.5,7.5h0Z"/>
  <path d="M480.19,467a101.82,101.82,0,0,0-3.32-13.4c-0.58-2.05-.73-4.86-1.62-6.76a2.49,2.49,0,0,1,0-1.25q-1,1.43.24,0c5.39-3.27,11-5.29,15.09-10.34,8.68-10.6,10.89-27.85,3.25-39.63a33.58,33.58,0,0,0-7.45-7.76c-2.41-1.94-5-5.09-7.67-6.58s1.33-1.25-1,.34c-0.43.29,0.34-.53,0.68-0.59,1.6-.28,3.65-1.8,5-1.61,2.92,0.39,5.22,3.92,7.14,5.83,2.91,2.88,6.29,5.24,9.14,8.18,6.07,6.25,6.57,15.41,8,23.56,1.68,9.49,16.14,5.47,14.46-4-1.39-7.85-2.37-15.79-6.32-22.87-3.84-6.87-10.32-11-15.7-16.52-4.88-5-10.26-9.41-17.62-9.07-5.78.27-11.86,2.59-15.83,6.9-4.61,5-4.65,11.86-1,17.41s10.07,8.47,14.42,13.53c6.92,8,2.82,22.32-6,27-5.95,3.14-12.07,6-13.62,13.3-2,9.29,3.89,19.25,5.17,28.33,0.57,4,5.68,6.23,9.23,5.24,4.31-1.21,5.81-5.18,5.24-9.23h0Z"/>
  <path d="M494.27,372.3c7.05-8.42,20.67-6.72,29.4-1.89,5.79,3.2,8.59,8.23,11.07,14.25,1.41,3.43,2.71,6.91,4.3,10.27,0.52,1.1,1.63,2.54,1.8,3.75q0.51-.06.43-0.81a5.28,5.28,0,0,1-1.61,1.83c-6.9,6.77,3.71,17.38,10.61,10.61,3.82-3.75,6.26-8.15,5.42-13.62-0.71-4.62-3.59-8.8-5.34-13.1-4-9.85-7.88-18.95-17.12-24.93-14.21-9.2-37.77-11-49.57,3-6.16,7.35,4.4,18,10.61,10.61h0Z"/>
  <path d="M505,360.5c11.09-.07,24.21,2.33,31.21,12,3,4.14,6.61,7.95,8,13s1.25,10.08,1.25,15.14c0,5.5,1.38,12,.16,17.39-1,4.45-6.22,8-9.46,10.89-4.63,4.06-9.17,7.95-12.72,13-3.28,4.71-5.43,9.91-9.79,13.78-7.23,6.43,3.41,17,10.61,10.61,5.37-4.78,8-11.15,12.13-16.82s10.12-9.53,15-14.31,8.46-9.7,9.2-16.68c0.78-7.33,0-15.09-.16-22.46-0.11-6.41-.77-12.8-3.28-18.75s-7.15-12-11.49-16.93c-10-11.26-26.38-14.94-40.71-14.85-9.65.06-9.67,15.06,0,15h0Z"/>
  <path d="M400.46,463c0.7-7.26,8.85-13.9,13.74-18.57,3.52-3.36,7.21-6.54,10.8-9.84s6.59-7,10.17-10.09a35.49,35.49,0,0,1,19.44-8.1c8.93-.67,17,1.56,23.65-6.1,6.33-7.24-4.24-17.89-10.61-10.61-2.66,3-6.43,1.77-10.14,1.68a42.72,42.72,0,0,0-13,1.82,51,51,0,0,0-23,13.84c-12.75,13.48-34.11,25.7-36.07,46-0.93,9.6,14.08,9.54,15,0h0Z"/>
  <path d="M439,460.23c4.51-1.75,9-2.23,12.61-5.62,1.49-1.38,2.47-3.2,3.95-4.57a36,36,0,0,1,6.09-3.91c8.43-5,17.2-9.41,24.66-15.83s-3.32-16.88-10.61-10.61c-6.4,5.51-14.38,9.21-21.63,13.48-3.36,2-7.28,4.14-10,7-1.11,1.17-1.62,2.7-3,3.59-1.51,1-4.35,1.32-6.09,2-3.76,1.46-6.41,5-5.24,9.23,1,3.6,5.42,6.72,9.23,5.24h0Z"/>
  <path d="M466.49,461.21c-6.33,11.21-18.81,16.13-30.61,19.48-5.08,1.44-10.44,2.93-14.29,6.77-4.69,4.68-4.8,10.58-6.43,16.58-1.23,4.53-4.22,14.22-9.35,15.49-2.67.66-5.9,0-8.6,0-3.68-.09-7.37,0-11,0-8.46,0-16.93-.06-25.39,0-3.61,0-8.5,1-11.92-.34s-5.94-3.1-9.89-3.6-7.5,3.81-7.5,7.5c0,4.48,3.46,7,7.5,7.5,0.74,0.09,2.67,1.77,3.5,2.17a18,18,0,0,0,5.9,1.7c4.4,0.54,9,.07,13.4.08,9.42,0,18.84,0,28.26,0,6.77,0,14.38,1.18,21-.81,7.55-2.27,11.68-9.21,14.89-15.92A54.33,54.33,0,0,0,430,506.37c0.52-2.33.33-6.4,2.1-8.33,2.58-2.82,9.47-3.3,13.14-4.51,13.68-4.5,26.88-11.84,34.17-24.75,4.75-8.42-8.2-16-13-7.57h0Z"/>
  <path d="M382.49,457.21c-0.71,1-8.3.73-10,1-6.08.91-11.72,3.21-17.67,4.63-5.79,1.39-11.81.48-17.7,0.68A144.44,144.44,0,0,0,319,465.77c-4,.64-6.25,5.63-5.24,9.23,1.19,4.25,5.2,5.89,9.23,5.24,13.76-2.22,27.69-.42,41.1-4.47a75.7,75.7,0,0,1,16.54-3.18c6.32-.51,11.16-2.44,14.84-7.79,5.49-8-7.5-15.48-13-7.57h0Z"/>
  <path d="M455.75,455c-0.66,4.48-2.8,8.41-3.79,12.78-1.1,4.88-.34,9.85-0.62,14.79s-0.08,9.1,2,13.53c1.83,3.82,4.78,6.84,7.16,10.31,5.09,7.44,10.8,12.79,19,16.82a92.08,92.08,0,0,0,13.35,5.37c2.24,0.7,4.45,1.49,6.68,2.21,1.23,0.4,3.19.58,4.17,1.49,7.07,6.55,17.71-4,10.61-10.61-5.49-5.09-14-6.17-20.82-8.62-6.61-2.36-14-5.9-18.34-11.67-2.07-2.79-4.08-5.67-6.13-8.48-2.66-3.65-2.88-5.9-2.65-10.34,0.2-3.82-.53-7.92.27-11.65,0.88-4.1,3-7.72,3.6-11.94,0.6-4-1-8-5.24-9.23-3.53-1-8.63,1.23-9.23,5.24h0Z"/>
  <path d="M507,472.5c10.74-.8,20.68,3.68,30.82,6.53,9.88,2.78,20.31,3.22,29.39,8.44,8.38,4.82,15.95-8.14,7.57-13-10.36-6-21.72-6.79-33-10-11.44-3.22-22.68-8-34.81-7.07-9.57.71-9.65,15.72,0,15h0Z"/>
</svg>
