<svg id="Layer_12" data-name="Layer 12" xmlns="http://www.w3.org/2000/svg" viewBox="0 0 889.98 1065">
  <defs>
    <style>
      .cls-1 {
        fill: #ededed;
      }

      .cls-2 {
        fill: #c4c4c4;
      }
    </style>
  </defs>
  <title>running guy</title>
  <path class="cls-1" d="M375.06,970.07c-25.92,7.53-52.4,15.13-79.36,14-7.79-.33-15.88-1.52-22.3-5.95s-10.64-12.85-8.07-20.21c2.08-6,7.83-9.76,13.21-13.1L340,906.65c3.21-2,6.49-4,10.15-5,5.83-1.53,12-.22,17.87,1.15,15,3.51,50.68,6.06,49,27.72C415.26,953.4,394.2,964.51,375.06,970.07Z"/>
  <path class="cls-1" d="M692.85,982.71c-20.89,9.41-45.14,17.47-66.13,8.3-4.65-2-8.91-4.83-13.4-7.19-16.75-8.8-36.22-11.2-53.18-19.58-3.42-1.69-6.9-3.79-8.64-7.19-1.49-2.92-1.47-6.35-1.41-9.63l0.22-12.14c0-2,.13-4.17,1.42-5.7,1.53-1.82,4.18-2.08,6.56-2.26a207.25,207.25,0,0,0,54.82-11.67c-0.34,5.26,3.38,10.09,7.93,12.76s9.85,3.65,15,4.85a160.82,160.82,0,0,1,53.59,23.43C701,964.41,709.3,975.3,692.85,982.71Z"/>
  <path class="cls-2" d="M568.84,940c-2.36-.76-3.7-2.66-6.43-2.9-3.37-.3-5.14-0.47-8.26-2.16-7.18-3.88-6.63-9.91-6.74-17.29-0.07-4.69-2.11-9.32-2.59-14-0.43-4.18-.42-8.41-0.79-12.6q-1.45-16.76-3-33.52c-2.06-22.31-4.35-44.61-7.28-66.83-5.77-43.85-14-87.56-28-129.59a427.22,427.22,0,0,0-29.12-68c-34.85,25.51-41.92,73.78-46.11,116.77l-6.76,69.3-7.27,74.52L412.87,891l-1.82,18.63c-0.29,3,1,11-1.2,13-1.74,1.65-4.09,1.07-6.36,1.06-5.68,0-10.95.59-16.17-1.51-7.22-2.9-15.26-3.94-22.08-8.09-6.62-4-10.08-11.06-15.2-16.78-6.42-7.18-13.39-14.74-15.25-24.47-2.21-11.54-1.8-23.12-1.8-34.83V784.39c0-7.63-.91-15.76.87-23.21a29.71,29.71,0,0,0,1.11-7.52c-0.18-18.5-2.87-37.3-4.17-55.77-1.25-17.74-2.4-35.89,2.37-53,11.7-42.08,33.72-82.09,19-128.27-3.08-9.63-7.75-18.72-10.44-28.47-4.08-14.77-3.44-30.37-4.11-45.68A264,264,0,0,0,324,369.53c-2.45-7.26-5.26-14.72-4.54-22.35,0.68-7.1,4.35-13.52,7.94-19.69,7.41-12.73,12-22.58,23.93-30,13.54-8.34,31.12-8.76,44.59-18.71,13-9.58,13.21-15.66,17.57-33-7.5-9.61-22.56-3.18-33.33,2.53s-28.84,6.58-30.49-5.5c-0.84-6.16,3.83-11.5,7.39-16.6,15.51-22.2,12.83-51.75,11.7-78.82s1.88-58.15,23.67-74.24C413,58,442.64,62.91,464.89,75.52c20.43,11.59,38.91,35.32,29.8,57,11-7.75,28.25,2,29.66,15.33S514.14,173.59,500.92,176a93.27,93.27,0,0,0,11.78,57.63c2.28,3.93,4.94,8.06,4.58,12.59-1,12.08-18.73,12-30.24,8.22-7.26,6.12-1.74,19,7,22.75,32,13.86,55.58,1,79.6,36.57,8.5,12.59,16.77,29.44,32,29.56,13.76,44.36,6.35,92.17-1.18,138l-12.87,78.35c-5.89,35.88,3.45,74.73,8.3,110.26A847.4,847.4,0,0,1,607.56,774c0.12,9.36.23,16.78-2.16,25.48-3.22,11.72-.56,27.09,1.14,38.94,1,6.69.76,13.25,0.83,20,0.05,5.09,1.37,9.75,1.59,14.77,0.39,8.93,1.46,17.4,1.46,26.46,0,4.82.27,9.71,0.07,14.52s-3.29,6.32-6.07,9.88c-2.42,3.11-3.64,5.33-7.47,6.8s-7.62,3.33-11.22,5.07c-4.77,2.3-10,5.18-15.8,4.37A6.4,6.4,0,0,1,568.84,940Z"/>
  <path d="M333.75,958c1.09-3.29,3.46-3-.16-2.23-1.16.24-2.31,0.43-3.45,0.75-3.44.94-7.09,1.36-10.47,2.49-7.36,2.47-12.73,8.44-16.16,15.21-4.36,8.59,8.58,16.19,13,7.57,1.55-3,3.35-6.19,6.46-7.89s7.07-1.67,10.43-2.64c6.16-1.78,12.52-2.18,14.87-9.26,3.05-9.18-11.43-13.12-14.46-4h0Z"/>
  <path d="M310,947.77c-6,.83-12.18,1.46-17.92,3.37a20,20,0,0,0-7.39,4.1c-2.19,2-3.58,4.35-6.27,5.77-4.86,2.56-9.39,5.87-9,12,0.33,5.68,4.92,7.64,8.3,11.31,6.55,7.12,17.14-3.51,10.61-10.61-1.46-1.59-4.13-2.74-4.93-4.49l1,3.79q-2.47,3.51.24,1.6L286,974a21.35,21.35,0,0,0,4.08-2.63c2.07-1.73,3.45-4.53,5.86-5.72,2.12-1.05,5.25-1.19,7.55-1.68,3.46-.73,7-1.2,10.5-1.69,4-.56,6.23-5.69,5.24-9.23-1.21-4.32-5.18-5.8-9.23-5.24h0Z"/>
  <path d="M629,977.5a95.66,95.66,0,0,1,12.53.85c1.61,0.18,3.68-.2,5.18.27,1.22,0.39,2.57,1.78,3.55,2.57a28.81,28.81,0,0,1,6.56,7.25,29.24,29.24,0,0,1,1.78,3.05,3.19,3.19,0,0,1,.51,1.06q0.8,3.72,1.6-3.85c-7,6.64,3.58,17.23,10.61,10.61,7.82-7.38-2-20.66-7.63-26.24-4.15-4.13-9.71-8.84-15.73-9.43A166.2,166.2,0,0,0,629,962.5c-9.64.14-9.67,15.14,0,15h0Z"/>
  <path d="M649.77,972.48c5.77-2.82,13-4.11,19-1,2.09,1.09,3,2.87,4.42,4.83a38.75,38.75,0,0,0,7.47,8c3.17,2.57,7.49,3,10.61,0,2.66-2.6,3.14-8.07,0-10.61-3.62-2.93-5.84-6.2-8.67-9.84-3-3.84-6.49-5.79-11.1-7.2-10.33-3.16-19.72-1.84-29.33,2.87-8.67,4.24-1.07,17.19,7.57,13h0Z"/>
  <path d="M403.5,210c0.66-9.08-2.26-17.64-4-26.42-1.83-9.2-2.44-18.65-3.08-28-0.66-9.57-1.13-19.13-1.19-28.73,0-4.51,0-9,0-13.54,0-3.63-.58-7.7.72-11.17,2.18-5.78,7.63-10.37,12.48-13.9,6-4.34,12.19-8,19.46-9.57,14.58-3.13,31.47-2,43.87,6.69,4,2.83,7.75,6,11.89,8.73,2.84,1.85,5,3.34,6.37,6.5,4.12,9.26,1.95,20.24,2.38,30,0.42,9.62,15.42,9.67,15,0-0.47-10.76,1.22-21.84-2.27-32.27-2.93-8.74-8-13.16-15.36-18.19-8.26-5.61-15.32-12-25.05-15.12-8.27-2.63-17.5-2.77-26.1-2.53a68.67,68.67,0,0,0-47.92,21.28c-5.88,6.06-10,13.23-10.42,21.78-0.52,10.87-.2,22,0.16,32.84,0.4,12,1.21,24.15,2.66,36.09a161.78,161.78,0,0,0,3.11,18.18c1.38,5.78,2.74,11.29,2.3,17.28-0.7,9.63,14.3,9.59,15,0h0Z"/>
  <path d="M474.5,148c0,0.21,0,.86-0.33.81s1.27-1.12.67-.68a18.84,18.84,0,0,1,4-2.16,65.87,65.87,0,0,1,13.46-3.43,104.63,104.63,0,0,1,21.15-1.45c2.48,0.1,6.86.57,7.6,2,1.47,2.78-1.77,8.85-3.17,11.58-2.53,4.94-5.2,7.1-10.89,7.81-6.91.86-13.37-2.46-20-3.69-9.44-1.74-13.48,12.72-4,14.46,7.63,1.4,14.82,4.75,22.73,4.33,6.66-.35,13.72-2.08,18.82-6.59,4.53-4,7.21-10.08,9.33-15.6s3.4-11.58,1.33-17.28c-4-10.94-16.82-12.33-26.87-12a135,135,0,0,0-25.27,3C473.22,131.37,459.9,136,459.5,148c-0.32,9.66,14.68,9.64,15,0h0Z"/>
  <path d="M498.77,174c-3.72,10.14-4.46,20.82-5.86,31.43-0.91,6.9-2.6,12.87-9.28,16.05-4.3,2-14,5.33-18.43,2.12-3.48-2.52-4.91-8.75-7-12.34-2.19-3.84-6.06-6.87-7-11.27-2-9.43-16.5-5.44-14.46,4,1.36,6.32,6,10.12,8.92,15.59,2.82,5.26,4.79,11,9.43,15.06,8.45,7.3,21.07,5.51,30.82,2,9.48-3.38,16.59-9.79,19.84-19.44,1.93-5.72,2.17-12.1,2.88-18.05A92.31,92.31,0,0,1,513.23,178c3.33-9.08-11.16-13-14.46-4h0Z"/>
  <path d="M392.5,208c1.48,22.24,9,43.66,10,66,0.45,9.61,15.45,9.67,15,0-0.51-10.91-2.34-21.92-4.28-32.66-2-11.11-5-22-5.72-33.34-0.64-9.58-15.64-9.65-15,0h0Z"/>
  <path d="M478.5,232v36c0,9.65,15,9.67,15,0V232c0-9.65-15-9.67-15,0h0Z"/>
  <path d="M579.5,566c-0.09,11.06,1.76,22.26,2.43,33.31,0.69,11.45,1.41,22.91,2.8,34.3,2.57,21,6.72,41.74,6.76,63,0.05,27.65,1.41,55.32,3,82.92,1.76,29.93,3.87,59.93,8.08,89.63,0.73,5.13,1.56,10.24,2.56,15.32,2.09,10.56,2.49,21.19,2.4,31.93-0.07,7.68.08,15.8,7.65,20,7.32,4.08,17.21,4.93,25.34,6.09,4.47,0.64,8.67,1.13,12.8,3.08a92.43,92.43,0,0,1,13.23,8.2A175.25,175.25,0,0,0,687,965.93c2.87,1.49,5.57,3,7.42,5.7a7.67,7.67,0,0,1,.59,1.59c-0.07-.16-0.19-1.55-0.05.17-0.06-.78-0.31,0-0.09-0.18-3.41,3.48-8.69,5.5-13.74,7.09-13,4.11-27.35,6.89-41,6.12-21.27-1.2-37.16-15.32-56.14-23.1a67.1,67.1,0,0,0-13.85-4.21c-2.49-.43-6.41.09-8.67-1.13-3.09-1.67-4.35-7.62-4.8-10.67-0.71-4.85-.34-9.89-0.23-14.77,0.51-22.47-4.75-44.42-5.95-66.78-1.09-20.42-1.35-40.9-2.3-61.33-0.46-10-.8-20-2-29.88-0.75-6.23-3.17-11.57-5-17.59-3.18-10.64-4.44-21.74-7.27-32.46s-6.73-21.12-10.17-31.66-5.69-21.48-8.8-32.17c-3-10.37-6.48-20.41-8.86-31a222.78,222.78,0,0,0-8.82-30.34c-2.75-7.25-6.34-20.24-15.94-20.61-9.32-.36-16.08,10.32-20.62,17-5.46,8.09-11.75,15.57-17,23.81a97.2,97.2,0,0,0-12.11,29.34c-5.25,21.39-4,43.18-4.37,65-0.22,11.69-1,23.3-1.8,35-0.3,4.59-.13,9.25-1.24,13.74a49.7,49.7,0,0,0-1.12,5.4c-3,22-2.42,44.73-3.55,66.93-0.26,5-.53,10.05-1,15.07-0.08.93-.18,1.86-0.27,2.79-0.06.61-.46,2.84,0,0.53a31.09,31.09,0,0,1-1.15,4.39c-6.78,20.52-11.14,43.12-11.65,64.75-0.11,4.69.11,9.36,0.11,14,0,5.37-1.63,10-3.06,15.12-0.85,3.08-.53,7.35-3,9.43s-7.43,2.51-10.58,3.12c-9.5,1.83-18.8,4.35-28.19,6.65-10.65,2.61-21.69,5.85-32.72,5.56a67,67,0,0,0-15.31,1.22,72.16,72.16,0,0,1-15.74,1A61,61,0,0,1,283,977c-3.42-.87-8.24-1.92-10.42-5-3.08-4.36.85-10.92,3.48-14.52,5.38-7.37,14-11.26,21-16.78,8-6.3,16.11-12.8,24.4-18.74,7.17-5.14,16.9-4.41,25-7.13,15.68-5.27,9.1-24,7.13-35.82-4.4-26.36-6.32-53.61-8.51-80.41-2.26-27.61-4.93-55.41-5.17-83.12-0.1-11.33.24-22.68,1.21-34,0.89-10.41.75-21.33,4.49-31.16C349.56,640,354,630,357,619.24c1.42-5,2.77-9.94,4.68-14.76,2-5,4.14-9.95,5.28-15.26a79.26,79.26,0,0,0,1-29.2c-1.64-10.21-5.33-19.52-5.49-30-0.15-9.64-15.16-9.67-15,0,0.18,11,3.38,20.92,5.59,31.57,2,9.79.85,20.88-2.45,30.26-1.59,4.54-3.68,8.9-5.19,13.47-1.89,5.69-3.24,11.55-5.08,17.26-3.4,10.57-9.51,20.71-11.67,31.62-1,4.83-1,9.7-1.34,14.59-0.4,5.83-1.2,11.63-1.61,17.47-0.82,11.64-1,23.31-.76,35,0.3,13.58,1.31,27.14,2.27,40.69,2.07,29,4.36,58,7.45,87,1.3,12.18,2.65,24.41,4.8,36.47,0.82,4.6,3.16,10.17,2.23,14.81-0.44,2.23-.48.92,0,0.58s-1.71.34-1.94,0.38c-2.07.4-4.14,0.63-6.18,1.13-4.65,1.14-9.48,2-13.93,3.76-4.68,1.88-8.39,5-12.23,8.2-4.22,3.51-8.83,6.52-13.2,9.83-8,6.08-17.24,11.36-24.58,18.24-10.56,9.9-19.05,28.17-7.54,40.58,6.7,7.23,17.9,9.43,27.27,10.4a120.48,120.48,0,0,0,14.63.4c5.82-.11,11.25-1.73,17-2.24,5-.45,10,0.37,15-0.18a169.83,169.83,0,0,0,17.68-3.29c10.79-2.38,21.4-5.51,32.18-7.9,7.46-1.65,15.7-2.17,22.22-6.59a17.87,17.87,0,0,0,7.53-11.09c1.07-4.66,2.3-9.22,3.51-13.85,2.65-10.16,1-21,1.57-31.34,0.58-10.84,2.62-21.63,4.82-32.25,2.62-12.66,7.31-24.42,8.29-37.34,0.91-11.95,1.31-23.94,1.8-35.91,0.48-11.73.86-23.47,1.7-35.19,0.13-1.82.3-3.64,0.46-5.46,0.13-1.49.26-1.68,0-.6,0.12-.59.18-1.18,0.34-1.76,2.67-10.09,2.56-21,3.22-31.38,1.44-22.72-.44-45.72,1.92-68.34a111.29,111.29,0,0,1,7.3-30.43c4-9.63,10.6-18.11,16.89-26.32,2.84-3.7,5.32-7.62,8-11.42a40.34,40.34,0,0,1,3.61-4.52,15.62,15.62,0,0,0,2.15-2.07q3.32-1.81-3.54-1.94l0.59,1c0.51,2,2.15,4.22,3,6.15,1,2.38,1.91,4.82,2.79,7.26,1.84,5.09,3.53,10.21,4.88,15.46,2.74,10.66,4.58,21.54,8.11,32,3.58,10.61,6.07,21.39,9.06,32.17,3,11,7.12,21.64,10.55,32.49s5.39,21.9,7.8,33c1.7,7.84,5.2,15.18,6.76,23,0.32,1.6-.14-1.63.08,0.63,0.08,0.79.17,1.58,0.24,2.37,0.22,2.33.4,4.66,0.56,7,1.66,23.92,2.23,47.91,3,71.87,0.47,13.9,2.13,27.6,3.9,41.39,1.45,11.22,2.63,22.46,2.41,33.79-0.19,9.79-.62,19.79,3.72,28.86,2,4.09,4.89,8.13,8.89,10.42,3.45,2,7.13,2,11,2.44,9.57,1,18.52,5.75,26.79,10.37,9.28,5.18,18.31,10.78,28.49,14a81.83,81.83,0,0,0,30.64,3.43c16.53-1.18,74.19-10,55.79-38.24-4.44-6.82-12-9.9-19-13.38-8.07-4-14.88-10.14-22.64-14.71a52.54,52.54,0,0,0-12.56-5.57c-5.16-1.41-10.71-1.64-16-2.61A96.31,96.31,0,0,1,624,923.92c-0.13,0-2-.78-1.22-0.41a0.77,0.77,0,1,0-.35-0.2c0.76,1.14.12-1.14,0.08-1.74-0.7-11,.07-21.9-1.48-32.93-0.9-6.4-2.35-12.72-3.33-19.11-2-13.16-3.33-26.43-4.52-39.68-2.86-31.89-4.68-63.9-5.85-95.89-0.45-12.43-.82-24.87-0.85-37.32,0-21.94-4.47-43.23-7-64.93-1.25-10.76-1.92-21.58-2.58-32.39-0.67-11-2.52-22.25-2.43-33.31,0.08-9.65-14.92-9.66-15,0h0Z"/>
  <path d="M467.82,464.53c3.53-7,6.46-13.54,7.06-21.41,0.41-5.44,1-12.57-3.32-16.73s-11.37-6.73-16.88-9.06q-10-4.21-20.1-8c-0.73-.27-6.28-3.1-6.82-2.8q-0.19,2.06.79,1.76l0.07-.31c0.42-.09,1.47-2.57,1.88-3.12,2.92-4,5.54-5.55,10.38-5.64,2.94-.06,6.67-0.66,9.48.41,3.06,1.16,5.64,3.8,8.24,5.7C463.43,408.9,470,410.57,474,415c6.46,7.2,17-3.43,10.61-10.61-4.87-5.44-12-7.39-17.79-11.53-3.57-2.55-6.8-5.43-10.93-7.07-3.84-1.52-7.81-1.67-11.9-1.63-7.11.07-13.31,0.4-19.07,5-4.5,3.58-8.64,8.61-10.53,14.1-5.71,16.57,16.52,20.37,27.36,24.85,2,0.81,20.64,8,20.13,9.66q-2.37-4-1.84-1.38,0.06,1.71,0,3.41a42.45,42.45,0,0,1-.27,4.74c-0.65,4.43-2.91,8.45-4.91,12.38-4.36,8.59,8.58,16.19,13,7.57h0Z"/>
  <path d="M438.85,378.25c-3.09.12-1.92,0.54-3.79-2-0.92-1.22-1.85-2.44-2.72-3.7-0.43-.62-0.82-1.28-1.25-1.9-0.9-1.31-.13-1-0.47-0.59,0.25-.28-1.18,4.29-1.68,3.74-0.22-.24,1.09-0.06.61-0.21,1,0.31,2.9-.13,4-0.15,3.82-.07,7.57-0.61,11.37-1,8.43-.76,17.61-0.31,25.1,4.08a106.16,106.16,0,0,1,10.9,7.4c3.8,2.92,6.39,6.64,9.67,10.06,6.7,7,17.29-3.64,10.61-10.61-4.65-4.84-8.55-9.41-14.06-13.4-5.32-3.85-10.74-7.55-17-9.78-12.42-4.46-24.39-2-37.11-1.79-4.53.09-9.27,0.42-12.9,3.42a12.08,12.08,0,0,0-2.86,14.71c1.87,3.88,4.83,7.38,7.49,10.75,3.7,4.71,8.24,6.11,14.1,5.89,9.62-.36,9.67-15.36,0-15h0Z"/>
  <path d="M453.85,355.75c0-.39,0-2.33-0.29-2.5l-1.07,1.18q-2.24,1.72.05,1a11.05,11.05,0,0,0,2.5.08c3.72,0.19,7.41.26,11.13,0.26,8,0,16.86-1.18,24.77.45,7.16,1.48,12.33,5.67,18.05,9.86,3.38,2.48,9.42,4.81,10.73,9.14,1,3.45.39,7.78,0.45,11.33a89.73,89.73,0,0,0,1.44,11.86c1.1,7.47-.91,15.11-3.16,22.18-1.1,3.45-2.44,6.81-3.6,10.24a11.27,11.27,0,0,1-4.54,6.47c-5,4-10.33,10.34-8.85,17.27,1.67,7.82,10.18,11.26,16.79,14.16,4,1.74,8.06,3.12,12.09,4.72,3.47,1.37,8.17,2.17,11.21,4.28,7.95,5.52,15.46-7.48,7.57-13-3-2.06-6.34-2.56-9.67-3.71-4.39-1.52-8.82-3.29-13.11-5.07-1.72-.71-3.4-1.51-5.06-2.34-0.93-.46-4.11-2.8-5-2.68-1.14.16,0.6-1.41-.41,1-1.12,2.71.73,0,.93-0.16,1.45-1.16,2.64-2.75,4.11-3.95,6.38-5.18,8-11.76,10.64-19.27,2.85-8.19,5.24-16.81,5.32-25.54,0-4.11-1-7.92-1.48-11.95-0.6-4.58,0-9.25-.38-13.85-0.6-7.77-3.54-13.47-9.75-18.19-12.69-9.65-25-18.32-41.63-18.49-9.82-.1-19.63,0-29.44-0.15s-16.23,5.27-15.36,15.29c0.82,9.54,15.83,9.63,15,0h0Z"/>
  <path d="M460.06,483.22c3.53,2.54,7.51,4.06,11.28,6.15,4,2.21,7,5.61,10.69,8.24,6.25,4.46,14.82,5.47,20,11.43,6.35,7.29,16.92-3.35,10.61-10.61-5.92-6.8-14.52-8.16-21.73-12.87-3.77-2.46-6.74-6-10.61-8.35-4.13-2.54-8.72-4.11-12.68-7-3.31-2.38-8.32-.55-10.26,2.69-2.25,3.75-.58,7.91,2.69,10.26h0Z"/>
  <path d="M490.85,351.25c0-2.89-.69-7.4,1.19-9.91,1.62-2.15,6.42-3.62,8.95-3.66s3.77,1.46,5.17,3.53c0.72,1.06,3.11,4.9,1.89,6.24-6.47,7.14,4.1,17.78,10.61,10.61,10.34-11.4.74-33-14-35.17-7.18-1.06-16.27,1.81-21.76,6.51-6.49,5.55-7.11,13.88-7,21.86,0.1,9.65,15.1,9.67,15,0h0Z"/>
  <path d="M385.64,464.51c1.28-4,5-4.94,9.36-5.89,5.65-1.23,11.47-1.53,17.07-3,6-1.6,11.74-4.57,15.37-9.82,2.3-3.32,3.73-7.05,1.84-10.92-2-4.09-5.62-7.34-9.21-10-5.92-4.4-14.32-7.33-17.47-14.53s-1.75-16.58-2-24.18c-0.45-15.87.33-33.25,13.6-44.35,15.4-12.88,29.7,4.71,39.89,15,6.8,6.87,17.41-3.74,10.61-10.61-8.5-8.58-16.86-18.42-28.69-22.37-12.56-4.19-26.55.6-35.27,10.18a59.64,59.64,0,0,0-15,34.1c-0.77,8.09-.18,16.27,0,24.37,0.13,6.47-.16,13.1,1.54,19.41,2,7.4,6.68,13.23,12.76,17.74,5.48,4.06,12.67,6.67,16.22,12.79v-7.57c-3.25,7.65-14,7.32-21.84,8.64-10.53,1.77-19.84,6.19-23.31,17-3,9.21,11.52,13.16,14.46,4h0Z"/>
  <path d="M451.91,327.5c-0.15-2.62-.9,1.87-1.23,1.3a13.33,13.33,0,0,1,2.43-.41,15.78,15.78,0,0,1,7.14,1.11c-1.14-.49,1,0.77,1.41,1a53.37,53.37,0,0,1,6.56,6.48c0.43,0.56,1.75,3.32,1.69,2.47,0.61,9.59,15.62,9.65,15,0-0.68-10.58-12.24-22.16-22.23-25s-26.57-.81-25.77,12.95c0.55,9.6,15.56,9.66,15,0h0Z"/>
  <path d="M485,284.5c6.41-.07,12.94-0.94,19.33-0.11s12.33,0.93,18.68,1.19c5.8,0.24,10.6,1.23,15.5,4.54,2.36,1.6,4,4,6.09,6,1.91,1.81,4.09,3.29,5.94,5.17,3.71,3.75,8.06,6.72,10.79,11.3,3.24,5.46,6,11,8.78,16.7,2.49,5,5.55,9.73,6.69,15.39s0.94,10,4.92,14.64c6.28,7.35,16.85-3.3,10.61-10.61-0.91-1.06-.62-5.43-0.85-6.8-0.53-3.11-1.86-5.88-2.89-8.83-2-5.6-4.95-10.69-7.53-16-2.89-6-6.42-12.78-10.76-17.83-1.79-2.09-4.08-3.53-6.09-5.37s-3.89-4.06-6.11-5.9c-4.87-4-8.54-9.08-14.29-12a43.68,43.68,0,0,0-18-5.2c-6.48-.48-12.84-0.15-19.28-1.08-7.17-1-14.34-.25-21.55-0.16-9.65.11-9.67,15.11,0,15h0Z"/>
  <path d="M386.48,247q-0.24,3.86,2.81-1.29a14.72,14.72,0,0,1-2.25.52c-0.84.13-1.9,0.18-2.69,0.22-3.92.21-7.79-.22-11.71,0.23-4.08.46-8.05,1.35-12.08,2.12a30.85,30.85,0,0,1-5.51.78,9.86,9.86,0,0,1-3.64-.36q-3-1.21.88,2.19v4c-0.71,3.22-1.89,1.41-.25,1.16a9.3,9.3,0,0,0,1.78-.86,19.34,19.34,0,0,0,4.42-3.25,21.94,21.94,0,0,0,5.53-11.9c0.29-1.7.19-4.14,1-5.7,0.64-1.26,1.5-1.4,2.79-2.3A16.73,16.73,0,0,0,374.31,221c0.65-4.45.21-8.93,0.17-13.41,0-5.32-.09-10.62-0.57-15.93-0.43-4.76-.1-9.5-0.49-14.24-0.47-5.79-1.09-11.39-1.1-17.21,0-10.8.1-21.59,0-32.4,0-4.55,0-8.59,1.22-13,1.37-4.81,1.47-9.75,2.36-14.64,1.43-7.86,4-13.22,10.89-17.32a159.29,159.29,0,0,1,26.58-12.73c5.36-1.94,10.35-2.06,16-1.83s11.08,0,16.58.61c5.22,0.56,8.29,2.28,12.67,4.9,3.63,2.17,8.2,3.26,11.06,6.49,6.43,7.23,17-3.41,10.61-10.61-3.74-4.21-8.83-5.76-13.55-8.51-6.11-3.56-10.92-6-18.08-6.95-6.69-.86-13.45-0.73-20.18-1-6.89-.25-13.42.25-19.92,2.72s-12.74,5.26-18.88,8.28-12.9,6.13-17.9,10.74c-8.69,8-10,19.72-11.58,30.69-0.4,2.82-1.37,5.37-2,8.12a47.43,47.43,0,0,0-.86,11c0,7.85.21,15.7,0.12,23.56-0.08,7.14-.45,14.39.12,21.52s0.73,14.5,1.36,21.73c0.59,6.7.46,13.41,0.66,20.12,0.06,2.05.83,5.64-.14,7.61-1.22,2.48-5,3.45-6.72,6-3.14,4.73-1.83,10.43-4.29,15.17-2,3.76-7.42,4.09-9.63,8.23-3.81,7.16,2,13.09,8.66,14.89,8,2.17,15.92-.44,23.83-1.76,11.12-1.86,31.63,3,30.22-14.93-0.76-9.56-15.76-9.64-15,0h0Z"/>
  <path d="M492,259.5c3.29,0.37,6.39,2.51,9.6,3.28a45.89,45.89,0,0,0,10.13.78c7.3,0.09,15.3-2.75,15.32-11.46,0-7.65-6.65-10.91-11.42-15.55-2.27-2.2-4.41-4.52-4.91-7.71-0.64-4.06,0-7.81-1.47-11.82-3.26-9-17.76-5.12-14.46,4,1.94,5.36.37,11.14,2.92,16.48a36.3,36.3,0,0,0,9.59,11.7c1.06,0.87,3.73,3.88,5,4.15q3.7-5,.31-4.72l-1.74-.07c-1.34,0-2.75.11-4.09-.05-5.09-.62-9.58-3.39-14.78-4-4-.46-7.5,3.77-7.5,7.5,0,4.43,3.46,7,7.5,7.5h0Z"/>
  <path d="M397,268.5c-19.53.4-37.38,6.63-54,16.58-7.7,4.6-13.07,11.14-17.29,19-4.52,8.39-8.85,17.26-9.17,26.94s14.68,9.64,15,0c0.24-7.31,4.35-14.47,7.86-20.72,3.65-6.51,7.85-10.29,14.24-14.06A88.74,88.74,0,0,1,397,283.5c9.64-.2,9.67-15.2,0-15h0Z"/>
  <path d="M304.88,330.5c1.57,12.15,7.22,22,11.86,33.15,4.82,11.52,6.38,24.46,7.87,36.77,1.56,12.91,3.64,25,7.5,37.49s5.82,24.93,8.53,37.64c1.28,6,2.67,12,3.07,18.17a112.16,112.16,0,0,0,1.78,15.38,76.77,76.77,0,0,0,10.87,26.57c11.12,16.84,29.33,26.93,49.76,25.22,24.79-2.08,24.51-34.54,40.58-48.06,7.4-6.22-3.26-16.79-10.61-10.61-7.65,6.44-12.06,15.49-16.27,24.35-1.83,3.85-3.77,7.6-5.84,11.32-1.43,2.58-2.53,6-5.31,7.35-3.38,1.64-8.4.83-12,.45a34.4,34.4,0,0,1-10.78-2.81c-7.49-3.44-13.41-9.54-17.69-16.48-10.3-16.71-9.16-36.24-13.12-54.84-2.45-11.5-4-22.92-7.46-34.2a196.07,196.07,0,0,1-7.81-35.09c-1.53-12.94-2.9-26.44-7.19-38.83-3.82-11-11.24-21.2-12.76-32.94-0.52-4-3.08-7.5-7.5-7.5-3.65,0-8,3.45-7.5,7.5h0Z"/>
  <path d="M453.07,479.25c-0.41,1.6-3.58,2.6-5.12,3.36-3.28,1.63-6.28,3.42-8.61,6.31a36.49,36.49,0,0,0-7.54,23.82c0.63,9.58,15.63,9.65,15,0-0.37-5.62,1.49-13.35,6.73-16.18,6.08-3.28,12.13-6,14-13.32,2.37-9.36-12.09-13.35-14.46-4h0Z"/>
  <path d="M490.57,498.75c-4.18,11.46,1.91,21,10.34,28.43,4.28,3.76,8.65,7.43,13.13,11,5,3.92,9.55,9,15.45,11.45a102.49,102.49,0,0,1,14.32,7.63c6,3.66,12.16,5.51,19,7,12.48,2.68,25.71,3.13,36.12-5.7,8.09-6.86,11-19.15,12.69-29.14,2.36-14,2-28.1,1.79-42.23s-0.54-28.6-.1-42.84c0.45-14.8,3.31-29.38,3.37-44.23,0.06-15.37-2.08-30.39-4.23-45.56-1.8-12.72-4.12-24.49-14.86-32.73-3.24-2.48-8.37-.47-10.26,2.69-2.3,3.84-.51,7.81,2.69,10.26,6.42,4.92,6.86,15.82,7.87,23.09,1.61,11.55,3.29,23,3.68,34.66,0.4,12.2-.66,24.19-2,36.3-1.38,12.46-1.27,24.8-1.26,37.32,0,23.51,3.22,49-4.17,71.67-2.64,8.12-6.94,12.52-15.91,13.49-5,.54-10.15-1.18-15-2.25a43.65,43.65,0,0,1-14.48-6.38,69.52,69.52,0,0,0-8.16-4.7c-2.35-1.08-5.13-1.58-7.28-3.07-2.31-1.6-4.41-4-6.65-5.72-2.5-2-5-3.91-7.46-5.94a136.52,136.52,0,0,1-11.63-10.28c-3.13-3.28-4.17-5.82-2.58-10.17,3.31-9.08-11.18-13-14.46-4h0Z"/>
</svg>
