<svg id="Layer_12" data-name="Layer 12" xmlns="http://www.w3.org/2000/svg" viewBox="0 0 889.98 1065">
  <defs>
    <style>
      .cls-1 {
        fill: #ededed;
      }

      .cls-2 {
        fill: #c4c4c4;
      }
    </style>
  </defs>
  <title>running guy</title>
  <path class="cls-1" d="M375.06,970.07c-25.92,7.53-52.4,15.13-79.36,14-7.79-.33-15.88-1.52-22.3-5.95s-10.64-12.85-8.07-20.21c2.08-6,7.83-9.76,13.21-13.1L340,906.65c3.21-2,6.49-4,10.15-5,5.83-1.53,12-.22,17.87,1.15,15,3.51,50.68,6.06,49,27.72C415.26,953.4,394.2,964.51,375.06,970.07Z"/>
  <path class="cls-1" d="M692.85,982.71c-20.89,9.41-45.14,17.47-66.13,8.3-4.65-2-8.91-4.83-13.4-7.19-16.75-8.8-36.22-11.2-53.18-19.58-3.42-1.69-6.9-3.79-8.64-7.19-1.49-2.92-1.47-6.35-1.41-9.63l0.22-12.14c0-2,.13-4.17,1.42-5.7,1.53-1.82,4.18-2.08,6.56-2.26a207.25,207.25,0,0,0,54.82-11.67c-0.34,5.26,3.38,10.09,7.93,12.76s9.85,3.65,15,4.85a160.82,160.82,0,0,1,53.59,23.43C701,964.41,709.3,975.3,692.85,982.71Z"/>
  <path class="cls-2" d="M568.84,940c-2.36-.76-3.7-2.66-6.43-2.9-3.37-.3-5.14-0.47-8.26-2.16-7.18-3.88-6.63-9.91-6.74-17.29-0.07-4.69-2.11-9.32-2.59-14-0.43-4.18-.42-8.41-0.79-12.6q-1.45-16.76-3-33.52c-2.06-22.31-4.35-44.61-7.28-66.83-5.77-43.85-14-87.56-28-129.59a427.22,427.22,0,0,0-29.12-68c-34.85,25.51-41.92,73.78-46.11,116.77l-6.76,69.3-7.27,74.52L412.87,891l-1.82,18.63c-0.29,3,1,11-1.2,13-1.74,1.65-4.09,1.07-6.36,1.06-5.68,0-10.95.59-16.17-1.51-7.22-2.9-15.26-3.94-22.08-8.09-6.62-4-10.08-11.06-15.2-16.78-6.42-7.18-13.39-14.74-15.25-24.47-2.21-11.54-1.8-23.12-1.8-34.83V784.39c0-7.63-.91-15.76.87-23.21a29.71,29.71,0,0,0,1.11-7.52c-0.18-18.5-2.87-37.3-4.17-55.77-1.25-17.74-2.4-35.89,2.37-53,8.23-29.6,30.82-56.61,21.25-88.87-7.13-24-27.86-41.57-38.56-64.25-14.2-30.09-9.27-65.3-4-98.16,1.5-9.4,3-18.93,6.86-27.64,8.56-19.43,24.66-34.86,34.31-53.85,10.76-21.18,18.78-23.8,40.8-36.73,15.35-9,14.42-8.57,19.68-29.52-7.5-9.61-22.56-3.18-33.33,2.53s-28.84,6.58-30.49-5.5c-0.84-6.16,3.83-11.5,7.39-16.6,15.51-22.2,12.83-51.75,11.7-78.82s1.88-58.15,23.67-74.24C413,58,442.64,62.91,464.89,75.52c20.43,11.59,38.91,35.32,29.8,57,11-7.75,28.25,2,29.66,15.33S514.14,173.59,500.92,176a93.27,93.27,0,0,0,11.78,57.63c2.28,3.93,4.94,8.06,4.58,12.59-1,12.08-18.73,12-30.24,8.22-7.26,6.12-1.74,19,7,22.75s18.68,2.1,28.16,2.73c22.61,1.48,42.58,16.53,55.57,35.09,18.58,26.56,23.72,58.34,32.92,88.74,2,6.66,4.05,13.48,3.79,20.43-0.34,9.08-4.55,17.49-7.35,26.14-5.37,16.63-5.54,34.43-5.67,51.91,0,6.77-.08,13.65,1.8,20.15,2.08,7.19,6.48,13.95,6.19,21.43-0.65,17-22.83,5.63-24.53,18-2.35,17.17,6.28,36.43,7.73,53.6,1.51,18,4.71,36.29,7.2,54.52A847.4,847.4,0,0,1,607.56,774c0.12,9.36.23,16.78-2.16,25.48-3.22,11.72-.56,27.09,1.14,38.94,1,6.69.76,13.25,0.83,20,0.05,5.09,1.37,9.75,1.59,14.77,0.39,8.93,1.46,17.4,1.46,26.46,0,4.82.27,9.71,0.07,14.52s-3.29,6.32-6.07,9.88c-2.42,3.11-3.64,5.33-7.47,6.8s-7.62,3.33-11.22,5.07c-4.77,2.3-10,5.18-15.8,4.37A6.4,6.4,0,0,1,568.84,940Z"/>
  <path d="M333.75,958c1.09-3.29,3.46-3-.16-2.23-1.16.24-2.31,0.43-3.45,0.75-3.44.94-7.09,1.36-10.47,2.49-7.36,2.47-12.73,8.44-16.16,15.21-4.36,8.59,8.58,16.19,13,7.57,1.55-3,3.35-6.19,6.46-7.89s7.07-1.67,10.43-2.64c6.16-1.78,12.52-2.18,14.87-9.26,3.05-9.18-11.43-13.12-14.46-4h0Z"/>
  <path d="M310,947.77c-6,.83-12.18,1.46-17.92,3.37a20,20,0,0,0-7.39,4.1c-2.19,2-3.58,4.35-6.27,5.77-4.86,2.56-9.39,5.87-9,12,0.33,5.68,4.92,7.64,8.3,11.31,6.55,7.12,17.14-3.51,10.61-10.61-1.46-1.59-4.13-2.74-4.93-4.49l1,3.79q-2.47,3.51.24,1.6L286,974a21.35,21.35,0,0,0,4.08-2.63c2.07-1.73,3.45-4.53,5.86-5.72,2.12-1.05,5.25-1.19,7.55-1.68,3.46-.73,7-1.2,10.5-1.69,4-.56,6.23-5.69,5.24-9.23-1.21-4.32-5.18-5.8-9.23-5.24h0Z"/>
  <path d="M629,977.5a95.66,95.66,0,0,1,12.53.85c1.61,0.18,3.68-.2,5.18.27,1.22,0.39,2.57,1.78,3.55,2.57a28.81,28.81,0,0,1,6.56,7.25,29.24,29.24,0,0,1,1.78,3.05,3.19,3.19,0,0,1,.51,1.06q0.8,3.72,1.6-3.85c-7,6.64,3.58,17.23,10.61,10.61,7.82-7.38-2-20.66-7.63-26.24-4.15-4.13-9.71-8.84-15.73-9.43A166.2,166.2,0,0,0,629,962.5c-9.64.14-9.67,15.14,0,15h0Z"/>
  <path d="M649.77,972.48c5.77-2.82,13-4.11,19-1,2.09,1.09,3,2.87,4.42,4.83a38.75,38.75,0,0,0,7.47,8c3.17,2.57,7.49,3,10.61,0,2.66-2.6,3.14-8.07,0-10.61-3.62-2.93-5.84-6.2-8.67-9.84-3-3.84-6.49-5.79-11.1-7.2-10.33-3.16-19.72-1.84-29.33,2.87-8.67,4.24-1.07,17.19,7.57,13h0Z"/>
  <path d="M403.46,210c0.66-9.08-2.26-17.64-4-26.42-1.83-9.2-2.44-18.65-3.08-28-0.66-9.57-1.13-19.13-1.19-28.73,0-4.51,0-9,0-13.54,0-3.63-.58-7.7.72-11.17,2.18-5.78,7.63-10.37,12.48-13.9,6-4.34,12.19-8,19.46-9.57,14.58-3.13,31.47-2,43.87,6.69,4,2.83,7.75,6,11.89,8.73,2.84,1.85,5,3.34,6.37,6.5,4.12,9.26,1.95,20.24,2.38,30,0.42,9.62,15.42,9.67,15,0-0.47-10.76,1.22-21.84-2.27-32.27-2.93-8.74-8-13.16-15.36-18.19-8.26-5.61-15.32-12-25.05-15.12-8.27-2.63-17.5-2.77-26.1-2.53a68.67,68.67,0,0,0-47.92,21.28c-5.88,6.06-10,13.23-10.42,21.78-0.52,10.87-.2,22,0.16,32.84,0.4,12,1.21,24.15,2.66,36.09a161.78,161.78,0,0,0,3.11,18.18c1.38,5.78,2.74,11.29,2.3,17.28-0.7,9.63,14.3,9.59,15,0h0Z"/>
  <path d="M474.46,148c0,0.21,0,.86-0.33.81s1.27-1.12.67-.68a18.84,18.84,0,0,1,4-2.16,65.87,65.87,0,0,1,13.46-3.43,104.63,104.63,0,0,1,21.15-1.45c2.48,0.1,6.86.57,7.6,2,1.47,2.78-1.77,8.85-3.17,11.58-2.53,4.94-5.2,7.1-10.89,7.81-6.91.86-13.37-2.46-20-3.69-9.44-1.74-13.48,12.72-4,14.46,7.63,1.4,14.82,4.75,22.73,4.33,6.66-.35,13.72-2.08,18.82-6.59,4.53-4,7.21-10.08,9.33-15.6s3.4-11.58,1.33-17.28c-4-10.94-16.82-12.33-26.87-12a135,135,0,0,0-25.27,3c-9.86,2.25-23.19,6.84-23.59,18.88-0.32,9.66,14.68,9.64,15,0h0Z"/>
  <path d="M498.73,174c-3.72,10.14-4.46,20.82-5.86,31.43-0.91,6.9-2.6,12.87-9.28,16.05-4.3,2-14,5.33-18.43,2.12-3.48-2.52-4.91-8.75-7-12.34-2.19-3.84-6.06-6.87-7-11.27-2-9.43-16.5-5.44-14.46,4,1.36,6.32,6,10.12,8.92,15.59,2.82,5.26,4.79,11,9.43,15.06,8.45,7.3,21.07,5.51,30.82,2,9.48-3.38,16.59-9.79,19.84-19.44,1.93-5.72,2.17-12.1,2.88-18.05A92.31,92.31,0,0,1,513.19,178c3.33-9.08-11.16-13-14.46-4h0Z"/>
  <path d="M392.46,208c1.48,22.24,9,43.66,10,66,0.45,9.61,15.45,9.67,15,0-0.51-10.91-2.34-21.92-4.28-32.66-2-11.11-5-22-5.72-33.34-0.64-9.58-15.64-9.65-15,0h0Z"/>
  <path d="M478.46,232v36c0,9.65,15,9.67,15,0V232c0-9.65-15-9.67-15,0h0Z"/>
  <path d="M497,533.5c8.74-.14,17,2.29,24.9,5.8,3.85,1.7,7.6,3.65,11.52,5.2,3.46,1.37,7.4,2.31,10.28,4.8,7.26,6.3,17.92-4.27,10.61-10.61a40.16,40.16,0,0,0-12.57-7c-4.71-1.8-9.2-4-13.83-6-9.9-4.28-20-7.34-30.91-7.17-9.64.15-9.67,15.15,0,15h0Z"/>
  <path d="M471.24,500.51c2.86,9.58,12.16,13,19.75,18.12,9.16,6.15,17.22,13.66,25.25,21.16,3.82,3.57,8.09,6.57,13.23,7.84,6,1.49,12.22.74,18.32,0.48,12-.51,24.4,1.12,36.28-0.87,4-.67,7.77-2.18,11.73-2.88,5.15-.91,10.36-0.8,14.85-3.88,9.32-6.38,7.33-20,7.39-29.78q0.25-39.95,0-79.92c-0.09-14.42-2.84-28.3-3.85-42.61S608.81,360,609,345.5c0.12-9.66-14.88-9.66-15,0-0.14,11.51,2.21,22.53,4.26,33.79,1,5.3,1,10.71,1.51,16.05,0.59,5.87,1.95,11.62,2.52,17.49,1.13,11.67.73,23.41,0.71,35.11,0,12.09.06,24.18,0.09,36.27,0,11.77-.06,23.54-0.1,35.31,0,2.17.56,7.24-.79,8.64-1.81,1.86-8.91,1.41-11.26,1.93-3.92.87-7.68,2.35-11.7,2.77-5.63.58-11.47,0.13-17.13,0.14-5.3,0-10.62-.09-15.91.2-4.49.24-9.87,1.22-14.19-.43s-7.48-6.12-10.89-9.25c-4.41-4.05-9.24-7.76-14-11.44a109.88,109.88,0,0,0-12.45-8.76c-2.64-1.52-8-3.62-9-6.79-2.76-9.23-17.24-5.3-14.46,4h0Z"/>
  <path d="M457.48,475c0.4,3.77-1.68,8.2-2.93,11.77-0.56,1.58-.79,3.44-1.41,4.95-1,2.52-3.36,5.27-5.1,7.39-3.68,4.49-8.3,7.33-12.84,10.82a70.4,70.4,0,0,0-14,15c-6.56,9-11.91,19.92-19.8,27.85-4,4.06-8.7,4.72-14.23,4.78s-10.84.33-16.23,0.18a24,24,0,0,1-6.67-.81c-2.42-.78-1.82-0.33-2.82-2.48-2.85-6.17-7.24-10.45-11.72-15.47-4.63-5.19-9.71-10.68-12.44-17.17a76.92,76.92,0,0,1-5.43-18.7c-1.81-13.41-.64-26.36-8.48-38.17-1.32-2-2.76-3.72-3.2-6.09-0.61-3.3.22-7.23,0.24-10.59,0-7.09-.51-14.17-0.62-21.25-0.13-8.1,0-16.55,2.7-24.29,2.4-6.82,6.19-12.68,7.46-19.95,2.83-16.27-.63-32.26-1.18-48.49-0.33-9.63-15.33-9.67-15,0,0.51,15,4.28,30.34,1.57,45.32-1.35,7.46-5.73,13.59-7.82,20.8-2.15,7.41-2.72,15.33-2.75,23,0,8,.62,16,0.65,24,0,7.29-1.16,14.42,2.44,21.12,1.52,2.83,3.7,5.24,5.1,8.14a32.45,32.45,0,0,1,2.69,10.19c0.86,7.15.71,14.37,1.94,21.49a89.78,89.78,0,0,0,7,21.55c3.26,7.06,8.83,13.21,13.95,19,2.38,2.69,5.16,5.15,7.35,8,1.9,2.47,2.52,5.58,4.37,8.09,3.69,5,9.73,6.7,15.63,7.41,5.3,0.63,10.57.24,15.89,0.18,7.42-.09,14.81.19,21.71-3,11.43-5.25,17.66-18.3,24.52-28.16,4.29-6.17,8.29-12.54,13.89-17.65,5.87-5.35,12.62-8.86,17.69-15.19a50.41,50.41,0,0,0,8.91-16.4c1.78-5.34,4.57-11.43,4-17.14-0.43-4-3.14-7.5-7.5-7.5-3.72,0-7.93,3.45-7.5,7.5h0Z"/>
  <path d="M579.46,566c-0.09,11.06,1.76,22.26,2.43,33.31s1.37,22.27,2.69,33.35c2.53,21.23,6.83,42.11,6.87,63.58,0.06,27.1,1.35,54.22,2.91,81.27,1.73,29.94,3.84,59.95,7.92,89.67,2.1,15.28,5.23,30,5.25,45.53,0,7.44-1.19,16.08,4.8,21.71,5.77,5.42,16.41,6.24,23.77,7.46,4.62,0.76,9.47,1,13.94,2.44s8.52,4.12,12.41,6.71c7,4.67,13.51,9.58,21.12,13.23,2.93,1.41,6.09,2.77,8.61,4.85a9.75,9.75,0,0,1,2.45,2.92c0.06,0.12.59,2.15,0.3,0.66,0.23,1.21.4-.4-0.14,0.74,0.39-.82-0.21.11-0.49,0.36a12,12,0,0,1-1.82,1.5,32.92,32.92,0,0,1-7.28,3.61,121.57,121.57,0,0,1-39.31,7.63A65.58,65.58,0,0,1,618.05,981c-9.56-4.27-18.21-10.37-27.64-14.9a96.5,96.5,0,0,0-12.8-5.18c-4.75-1.49-9.4-1.8-14.24-2.62-7-1.17-7-13.16-7-18.59,0-10.55.11-20.88-1-31.4-1.18-11.05-3-22-4-33.09-2.13-21.5-1.85-43.31-2.79-64.88-0.47-10.89-.88-21.81-1.92-32.66a52.59,52.59,0,0,0-1.56-10c-1.53-5.19-3.67-10.12-5-15.38-1.39-5.55-2.38-11.18-3.5-16.79-4.28-21.29-13-41.27-18.19-62.33-2.65-10.83-6.56-21.21-9.4-32-2.73-10.34-4.47-20.92-7.75-31.12-2.78-8.65-5.67-19-11.11-26.35-6.66-9.06-16.54-4-22.56,2.93s-10.66,14.74-16.07,21.94c-6.39,8.51-12.17,17.36-15.88,27.39-7.42,20.1-8.09,41.07-8.1,62.23,0,11.69-.19,23.39-0.83,35.06-0.56,10.29-.64,21-2.85,31.06-1.71,7.8-1.74,16.08-2.13,24-0.62,12.61-1.06,25.24-1.63,37.86-0.25,5.48-.51,11-0.85,16.44-0.14,2.31-.3,4.63-0.5,6.94-0.07.85-.15,1.7-0.24,2.55-0.06.62-.55,3.54-0.11,1.11-1.19,6.61-3.87,13-5.45,19.52-2.52,10.42-4.44,21-5.91,31.66s-1.31,21.24-1.32,32c0,4.5-1.07,8.45-2.35,12.73a62.72,62.72,0,0,0-1.73,7c-0.3,1.65-.29,3.39-1.48,4.56-2.2,2.16-6.91,2.59-9.75,3.17-3.73.76-7.48,1.35-11.18,2.28-10.71,2.69-21.38,5.52-32.18,7.82-5,1.07-10.18,2.38-15.35,2.44-5.48.06-10.74-.32-16.18,0.63-10.07,1.76-20.62,2.52-30.74.32-5.32-1.16-13.87-3-13.11-10,0.69-6.32,5.74-12.33,10.49-16.17,3.61-2.92,7.72-5.2,11.49-7.9,4.33-3.09,8.38-6.55,12.68-9.68,7.4-5.39,14.46-13,23.54-15.14,4.43-1.05,8.83-2,13.3-2.86s8.5-2.71,11-6.67c4.25-6.65,2.54-14.92,1-22.11-5.21-23.77-6.6-48.67-8.73-73-2.15-24.62-4.09-49.27-5.59-73.93a397.91,397.91,0,0,1,1.17-66.8c0.51-4.71.34-9.52,1.05-14.19,0.81-5.38,3.36-10.6,5.4-15.6,4.37-10.69,7.57-21.46,11-32.46,2.8-9,7-17.14,8.44-26.54,1.5-10,1.58-20.13-1.06-29.95-2.51-9.31-17-5.36-14.46,4a57.58,57.58,0,0,1-.38,29.28c-1.32,4.95-3.51,9.58-5.32,14.36-2,5.19-3.28,10.6-4.84,15.92-3.22,11-8.35,21.13-11.93,31.94a54.89,54.89,0,0,0-2.26,14.59c-0.29,5.7-1,11.35-1.46,17-2.71,31.81-.14,63.62,2.26,95.35,2.21,29.22,4.52,58.47,8.14,87.55,1.31,10.52,3.77,20.86,5.14,31.33a14.34,14.34,0,0,1,.1,4.35c-0.11.56-.81,1.36-0.11,0.66,0.46-.46,1.06.11-1.11,0.17-4.37.11-8.91,1.81-13.13,2.77-4.79,1.09-9.4,2.49-13.49,5.32s-7.56,6.15-11.51,9c-8.51,6.15-16.85,12.44-25.44,18.47C270,941.4,263.74,947.41,260,955.16c-3.35,7-4.84,14.87-1.57,22.17,3.68,8.21,12.3,12.09,20.57,14.18a88.72,88.72,0,0,0,30.43,1.84c5.11-.55,9.94-2.05,15.12-2,5.87,0,11.31.06,17.13-1,10.87-1.95,21.6-4.6,32.3-7.32,8.43-2.14,17.23-3.4,25.55-5.86,3.88-1.15,8-2.76,11-5.59,3.62-3.42,4.7-7.38,5.61-12.08s2.86-9.4,3.77-14.24c1-5.17.66-10.33,0.59-15.56-0.32-21.6,3.65-43.78,10-64.39,2.72-8.8,3.39-17.34,3.9-26.53,0.7-12.49,1.14-25,1.67-37.48,0.43-10.28.92-20.55,1.78-30.8,0.18-2.13-.23.8,0-0.27,0.11-.47.15-1,0.27-1.43a69.11,69.11,0,0,0,2.11-14.53c0.56-11.5,1.59-23,1.92-34.48,0.61-21.7-1.35-43.81,3.57-65.14a86.67,86.67,0,0,1,11.49-28.22c5.41-8.38,11.75-16.13,17.39-24.36a48.89,48.89,0,0,1,4-5.25c0.67-.74,1.48-1.38,2.11-2.14l0.55-.5q3.32-1.81-3.54-1.94c-0.07.87,2.15,4,2.54,4.83,1.21,2.58,2.24,5.24,3.23,7.92a251.57,251.57,0,0,1,8.81,31.39c2.48,10.85,6.34,21.16,9.26,31.87s5.42,21.52,9,32.1c3.42,10.23,7.14,20.38,9.7,30.87,2.71,11.09,4,22.56,7.76,33.37,1.08,3.06,2.26,6.07,3.11,9.21a15.59,15.59,0,0,1,.25,1.57c-0.39-2.42,0,.54.1,1.14,0.48,4.62.77,9.27,1,13.91,1.39,23.33,2,46.69,2.81,70,0.58,16.09,3.31,31.94,5,47.93,1.12,10.52,1,20.85,1,31.4,0,9.7,1.53,20.35,8.44,27.75,6.09,6.52,14.33,5.17,22.2,7.42,9.83,2.82,18.58,8.18,27.41,13.18,9.17,5.2,18.59,9.8,29,11.83a92.58,92.58,0,0,0,30.55.49c12.36-1.7,25.1-4.32,36.45-9.64,5.11-2.4,10.22-5.81,12.89-10.94,3.55-6.83.87-14.82-4.17-20.12-5.38-5.66-12.89-7.89-19.47-11.71-8.16-4.74-15.2-11.2-23.75-15.34-9.32-4.52-19.49-4.74-29.47-6.92-2.76-.6-7.06-1.33-9-2.46a1,1,0,1,0,.14.15c0.44,0.84-.09,0,0-0.51,0.39-1.89,0-4.61,0-6.51A174.51,174.51,0,0,0,620.27,884c-1-5.63-2.13-11.22-3-16.88-1.94-13.23-3.22-26.56-4.39-39.87-2.77-31.64-4.56-63.39-5.69-95.13-0.42-12-.76-23.94-0.78-35.91,0-21.8-4.49-43-7-64.53-1.25-10.76-1.92-21.58-2.58-32.39-0.67-11.05-2.52-22.25-2.43-33.31,0.08-9.65-14.92-9.66-15,0h0Z"/>
  <path d="M546,411.51c0.08-13.4,1.94-27.43-2.15-40.47-3.67-11.69-11.74-20.35-21.37-27.53a91.36,91.36,0,0,0-13.22-8.64c-4.84-2.43-9.78-2.73-15.1-2.86-4.57-.11-9.45-1.11-13.69,1.2-5.59,3.05-7.32,9.95-7.23,15.89,0.11,6.6,2.5,12.45,5.58,18.16A116,116,0,0,1,487,386.47a148.5,148.5,0,0,1,4.58,17.6c0.58,3,1.55,7.09-1,9.36-3.81,3.38-11,4-15.78,5.19-4.92,1.25-10.94,2.27-14.79,5.85-3,2.82-3.94,6.59-4.09,10.59-0.2,5.23-.11,10.57,0,15.8,0.15,13.64,3.89,25.15,16.21,32.28,5.17,3,10.87,4.93,15.81,8.33,4.78,3.29,9.6,7.48,15.56,8.28,4,0.54,8-1,9.23-5.24,1-3.49-1.23-8.69-5.24-9.23-4.18-.56-7.51-3.61-10.85-6A78.77,78.77,0,0,0,485,473c-3.66-1.77-8.15-3.64-10.73-6.92s-3.15-8.15-3.34-12.33,0-8.42,0-12.63c0-2-.17-4-0.06-6,0.14-2.43-.56.8-0.91,0.59a36.81,36.81,0,0,0,3.69-1.23c2.81-.8,5.66-1.46,8.49-2.19,5.25-1.34,10.93-2.69,15.57-5.59,8.18-5.1,10.18-13.8,8.9-22.83a131.21,131.21,0,0,0-8.83-31.17c-2.06-5-4.51-9.73-7-14.52a22.43,22.43,0,0,1-2.56-7.27,15.16,15.16,0,0,1,0-3.5c0.71-5.69-.7,2-1.27-0.7,0.13,0.62,10.44.35,11.57,0.47,3.2,0.34,5.53,2.06,8.25,3.82,8.64,5.59,17.7,12,21.78,21.85,4.95,12,2.47,26.18,2.39,38.73-0.06,9.65,14.94,9.66,15,0h0Z"/>
  <path d="M485,284.5c6.72-.08,14-1.39,20.57.29,3,0.76,5.66,1.71,8.76,1.88s6.14-.42,9.25.27c6.74,1.52,12.79,5.37,19.53,7.06,6.27,1.57,12.86,2.92,18.25,6.67a39.34,39.34,0,0,1,12,12.75c3,5.58,5.41,11.45,8.51,17s6.52,11.24,9.52,17c2.82,5.4,5.73,10.8,10.36,14.88,7.21,6.36,17.86-4.2,10.61-10.61-4.61-4.07-6.81-9.84-9.75-15.11-3.57-6.4-7.42-12.66-10.84-19.14-3.06-5.81-5.05-12-9.19-17.18a59.38,59.38,0,0,0-14.9-13.38c-6.23-3.83-13.54-5.56-20.54-7.34-6.75-1.72-12.81-5.3-19.53-7.06a37.71,37.71,0,0,0-10.63-.8c-3.23.06-5.74-1-8.84-1.74-7.54-1.68-15.45-.52-23.08-0.44-9.65.11-9.67,15.11,0,15h0Z"/>
  <path d="M386.48,247q-0.24,3.86,2.81-1.29a14.72,14.72,0,0,1-2.25.52c-0.84.13-1.9,0.18-2.69,0.22-3.92.21-7.79-.22-11.71,0.23-4.08.46-8.05,1.35-12.08,2.12a30.85,30.85,0,0,1-5.51.78,9.86,9.86,0,0,1-3.64-.36q-3-1.21.88,2.19v4c-0.71,3.22-1.89,1.41-.25,1.16a9.3,9.3,0,0,0,1.78-.86,19.34,19.34,0,0,0,4.42-3.25,21.94,21.94,0,0,0,5.53-11.9c0.29-1.7.19-4.14,1-5.7,0.64-1.26,1.5-1.4,2.79-2.3A16.73,16.73,0,0,0,374.31,221c0.65-4.45.21-8.93,0.17-13.41,0-5.32-.09-10.62-0.57-15.93-0.43-4.76-.1-9.5-0.49-14.24-0.47-5.79-1.09-11.39-1.1-17.21,0-10.8.1-21.59,0-32.4,0-4.55,0-8.59,1.22-13,1.37-4.81,1.47-9.75,2.36-14.64,1.43-7.86,4-13.22,10.89-17.32a159.29,159.29,0,0,1,26.58-12.73c5.36-1.94,10.35-2.06,16-1.83s11.08,0,16.58.61c5.22,0.56,8.29,2.28,12.67,4.9,3.63,2.17,8.2,3.26,11.06,6.49,6.43,7.23,17-3.41,10.61-10.61-3.74-4.21-8.83-5.76-13.55-8.51-6.11-3.56-10.92-6-18.08-6.95-6.69-.86-13.45-0.73-20.18-1-6.89-.25-13.42.25-19.92,2.72s-12.74,5.26-18.88,8.28-12.9,6.13-17.9,10.74c-8.69,8-10,19.72-11.58,30.69-0.4,2.82-1.37,5.37-2,8.12a47.43,47.43,0,0,0-.86,11c0,7.85.21,15.7,0.12,23.56-0.08,7.14-.45,14.39.12,21.52s0.73,14.5,1.36,21.73c0.59,6.7.46,13.41,0.66,20.12,0.06,2.05.83,5.64-.14,7.61-1.22,2.48-5,3.45-6.72,6-3.14,4.73-1.83,10.43-4.29,15.17-2,3.76-7.42,4.09-9.63,8.23-3.81,7.16,2,13.09,8.66,14.89,8,2.17,15.92-.44,23.83-1.76,11.12-1.86,31.63,3,30.22-14.93-0.76-9.56-15.76-9.64-15,0h0Z"/>
  <path d="M492,259.5c3.29,0.37,6.39,2.51,9.6,3.28a45.89,45.89,0,0,0,10.13.78c7.3,0.09,15.3-2.75,15.32-11.46,0-7.65-6.65-10.91-11.42-15.55-2.27-2.2-4.41-4.52-4.91-7.71-0.64-4.06,0-7.81-1.47-11.82-3.26-9-17.76-5.12-14.46,4,1.94,5.36.37,11.14,2.92,16.48a36.3,36.3,0,0,0,9.59,11.7c1.06,0.87,3.73,3.88,5,4.15q3.7-5,.31-4.72l-1.74-.07c-1.34,0-2.75.11-4.09-.05-5.09-.62-9.58-3.39-14.78-4-4-.46-7.5,3.77-7.5,7.5,0,4.43,3.46,7,7.5,7.5h0Z"/>
  <path d="M389,271.77c-9.07-3.16-18.17,2.09-26.3,5.83s-12.41,11-18.11,17.54c-2.88,3.32-5.3,6.71-6.49,11-1.08,3.88-1.65,7.84-2.9,11.69-2.57,8-8.64,14.9-10.42,23.18-2,9.41,12.43,13.43,14.46,4,1.41-6.53,6.15-12.51,8.73-18.63a66.73,66.73,0,0,0,3-9.12c0.77-3,.84-6.56,2.42-9.25s4.48-5,6.61-7.44c1.94-2.24,3.14-5.31,5.28-7.31,2.6-2.41,7.2-3.62,10.4-5s5.87-3.22,9.28-2c9.13,3.18,13.06-11.3,4-14.46h0Z"/>
  <path d="M393.46,454.79c6.17-10.95,12.69-21.75,18.47-32.9,5-9.73,8.12-20.92,10-31.69,0.76-4.24.89-3.62,4.83-6a132.9,132.9,0,0,0,13.49-9.57c8.34-6.49,17.81-14.72,28.69-16.16,4-.53,7.5-3.07,7.5-7.5,0-3.64-3.46-8-7.5-7.5-12.68,1.68-23.22,8.07-33.2,15.78-4.71,3.64-9.31,7.42-14.34,10.63-4.46,2.84-9.44,5-12,9.87-2,3.82-2.27,8.62-3.3,12.76-1.5,6-2.87,12.13-5.26,17.85-5.32,12.78-13.55,24.77-20.33,36.82-4.74,8.42,8.21,16,13,7.57h0Z"/>
  <path d="M437.46,418.79c6.29-12.8,15.09-23.85,23.78-35.06,3.31-4.28,6.34-11.05,11.63-13.13,5.9-2.32,12.1-2.11,17.9-5.12,8.57-4.45,1-17.4-7.57-13-5.86,3-12.95,2.31-18.88,5.52-6.27,3.4-9.63,9.67-13.76,15.17-9.28,12.36-19.19,24-26.05,38-4.25,8.63,8.69,16.24,13,7.57h0Z"/>
  <path d="M448.48,441c-0.39-4.54,5.58-10.67,8.2-14.07,4.5-5.85,9-11.48,12.62-18,6.64-11.88,10.19-26.13,19-36.67,6.14-7.36-4.41-18-10.61-10.61-10.2,12.23-14.33,27.65-22.22,41.28-3.93,6.79-9.07,12.55-13.61,18.9-4,5.66-9,11.76-8.36,19.13,0.81,9.55,15.82,9.63,15,0h0Z"/>
  <path d="M505.47,341c17-2,25.13,18.5,30.14,31.44,3.8,9.79,8.24,19.87,10.15,30.22a33.11,33.11,0,0,1-1.34,17.55c-2.17,6.12-4.36,11.68-4.45,18.3-0.13,9.66,14.87,9.66,15,0,0.09-6.67,3.75-12.39,5.28-18.75,1.8-7.49,1.27-15.31-.38-22.77-2.46-11.12-7.13-22.2-11.48-32.74-7.39-17.92-20-41-42.93-38.25-4,.48-7.5,3.1-7.5,7.5,0,3.68,3.45,8,7.5,7.5h0Z"/>
  <path d="M529.47,449c-1-.05-0.41-0.55-0.59-0.11,0,0,.91,1.43,1.1,1.85a44.53,44.53,0,0,1,1.85,5c1.47,4.52,2.79,9.24,5.86,13,8.31,10.05,22.29,16.33,34.78,19,9.41,2,13.44-12.44,4-14.46a59.94,59.94,0,0,1-19.83-8c-4.59-2.93-7.6-5.37-9-9.48-3.29-9.44-6.09-21.2-18.13-21.78-9.65-.47-9.62,14.53,0,15h0Z"/>
</svg>
