<svg id="Layer_12" data-name="Layer 12" xmlns="http://www.w3.org/2000/svg" viewBox="0 0 889.98 1065">
  <defs>
    <style>
      .cls-1 {
        fill: #ededed;
      }

      .cls-2 {
        fill: #c4c4c4;
      }
    </style>
  </defs>
  <title>running guy</title>
  <path class="cls-1" d="M375.06,970.07c-25.92,7.53-52.4,15.13-79.36,14-7.79-.33-15.88-1.52-22.3-5.95s-10.64-12.85-8.07-20.21c2.08-6,7.83-9.76,13.21-13.1L340,906.65c3.21-2,6.49-4,10.15-5,5.83-1.53,12-.22,17.87,1.15,15,3.51,50.68,6.06,49,27.72C415.26,953.4,394.2,964.51,375.06,970.07Z"/>
  <path class="cls-1" d="M692.85,982.71c-20.89,9.41-45.14,17.47-66.13,8.3-4.65-2-8.91-4.83-13.4-7.19-16.75-8.8-36.22-11.2-53.18-19.58-3.42-1.69-6.9-3.79-8.64-7.19-1.49-2.92-1.47-6.35-1.41-9.63l0.22-12.14c0-2,.13-4.17,1.42-5.7,1.53-1.82,4.18-2.08,6.56-2.26a207.25,207.25,0,0,0,54.82-11.67c-0.34,5.26,3.38,10.09,7.93,12.76s9.85,3.65,15,4.85a160.82,160.82,0,0,1,53.59,23.43C701,964.41,709.3,975.3,692.85,982.71Z"/>
  <path class="cls-2" d="M568.84,940c-2.36-.76-3.7-2.66-6.43-2.9-3.37-.3-5.14-0.47-8.26-2.16-7.18-3.88-6.63-9.91-6.74-17.29-0.07-4.69-2.11-9.32-2.59-14-0.43-4.18-.42-8.41-0.79-12.6q-1.45-16.76-3-33.52c-2.06-22.31-4.35-44.61-7.28-66.83-5.77-43.85-14-87.56-28-129.59a427.22,427.22,0,0,0-29.12-68c-34.85,25.51-41.92,73.78-46.11,116.77l-6.76,69.3-7.27,74.52L412.87,891l-1.82,18.63c-0.29,3,1,11-1.2,13-1.74,1.65-4.09,1.07-6.36,1.06-5.68,0-10.95.59-16.17-1.51-7.22-2.9-15.26-3.94-22.08-8.09-6.62-4-10.08-11.06-15.2-16.78-6.42-7.18-13.4-14.74-15.26-24.47-2.21-11.54-1.8-23.12-1.8-34.83V784.39c0-7.63-.9-15.76.88-23.21a29.71,29.71,0,0,0,1.12-7.52c-0.18-18.5-2.86-37.3-4.17-55.77-1.25-17.74-2.4-35.89,2.37-53,4.24-15.24,12.92-28.82,18.74-43.53,7.37-18.64,20.5-60.71-9.93-65.06-10.58-1.51-21.11,2.19-31.67,3.82-26,4-51.84,9.62-78.3,10.39-7.77.23-16.88-.52-21.15-7-2.17-3.3-2.56-7.42-2.89-11.35-2.79-33.12-5.35-67.76,7.56-98.39,5.76-13.66,14.42-26,19.67-39.87,6.45-17.06,7.54-35.95,15.3-52.46,26.36-56.08,101.41-70.78,155.5-65.84l7.47-29.7c-7.5-9.61-22.56-3.18-33.33,2.53s-28.84,6.58-30.49-5.5c-0.84-6.16,3.83-11.5,7.39-16.6,15.51-22.2,12.83-51.75,11.7-78.82s1.88-58.15,23.67-74.24C413,58,442.64,62.91,464.89,75.52c20.43,11.59,38.91,35.32,29.8,57,11-7.75,28.25,2,29.66,15.33S514.14,173.59,500.92,176a93.27,93.27,0,0,0,11.78,57.63c2.28,3.93,4.94,8.06,4.58,12.59-1,12.08-18.73,12-30.24,8.22-7.26,6.12-1.74,19,7,22.75,22,9.56,52.14,7.28,75.88,15.62,7.37,2.59,14.84,5.61,20.49,11,6,5.77,9.42,13.69,12.66,21.38l22.53,53.52c8.79,20.89,17.65,42,21.54,64.32,2.14,12.31,2.79,25,7.33,36.68,5,12.73,14.3,23.41,19.09,36.21s3.08,30.07-9.09,36.29c-18.31,9.35-51.42,2-71.44,3.24-2.44.16-5.18,0.48-6.71,2.39a7.93,7.93,0,0,0-1.39,4c-2.36,17.17,6.28,36.44,7.73,53.62,1.51,18,4.71,36.29,7.2,54.52A847.4,847.4,0,0,1,607.56,774c0.12,9.36.23,16.78-2.16,25.48-3.22,11.72-.56,27.09,1.14,38.94,1,6.69.76,13.25,0.83,20,0.05,5.09,1.37,9.75,1.59,14.77,0.39,8.93,1.46,17.4,1.46,26.46,0,4.82.27,9.71,0.07,14.52s-3.29,6.32-6.07,9.88c-2.42,3.11-3.64,5.33-7.47,6.8s-7.62,3.33-11.22,5.07c-4.77,2.3-10,5.18-15.8,4.37A6.4,6.4,0,0,1,568.84,940Z"/>
  <path d="M403.46,210c0.66-9.08-2.26-17.64-4-26.42-1.83-9.2-2.44-18.65-3.08-28-0.66-9.57-1.13-19.13-1.19-28.73,0-4.51,0-9,0-13.54,0-3.63-.58-7.7.72-11.17,2.18-5.78,7.63-10.37,12.48-13.9,6-4.34,12.19-8,19.46-9.57,14.58-3.13,31.47-2,43.87,6.69,4,2.83,7.75,6,11.89,8.73,2.84,1.85,5,3.34,6.37,6.5,4.12,9.26,1.95,20.24,2.38,30,0.42,9.62,15.42,9.67,15,0-0.47-10.76,1.22-21.84-2.27-32.27-2.93-8.74-8-13.16-15.36-18.19-8.26-5.61-15.32-12-25.05-15.12-8.27-2.63-17.5-2.77-26.1-2.53a68.67,68.67,0,0,0-47.92,21.28c-5.88,6.06-10,13.23-10.42,21.78-0.52,10.87-.2,22,0.16,32.84,0.4,12,1.21,24.15,2.66,36.09a161.78,161.78,0,0,0,3.11,18.18c1.38,5.78,2.74,11.29,2.3,17.28-0.7,9.63,14.3,9.59,15,0h0Z"/>
  <path d="M474.46,148c0,0.21,0,.86-0.33.81s1.27-1.12.67-.68a18.84,18.84,0,0,1,4-2.16,65.87,65.87,0,0,1,13.46-3.43,104.63,104.63,0,0,1,21.15-1.45c2.48,0.1,6.86.57,7.6,2,1.47,2.78-1.77,8.85-3.17,11.58-2.53,4.94-5.2,7.1-10.89,7.81-6.91.86-13.37-2.46-20-3.69-9.44-1.74-13.48,12.72-4,14.46,7.63,1.4,14.82,4.75,22.73,4.33,6.66-.35,13.72-2.08,18.82-6.59,4.53-4,7.21-10.08,9.33-15.6s3.4-11.58,1.33-17.28c-4-10.94-16.82-12.33-26.87-12a135,135,0,0,0-25.27,3c-9.86,2.25-23.19,6.84-23.59,18.88-0.32,9.66,14.68,9.64,15,0h0Z"/>
  <path d="M498.73,174c-3.72,10.14-4.46,20.82-5.86,31.43-0.91,6.9-2.6,12.87-9.28,16.05-4.3,2-14,5.33-18.43,2.12-3.48-2.52-4.91-8.75-7-12.34-2.19-3.84-6.06-6.87-7-11.27-2-9.43-16.5-5.44-14.46,4,1.36,6.32,6,10.12,8.92,15.59,2.82,5.26,4.79,11,9.43,15.06,8.45,7.3,21.07,5.51,30.82,2,9.48-3.38,16.59-9.79,19.84-19.44,1.93-5.72,2.17-12.1,2.88-18.05A92.31,92.31,0,0,1,513.19,178c3.33-9.08-11.16-13-14.46-4h0Z"/>
  <path d="M392.46,208c1.48,22.24,9,43.66,10,66,0.45,9.61,15.45,9.67,15,0-0.51-10.91-2.34-21.92-4.28-32.66-2-11.11-5-22-5.72-33.34-0.64-9.58-15.64-9.65-15,0h0Z"/>
  <path d="M478.46,232v36c0,9.65,15,9.67,15,0V232c0-9.65-15-9.67-15,0h0Z"/>
  <path d="M335,524.5c-6.33.35-11.43,3.6-17.52,4.9s-12.13,1.81-18.15,2.91c-12.76,2.33-25.58,4.94-38.47,6.37-12.21,1.35-24.11,3.21-36.2,5.27-8.63,1.47-18.58,1.9-25,8.75-6.58,7.05,4,17.68,10.61,10.61,4.43-4.75,14.54-4.06,20.52-5.29,11.86-2.44,23.73-3.46,35.72-5s23.94-3.89,35.84-6.05c5.53-1,11.07-1.71,16.61-2.63a40.77,40.77,0,0,0,8.22-2.19c2.53-1,5-2.48,7.79-2.63,9.6-.53,9.66-15.53,0-15h0Z"/>
  <path d="M554.49,469.79a17.88,17.88,0,0,0,9.61,7.1c4.15,1.37,7.09,2.19,10.89,4.61a59.61,59.61,0,0,0,12.85,6.05c4.21,1.45,8.48,2.67,11.82,5.75,7.09,6.53,17.73-4.05,10.61-10.61-6.86-6.31-15.15-7.5-23.2-11.47-4-2-7.51-5-11.73-6.64a42.33,42.33,0,0,0-4.93-1.51,24,24,0,0,0-3-.85c-5.51-7.84-18.52-.35-13,7.57h0Z"/>
  <path d="M607.73,346c1.24,5.16,1.52,10.46,2.51,15.67a89.6,89.6,0,0,0,4.47,15.07c3.8,10,8.54,19.59,12.37,29.57a623.16,623.16,0,0,1,20.46,64.83c5.72,21.79,10.85,43.47,18.17,64.82,0.71,2.07,2.3,5,1.49,7.23-1.49,4-8,3.67-11.24,3.55-4.42-.17-8.71-0.59-13.12,0s-8.45,3.49-12.89,3.36c-5.83-.18-11.84-2.48-17.38-4.11s-11.23-3-16.78-4.75c-5-1.58-9.76-4.41-14.9-5.48-3.78-.79-9.63-0.31-12.62-3.09-7.06-6.57-17.69,4-10.61,10.61a23.76,23.76,0,0,0,13,6,57.88,57.88,0,0,1,13.77,3.79c10.68,4.39,22.48,7.34,33.69,10.08,5.13,1.25,10.93,2.6,16.21,1.7s9.24-3.6,14.71-3.5c10.53,0.2,20.7,1.3,28.56-7.3,7.57-8.28,4-17.78.82-27.08-4.09-12.06-7.71-24.23-10.67-36.62-5.78-24.22-12.24-48.3-20.36-71.85-4.41-12.8-9.52-25.22-14.9-37.63a128,128,0,0,1-6.88-19c-1.67-6.54-1.88-13.3-3.45-19.85-2.26-9.38-16.72-5.41-14.46,4h0Z"/>
  <path d="M250.46,334c-2.13,33.33-18.88,61.38-33.17,90.62-7.1,14.52-9.54,30.4-12.15,46.18-1.32,8-3.68,15.61-5.44,23.49-1.81,8.13-1.56,16-1.31,24.27,0.31,10.45-4.55,26.64,4.26,34.74,7.1,6.53,17.73-4.06,10.61-10.61-0.72-.66-0.21-0.52-0.06-0.05a12.42,12.42,0,0,1-.45-2.65,52.08,52.08,0,0,1,.07-7.84c0.29-5.18.71-10.2,0.51-15.39-0.3-8-.12-15.12,1.93-22.86,2-7.5,3.66-14.88,4.92-22.54,2.43-14.83,5-29.65,12.08-43,7.48-14.07,14.79-28.2,20.8-43,6.7-16.45,11.26-33.58,12.4-51.34,0.62-9.64-14.39-9.6-15,0h0Z"/>
  <path d="M579.46,566c-0.09,11.06,1.76,22.26,2.43,33.31,0.69,11.45,1.41,22.91,2.8,34.3,2.57,21,6.72,41.74,6.76,63,0.05,27.65,1.41,55.32,3,82.92,1.76,29.93,3.87,59.93,8.08,89.63,0.73,5.13,1.56,10.24,2.56,15.32,2.09,10.56,2.49,21.19,2.4,31.93-0.07,7.68.08,15.8,7.65,20,7.32,4.08,17.21,4.93,25.34,6.09,4.47,0.64,8.67,1.13,12.8,3.08a92.43,92.43,0,0,1,13.23,8.2A175.25,175.25,0,0,0,687,965.93c2.87,1.49,5.57,3,7.42,5.7a7.67,7.67,0,0,1,.59,1.59c-0.07-.16-0.19-1.55-0.05.17-0.06-.78-0.31,0-0.09-0.18-3.41,3.48-8.69,5.5-13.74,7.09-13,4.11-27.35,6.89-41,6.12-21.27-1.2-37.16-15.32-56.14-23.1a67.1,67.1,0,0,0-13.85-4.21c-2.49-.43-6.41.09-8.67-1.13-3.09-1.67-4.35-7.62-4.8-10.67-0.71-4.85-.34-9.89-0.23-14.77,0.51-22.47-4.75-44.42-5.95-66.78-1.09-20.42-1.35-40.9-2.3-61.33-0.46-10-.8-20-2-29.88-0.75-6.23-3.17-11.57-5-17.59-3.18-10.64-4.44-21.74-7.27-32.46s-6.73-21.12-10.17-31.66-5.69-21.48-8.8-32.17c-3-10.37-6.48-20.41-8.86-31a222.78,222.78,0,0,0-8.82-30.34c-2.75-7.25-6.34-20.24-15.94-20.61-9.32-.36-16.08,10.32-20.62,17-5.46,8.09-11.75,15.57-17,23.81a97.2,97.2,0,0,0-12.11,29.34c-5.25,21.39-4,43.18-4.37,65-0.22,11.69-1,23.3-1.8,35-0.3,4.59-.13,9.25-1.24,13.74a49.7,49.7,0,0,0-1.12,5.4c-3,22-2.42,44.73-3.55,66.93-0.26,5-.53,10.05-1,15.07-0.08.93-.18,1.86-0.27,2.79-0.06.61-.46,2.84,0,0.53a31.09,31.09,0,0,1-1.15,4.39c-6.78,20.52-11.14,43.12-11.65,64.75-0.11,4.69.11,9.36,0.11,14,0,5.37-1.63,10-3.06,15.12-0.85,3.08-.53,7.35-3,9.43s-7.43,2.51-10.58,3.12c-9.5,1.83-18.8,4.35-28.19,6.65-10.65,2.61-21.69,5.85-32.72,5.56a67,67,0,0,0-15.31,1.22,72.16,72.16,0,0,1-15.74,1A61,61,0,0,1,283,977c-3.42-.87-8.24-1.92-10.42-5-3.08-4.36.85-10.92,3.48-14.52,5.38-7.37,14-11.26,21-16.78,8-6.3,16.11-12.8,24.4-18.74,7.17-5.14,16.9-4.41,25-7.13,15.68-5.27,9.1-24,7.13-35.82-4.4-26.36-6.32-53.61-8.51-80.41-2.26-27.61-4.93-55.41-5.17-83.12-0.1-11.33.24-22.68,1.21-34,0.89-10.41.75-21.33,4.49-31.16,4-10.39,8.36-20.44,11.41-31.15,1.42-5,2.77-9.94,4.68-14.76,2-5,4.14-9.95,5.28-15.26a79.26,79.26,0,0,0,1-29.2c-1.64-10.21-5.33-19.52-5.49-30-0.15-9.64-15.16-9.67-15,0,0.18,11,3.38,20.92,5.59,31.57,2,9.79.85,20.88-2.45,30.26-1.59,4.54-3.68,8.9-5.19,13.47-1.89,5.69-3.24,11.55-5.08,17.26-3.4,10.57-9.51,20.71-11.67,31.62-1,4.83-1,9.7-1.34,14.59-0.4,5.83-1.2,11.63-1.61,17.47-0.82,11.64-1,23.31-.76,35,0.3,13.58,1.31,27.14,2.27,40.69,2.07,29,4.36,58,7.45,87,1.3,12.18,2.65,24.41,4.8,36.47,0.82,4.6,3.16,10.17,2.23,14.81-0.44,2.23-.48.92,0,0.58s-1.71.34-1.94,0.38c-2.07.4-4.14,0.63-6.18,1.13-4.65,1.14-9.48,2-13.93,3.76-4.68,1.88-8.39,5-12.23,8.2-4.22,3.51-8.83,6.52-13.2,9.83-8,6.08-17.24,11.36-24.58,18.24-10.56,9.9-19.05,28.17-7.54,40.58,6.7,7.23,17.9,9.43,27.27,10.4a120.48,120.48,0,0,0,14.63.4c5.82-.11,11.25-1.73,17-2.24,5-.45,10,0.37,15-0.18a169.83,169.83,0,0,0,17.68-3.29c10.79-2.38,21.4-5.51,32.18-7.9,7.46-1.65,15.7-2.17,22.22-6.59a17.87,17.87,0,0,0,7.53-11.09c1.07-4.66,2.3-9.22,3.51-13.85,2.65-10.16,1-21,1.57-31.34,0.58-10.84,2.62-21.63,4.82-32.25,2.62-12.66,7.31-24.42,8.29-37.34,0.91-11.95,1.31-23.94,1.8-35.91,0.48-11.73.86-23.47,1.7-35.19,0.13-1.82.3-3.64,0.46-5.46,0.13-1.49.26-1.68,0-.6,0.12-.59.18-1.18,0.34-1.76,2.67-10.09,2.56-21,3.22-31.38,1.44-22.72-.44-45.72,1.92-68.34a111.29,111.29,0,0,1,7.3-30.43c4-9.63,10.6-18.11,16.89-26.32,2.84-3.7,5.32-7.62,8-11.42a40.34,40.34,0,0,1,3.61-4.52,15.62,15.62,0,0,0,2.15-2.07q3.32-1.81-3.54-1.94l0.59,1c0.51,2,2.15,4.22,3,6.15,1,2.38,1.91,4.82,2.79,7.26,1.84,5.09,3.53,10.21,4.88,15.46,2.74,10.66,4.58,21.54,8.11,32,3.58,10.61,6.07,21.39,9.06,32.17,3,11,7.12,21.64,10.55,32.49s5.39,21.9,7.8,33c1.7,7.84,5.2,15.18,6.76,23,0.32,1.6-.14-1.63.08,0.63,0.08,0.79.17,1.58,0.24,2.37,0.22,2.33.4,4.66,0.56,7,1.66,23.92,2.23,47.91,3,71.87,0.47,13.9,2.13,27.6,3.9,41.39,1.45,11.22,2.63,22.46,2.41,33.79-0.19,9.79-.62,19.79,3.72,28.86,2,4.09,4.89,8.13,8.89,10.42,3.45,2,7.13,2,11,2.44,9.57,1,18.52,5.75,26.79,10.37,9.28,5.18,18.31,10.78,28.49,14a81.83,81.83,0,0,0,30.64,3.43c16.53-1.18,74.19-10,55.79-38.24-4.44-6.82-12-9.9-19-13.38-8.07-4-14.88-10.14-22.64-14.71a52.54,52.54,0,0,0-12.56-5.57c-5.16-1.41-10.71-1.64-16-2.61A96.31,96.31,0,0,1,624,923.92c-0.13,0-2-.78-1.22-0.41a0.77,0.77,0,1,0-.35-0.2c0.76,1.14.12-1.14,0.08-1.74-0.7-11,.07-21.9-1.48-32.93-0.9-6.4-2.35-12.72-3.33-19.11-2-13.16-3.33-26.43-4.52-39.68-2.86-31.89-4.68-63.9-5.85-95.89-0.45-12.43-.82-24.87-0.85-37.32,0-21.94-4.47-43.23-7-64.93-1.25-10.76-1.92-21.58-2.58-32.39-0.67-11-2.52-22.25-2.43-33.31,0.08-9.65-14.92-9.66-15,0h0Z"/>
  <path d="M524.2,498.22c6.55-4.12,12.47-9.49,18.74-14s13-9.37,19-14.42a26.71,26.71,0,0,0,6.57-8.2c1.6-3,3.73-5.43,5.54-8.26,3.9-6.11,4-13.79,3.34-20.81-1.25-14-7-26.9-20.57-32.64-5.61-2.38-11.52-3.44-17.44-4.76-6.6-1.47-12.6-4.49-18.18,1.38s-2.94,14.7.6,20.85c2.1,3.64,4.77,6.93,6.9,10.55,2.24,3.82,4.09,7.62,7.39,10.67,7.08,6.55,17.71-4,10.61-10.61-2.53-2.34-3.72-5.44-5.48-8.35-1.89-3.12-4.17-6-6-9.12-0.68-1.14-1.14-2.55-1.88-3.61L533,405.8q-0.23-2.62-3.9,1.95c0.87,1.43,6,1.76,7.62,2.1,11,2.39,21.2,4.16,24.52,16.47,1.35,5,2.79,12.85.82,17.8-1.05,2.64-3.55,4.85-5,7.24-1.88,3-2.84,5.48-5.68,7.79-5.37,4.36-11.08,8.55-16.7,12.59-6.06,4.35-11.73,9.57-18,13.53-8.15,5.13-.63,18.11,7.57,13h0Z"/>
  <path d="M528.72,384.44a29.59,29.59,0,0,1-4.53-8.25c-0.57-1.59-1.79-5.56-1-6.22,1.86-1.52,6.55,2,7.84,2.9a75.11,75.11,0,0,1,9.31,8.37,132,132,0,0,1,10.28,11.38c3.26,4.06,7.13,7.85,9.09,12.73,1.5,3.76,4.83,7.27,5.08,11.28,0.35,5.54.58,10,4.32,14.41,6.25,7.38,16.81-3.28,10.61-10.61,0.88,1,.16-1.76.12-2.49-0.06-1.3-.1-2.6-0.25-3.89a21,21,0,0,0-3.57-9.6c-1.62-2.53-2.45-5.21-3.76-7.88a45.35,45.35,0,0,0-6.26-8.71c-8.21-9.84-16.26-20.12-26.86-27.56-9.21-6.46-25.8-8.85-30.27,4.7-3.33,10.1,2.7,22.5,9.25,30,6.34,7.3,16.91-3.34,10.61-10.61h0Z"/>
  <path d="M531.39,348.53c2.6-4.7,10.46-4.79,14.59-2.12,6.63,4.3,9.09,14.77,12.52,21.42,2,3.8,4.24,7.28,5.72,11.32a109.58,109.58,0,0,1,3.87,13.56c2,9,7.74,17.78,7.83,27,0.1,9.65,15.1,9.67,15,0-0.07-6.44-1.92-12.15-4.33-18-2.24-5.47-3.47-11-4.92-16.66-3-11.73-8.84-21.64-13.84-32.51-4.44-9.66-10.42-19.47-21.54-22-10.25-2.33-22.48.75-27.84,10.43-4.68,8.45,8.27,16,13,7.57h0Z"/>
  <path d="M511.41,397.25c-14.07,1.55-21.73,12.41-30.31,22.37-4.44,5.15-8.72,9.83-11.32,16.24a31.77,31.77,0,0,0-1.14,21.4c4.3,13.6,18.16,20.73,31.07,24.5,7.74,2.26,15.21,2.5,23.19,2.51,6.37,0,13.11-.36,17.82-5.2,6.74-6.92-3.86-17.54-10.61-10.61-1.76,1.81-7.56.79-9.93,0.81a54.66,54.66,0,0,1-16.49-2c-7.94-2.31-18.89-6.61-21-15.49-2.29-9.58,4.68-16.36,10.26-23,4.52-5.41,10.69-15.65,18.48-16.51,4-.44,7.5-3.13,7.5-7.5,0-3.71-3.45-7.95-7.5-7.5h0Z"/>
  <path d="M349,463.5c-12.36,1.08-23.52-10.5-31.55-18.52-5.12-5.12-9.86-10.7-12.78-17.4-2.77-6.36-4.28-13.34-5.81-20.09-3.21-14.15-8.4-29.51-6.15-44.19,0.53-3.43,2-10,6.91-8.78,4.69,1.16,7.1,9.69,8.62,13.62,2.89,7.5,5.34,15.15,8.3,22.63,3.34,8.45,4.07,17.66,7.23,26.21,3.32,9,17.83,5.09,14.46-4-3.45-9.32-4.4-19.24-8.15-28.46-3.36-8.26-5.8-16.84-9.28-25.05-3.26-7.71-7.38-15.9-15.78-18.93a19.46,19.46,0,0,0-22.22,7.18c-10.07,14.17-4.81,36.08-1.22,51.48,4.12,17.69,7.18,35.2,19.05,49.6a120.49,120.49,0,0,0,21.82,20.31c7.58,5.54,16.9,10.21,26.54,9.36s9.63-15.84,0-15h0Z"/>
  <path d="M322.48,345c0.12-3.3.18-7.64,5.06-6.75-1.09-.2.43,0.41,0.75,0.8a25.06,25.06,0,0,1,1.9,2.51,57.32,57.32,0,0,1,4.87,9.37c5.6,13.33,6.4,27.8,6.42,42.07,0,9.65,15,9.67,15,0,0-20.68-2.12-43.2-14.43-60.64-5.78-8.19-14.3-11.18-23.69-7-8.46,3.75-10.58,11.06-10.88,19.67-0.34,9.65,14.66,9.64,15,0h0Z"/>
  <path d="M344.21,337a4.06,4.06,0,0,1-.75,1.14A2.56,2.56,0,0,1,344,338c0,0.22,0-.25,0-0.25,1,2.43,1,5,1.32,7.56,0.81,7.4,3.34,14.31,6.11,21.18,3,7.41,5.51,15.23,9,22.39,3,6.09,7.73,10.29,12.54,14.88s7,11.85,11.63,17,9.11,9.66,10.4,16.74a20.64,20.64,0,0,1-4.16,17c-3.19,4.18-7.27,9.58-11.64,12.55-5.82,3.95-12.74,4.3-19.45,4.52-6.22.2-13.19,1.43-17.57-3.89-2.59-3.15-7.91-2.64-10.61,0-3.13,3.06-2.56,7.5,0,10.61,5.69,6.92,14.34,8.59,22.89,8.46,8.3-.12,16.35-0.15,24.19-3.17,3.89-1.5,7.66-3,10.91-5.63,3-2.46,5.49-5.59,8.07-8.46,6.15-6.83,11.44-14,12.5-23.42a39.06,39.06,0,0,0-6.73-26.45,101.68,101.68,0,0,0-8.21-9.48c-3.2-3.54-4.66-8-7.36-11.92-4.71-6.74-11.9-10.64-15.17-18.48-4-9.71-8.41-19.72-11.3-29.85-2.36-8.3-.63-18.52-8.63-24.15S333,323.65,329.75,333c-3.14,9.15,11.35,13.08,14.46,4h0Z"/>
  <path d="M396.51,467.21c-6.86,13.44-10.5,28.22-16.15,42.15-2.63,6.49-7.34,9.62-12.27,14.3-2.41,2.29-4.59,4.74-7.51,6.37a52.34,52.34,0,0,0-8.9,5.66c-7.36,6.27,3.29,16.83,10.61,10.61,2.43-2.07,5.71-3,8.34-4.84,3.19-2.2,5.84-5.12,8.66-7.76,5.37-5,10.48-8.91,13.64-15.81,6.41-14,9.53-29.38,16.54-43.11,4.38-8.58-8.56-16.18-13-7.57h0Z"/>
  <path d="M376.48,361c0,1.17-1.28,2.14-1.61,3s-1.6-.1-0.13.21c1.13,0.23,1.57-.32,2.72-0.33a30.26,30.26,0,0,1,8.13,1c0.68,0.17,2,1,2.35.88,0.5-.21-0.57-0.2-0.74-1,0.13,0.66.55,1.41,0.7,2.13,0.8,4,0,8.43-.26,12.43a73.64,73.64,0,0,0,4.44,30.57c2.9,8.08,5.14,18,10.43,24.9,2.49,3.23,6.42,4.88,10.26,2.69,3.18-1.81,5.16-7.06,2.69-10.26-3.11-4-4.44-9.07-6.12-13.82-2.15-6.09-5.13-12.17-6.31-18.55-2.09-11.35,2.71-23.92-1.58-34.85-3.36-8.57-13.25-10.63-21.57-11.06-7.77-.4-18.76,2.22-18.4,12.07,0.36,9.62,15.36,9.67,15,0h0Z"/>
  <path d="M485,284.5c7.33-.08,14.88-1.35,22,0.73s14.59,1.87,22,1.43c7.19-.42,15.26-1.46,22.15,1.21,6.54,2.53,12.26,7,18.07,10.75,5.61,3.65,12.35,4.92,17.6,9.25,4.89,4,7.36,8.78,9.83,14.56,2.63,6.16,5.84,12.21,8.11,18.51,1.1,3,.74,6.28,1.53,9.45,0.89,3.55,2.48,6.27,4.2,9.4,4.66,8.46,17.62.9,13-7.57a19.65,19.65,0,0,1-3-9,31.6,31.6,0,0,0-2.72-9.84c-2.84-6.93-6-13.82-9.18-20.61a44.51,44.51,0,0,0-11.73-16,48.69,48.69,0,0,0-9.23-6.08c-3.53-1.88-7.48-2.78-10.84-5-6.26-4.08-12.31-8.32-19.25-11.28-7.55-3.23-15.86-3.39-23.94-3-8.31.41-16,1.09-24.08-1.07s-16.4-.92-24.55-0.82c-9.65.11-9.67,15.11,0,15h0Z"/>
  <path d="M260.21,348c0.19-1.1.24-3.92,0.71-4.71a16.77,16.77,0,0,1,2.41-2,32.81,32.81,0,0,0,6.66-8.13c3.17-5.28,5.57-11.25,8.41-16.73a15.78,15.78,0,0,0,2-5q0.82-2.38-1.88,2.06a17.79,17.79,0,0,0,1.54-1c2.86-1.72,5.18-4.25,7.54-6.56,4.71-4.63,10.82-6.15,16.92-8.38,6.84-2.5,14-5.06,21.05-7,3.35-.91,6.52-0.8,10-1.06,4.17-.32,8.3-1,12.48-1.25,16.32-1,32.67.17,49,.21,9.65,0,9.67-15,0-15-17.9-.05-35.92-1.6-53.78.15-8.42.82-16.89,0.84-25,3.52-7.62,2.52-15.28,5.05-22.78,7.9-7.16,2.72-12.88,4.79-18.46,10.27a52.19,52.19,0,0,1-6.63,5.56c-2.85,2-3.31,4-4.6,7.08s-3.25,5.91-4.64,9c-1.5,3.35-2.79,6.88-4.91,9.91-1.87,2.67-4.66,4.12-6.74,6.53-2.56,3-3.07,6.84-3.71,10.58-1.62,9.44,12.83,13.5,14.46,4h0Z"/>
  <path d="M386.48,247q-0.24,3.86,2.81-1.29a14.72,14.72,0,0,1-2.25.52c-0.84.13-1.9,0.18-2.69,0.22-3.92.21-7.79-.22-11.71,0.23-4.08.46-8.05,1.35-12.08,2.12a30.85,30.85,0,0,1-5.51.78,9.86,9.86,0,0,1-3.64-.36q-3-1.21.88,2.19v4c-0.71,3.22-1.89,1.41-.25,1.16a9.3,9.3,0,0,0,1.78-.86,19.34,19.34,0,0,0,4.42-3.25,21.94,21.94,0,0,0,5.53-11.9c0.29-1.7.19-4.14,1-5.7,0.64-1.26,1.5-1.4,2.79-2.3A16.73,16.73,0,0,0,374.31,221c0.65-4.45.21-8.93,0.17-13.41,0-5.32-.09-10.62-0.57-15.93-0.43-4.76-.1-9.5-0.49-14.24-0.47-5.79-1.09-11.39-1.1-17.21,0-10.8.1-21.59,0-32.4,0-4.55,0-8.59,1.22-13,1.37-4.81,1.47-9.75,2.36-14.64,1.43-7.86,4-13.22,10.89-17.32a159.29,159.29,0,0,1,26.58-12.73c5.36-1.94,10.35-2.06,16-1.83s11.08,0,16.58.61c5.22,0.56,8.29,2.28,12.67,4.9,3.63,2.17,8.2,3.26,11.06,6.49,6.43,7.23,17-3.41,10.61-10.61-3.74-4.21-8.83-5.76-13.55-8.51-6.11-3.56-10.92-6-18.08-6.95-6.69-.86-13.45-0.73-20.18-1-6.89-.25-13.42.25-19.92,2.72s-12.74,5.26-18.88,8.28-12.9,6.13-17.9,10.74c-8.69,8-10,19.72-11.58,30.69-0.4,2.82-1.37,5.37-2,8.12a47.43,47.43,0,0,0-.86,11c0,7.85.21,15.7,0.12,23.56-0.08,7.14-.45,14.39.12,21.52s0.73,14.5,1.36,21.73c0.59,6.7.46,13.41,0.66,20.12,0.06,2.05.83,5.64-.14,7.61-1.22,2.48-5,3.45-6.72,6-3.14,4.73-1.83,10.43-4.29,15.17-2,3.76-7.42,4.09-9.63,8.23-3.81,7.16,2,13.09,8.66,14.89,8,2.17,15.92-.44,23.83-1.76,11.12-1.86,31.63,3,30.22-14.93-0.76-9.56-15.76-9.64-15,0h0Z"/>
  <path d="M492,259.5c3.29,0.37,6.39,2.51,9.6,3.28a45.89,45.89,0,0,0,10.13.78c7.3,0.09,15.3-2.75,15.32-11.46,0-7.65-6.65-10.91-11.42-15.55-2.27-2.2-4.41-4.52-4.91-7.71-0.64-4.06,0-7.81-1.47-11.82-3.26-9-17.76-5.12-14.46,4,1.94,5.36.37,11.14,2.92,16.48a36.3,36.3,0,0,0,9.59,11.7c1.06,0.87,3.73,3.88,5,4.15q3.7-5,.31-4.72l-1.74-.07c-1.34,0-2.75.11-4.09-.05-5.09-.62-9.58-3.39-14.78-4-4-.46-7.5,3.77-7.5,7.5,0,4.43,3.46,7,7.5,7.5h0Z"/>
  <path d="M333.75,958c1.09-3.29,3.46-3-.16-2.23-1.16.24-2.31,0.43-3.45,0.75-3.44.94-7.09,1.36-10.47,2.49-7.36,2.47-12.73,8.44-16.16,15.21-4.36,8.59,8.58,16.19,13,7.57,1.55-3,3.35-6.19,6.46-7.89s7.07-1.67,10.43-2.64c6.16-1.78,12.52-2.18,14.87-9.26,3.05-9.18-11.43-13.12-14.46-4h0Z"/>
  <path d="M310,947.77c-6,.83-12.18,1.46-17.92,3.37a20,20,0,0,0-7.39,4.1c-2.19,2-3.58,4.35-6.27,5.77-4.86,2.56-9.39,5.87-9,12,0.33,5.68,4.92,7.64,8.3,11.31,6.55,7.12,17.14-3.51,10.61-10.61-1.46-1.59-4.13-2.74-4.93-4.49l1,3.79q-2.47,3.51.24,1.6L286,974a21.35,21.35,0,0,0,4.08-2.63c2.07-1.73,3.45-4.53,5.86-5.72,2.12-1.05,5.25-1.19,7.55-1.68,3.46-.73,7-1.2,10.5-1.69,4-.56,6.23-5.69,5.24-9.23-1.21-4.32-5.18-5.8-9.23-5.24h0Z"/>
  <path d="M629,977.5a95.66,95.66,0,0,1,12.53.85c1.61,0.18,3.68-.2,5.18.27,1.22,0.39,2.57,1.78,3.55,2.57a28.81,28.81,0,0,1,6.56,7.25,29.24,29.24,0,0,1,1.78,3.05,3.19,3.19,0,0,1,.51,1.06q0.8,3.72,1.6-3.85c-7,6.64,3.58,17.23,10.61,10.61,7.82-7.38-2-20.66-7.63-26.24-4.15-4.13-9.71-8.84-15.73-9.43A166.2,166.2,0,0,0,629,962.5c-9.64.14-9.67,15.14,0,15h0Z"/>
  <path d="M649.77,972.48c5.77-2.82,13-4.11,19-1,2.09,1.09,3,2.87,4.42,4.83a38.75,38.75,0,0,0,7.47,8c3.17,2.57,7.49,3,10.61,0,2.66-2.6,3.14-8.07,0-10.61-3.62-2.93-5.84-6.2-8.67-9.84-3-3.84-6.49-5.79-11.1-7.2-10.33-3.16-19.72-1.84-29.33,2.87-8.67,4.24-1.07,17.19,7.57,13h0Z"/>
  <path d="M514.75,502c1.17,5.79,4.85,10.13,8.48,14.6a74.66,74.66,0,0,0,11.55,12.09c4.56,3.6,9.48,5.88,14.85,8S560,542.2,566,542.5c9.65,0.49,9.62-14.52,0-15-3.32-.17-7.73-3.39-10.84-4.64-3.89-1.56-7.7-3.17-11-5.79a57.07,57.07,0,0,1-8.87-9.32c-2.44-3-5.25-5.84-6-9.75-1.91-9.45-16.37-5.45-14.46,4h0Z"/>
</svg>
