<svg xmlns="http://www.w3.org/2000/svg" viewBox="0 0 17.38 11.53"><defs><style>.cls-1{fill:none;stroke:#fff;stroke-miterlimit:10;}</style></defs><g id="Calque_2" data-name="Calque 2"><g id="everything"><path class="cls-1" d="M.34,4.09a7.58,7.58,0,0,1,3-1.62c1.07-.38,2.36-1.19,3.52-1.14.1,1.53-1.11,3.07-1.6,4.49A11.33,11.33,0,0,1,3.34,9.59"/><path class="cls-1" d="M11.34,2.59c0-1.34,1.88-2.16,3-2.08,1.52.1,1.85,1.6,2,3a3.52,3.52,0,0,1-.53,2.91c-.65.69-3.56,1.44-3.48-.33,1.27-1.27,6.71,2.75,3.57,4-1.15.45-2.87.34-4.12.68s-2,.61-3-.63"/></g></g></svg>