<svg xmlns="http://www.w3.org/2000/svg" viewBox="0 0 17.91 13.54"><defs><style>.cls-1{fill:none;stroke:#f00;stroke-miterlimit:10;}</style></defs><g id="Calque_2" data-name="Calque 2"><g id="everything"><path class="cls-1" d="M.41,4C1,3.12,2.29,2.85,3.16,2.32,3.86,1.9,5.24.56,6,.51c1.61,1.07-.77,4-1.07,5.22s-.3,2.35-.54,3.51a6.4,6.4,0,0,0-.44,2.27"/><path class="cls-1" d="M17.41,5c-.17-1-4.69-3.12-5.48-2.42-.58.51-.49,1.19-.54,1.9C11.33,5.37,11.06,6.2,11,7c-.21,2,1.74,1.88,3.28,2a2.6,2.6,0,0,1-1.2,3.63A9.15,9.15,0,0,1,9.41,13"/></g></g></svg>
