<svg xmlns="http://www.w3.org/2000/svg" viewBox="0 0 16.02 11.14"><defs><style>.cls-1{fill:none;stroke:#fff;stroke-miterlimit:10;}</style></defs><g id="Calque_2" data-name="Calque 2"><g id="everything"><path class="cls-1" d="M0,4.53c1.62,0,2.61.19,3.48-1.42C4,2.26,4.29.38,5.57.51c.7.83,0,3.7-.3,4.73A10.37,10.37,0,0,0,4.51,9"/><path class="cls-1" d="M16,1.53A6.88,6.88,0,0,0,13,2c-.84.33-2.21.17-2.94.66C8.92,3.45,9.14,5,8.89,6.18a5.77,5.77,0,0,0-.39,2.4c.34,2.09,3.33,3,4,.7C12.88,7.83,11.73,5.62,10,6"/></g></g></svg>