<svg xmlns="http://www.w3.org/2000/svg" viewBox="0 0 20.03 10.46"><defs><style>.cls-1{fill:none;stroke:#f00;stroke-miterlimit:10;}</style></defs><g id="Calque_2" data-name="Calque 2"><g id="everything"><path class="cls-1" d="M0,4.88a5.83,5.83,0,0,0,2,0C2.76,4.52,3.13,3.12,3.5,2.5s1.08-2,1.91-2C6.5.51,6.59,1.88,6.49,2.64c-.18,1.4-1,2.29-1,3.73s-.7,2.69-.5,4"/><path class="cls-1" d="M10,1.38h4.5c1.3,0,4-.21,4.91,1-.5.71-2,.58-2.79,1A10.37,10.37,0,0,0,14.5,4.88C13,6.14,11.13,7.2,11,9.38"/></g></g></svg>
