<svg xmlns="http://www.w3.org/2000/svg" viewBox="0 0 16.08 15.35"><defs><style>.cls-1{fill:none;stroke:#f00;stroke-miterlimit:10;}</style></defs><g id="Calque_2" data-name="Calque 2"><g id="everything"><path class="cls-1" d="M0,7.31c2.26,0,3.05-3.13,5-3.49,1,.82.55,3.83.49,5-.09,1.56-1.23,2.91-1,4.48"/><path class="cls-1" d="M14,14.81a3.6,3.6,0,0,1-4-4,6.11,6.11,0,0,1,1.23-3c1.11-1.28,2.9-1,4.22-1.61C14.69,4.69,11.82-1,9.18.87c-2,1.44.83,4.09,1.94,5,.86.68,2.13.94,2.92,1.57,1.1.87,1,2.19,1,3.46,0,1.46,0,1.68-1.38,2.36a4.56,4.56,0,0,1-2.64.6"/></g></g></svg>
