<svg id="everything" xmlns="http://www.w3.org/2000/svg" viewBox="0 0 25 25">
  <defs>
    <style>
      .cls-1 {
        fill: none;
        stroke: red;
        stroke-miterlimit: 10;
      }
    </style>
  </defs>
  <title>n</title>
  <g>
    <path class="cls-1" d="M7.69,8A2.28,2.28,0,0,1,7.4,6.17a3.64,3.64,0,0,1,3.24,0,2.38,2.38,0,0,1,1.09,2.87c-0.43,1-1.53,1.41-2.42,2a13,13,0,0,0-3.63,4.36,0.75,0.75,0,0,0-.14.75,0.73,0.73,0,0,0,.52.25,18.81,18.81,0,0,0,4.6.21"/>
    <path class="cls-1" d="M17.91,7.11A1.4,1.4,0,0,0,16,7.56a4.05,4.05,0,0,0-.55,2.07l-0.4,5a1.14,1.14,0,0,0,.07.63,1.15,1.15,0,0,0,.73.45l2,0.61a1.15,1.15,0,0,0,.87,0,1.12,1.12,0,0,0,.44-0.71,23.22,23.22,0,0,0,.93-5.41,3.5,3.5,0,0,0-.84-2.94,3.77,3.77,0,0,0-2.94-.43"/>
  </g>
</svg>
