<svg id="everything" xmlns="http://www.w3.org/2000/svg" viewBox="0 0 25 25">
  <defs>
    <style>
      .cls-1 {
        fill: none;
        stroke: #fff;
        stroke-miterlimit: 10;
      }
    </style>
  </defs>
  <title>d</title>
  <g>
    <path class="cls-1" d="M4.19,9.13a5.77,5.77,0,0,1,4.4-.69c0.54,2.16-.75,4.32-2,6.17L4.21,18.19a29.12,29.12,0,0,0,6.81,0"/>
    <path class="cls-1" d="M11.89,9.62c0.6-1.27,2.33-1.38,3.73-1.31a1.61,1.61,0,0,1,1.26.45,1.29,1.29,0,0,1-.71,1.72,11.85,11.85,0,0,0-1.93.85,4.75,4.75,0,0,1,3.22-.93A3.2,3.2,0,0,1,19.71,13a9.4,9.4,0,0,1-.19,3.59,4.94,4.94,0,0,1-4.73-1"/>
  </g>
</svg>
