<svg id="everything" xmlns="http://www.w3.org/2000/svg" viewBox="0 0 25 25">
  <defs>
    <style>
      .cls-1 {
        fill: none;
        stroke: #fff;
        stroke-miterlimit: 10;
      }
    </style>
  </defs>
  <title>d</title>
  <path class="cls-1" d="M6,8.7A4.61,4.61,0,0,0,7.78,6.27l2.53,1.12c0.79,4.08-5.43,7-4.62,11.11A5.33,5.33,0,0,0,10,17.68"/>
  <path class="cls-1" d="M19.19,4.26a33.18,33.18,0,0,0-4,6.51,3.74,3.74,0,0,1-1.22,1.71C13.24,12.91,12,13.23,12.3,14a35.56,35.56,0,0,0,9-1.3"/>
  <path class="cls-1" d="M20.6,8.38a6.8,6.8,0,0,0-2.84,4.18,20.2,20.2,0,0,0-.43,5.15"/>
</svg>
