<svg id="everything" xmlns="http://www.w3.org/2000/svg" viewBox="0 0 25 25">
  <defs>
    <style>
      .cls-1 {
        fill: none;
        stroke: red;
        stroke-miterlimit: 10;
      }
    </style>
  </defs>
  <title>n</title>
  <g>
    <path class="cls-1" d="M3.59,7.94A3.4,3.4,0,0,1,9,8.25a2,2,0,0,1,.27,1.51A2.72,2.72,0,0,1,8.39,11,21.08,21.08,0,0,1,3.34,14.4,51.75,51.75,0,0,0,10,16.28"/>
    <path class="cls-1" d="M20,5.35a25.52,25.52,0,0,0-5.05.18,1.2,1.2,0,0,0-.8.33,1.23,1.23,0,0,0-.14.93l0.4,3.46,2.38-.59c1.37-.34,2.92-0.65,4.11.11A3.14,3.14,0,0,1,21.57,14a4.52,4.52,0,0,1-4.27,1.7A8.33,8.33,0,0,1,13,13.64"/>
  </g>
</svg>
