<svg id="everything" xmlns="http://www.w3.org/2000/svg" viewBox="0 0 25 25">
  <defs>
    <style>
      .cls-1 {
        fill: none;
        stroke: #fff;
        stroke-miterlimit: 10;
      }
    </style>
  </defs>
  <title>d</title>
  <path class="cls-1" d="M4.4,9.32a2.48,2.48,0,0,1,3-2.42,3.36,3.36,0,0,1,2.35,3.43,5.29,5.29,0,0,1-2.19,3.78A13.14,13.14,0,0,1,3.51,16a32.72,32.72,0,0,0,7.49.25"/>
  <path class="cls-1" d="M19.27,5.22c-3.13.64-5.19,3.76-5.87,6.87a5.76,5.76,0,0,0,0,2.89,2.65,2.65,0,0,0,2,1.91,3.59,3.59,0,0,0,2.59-1,4.62,4.62,0,0,0,1.23-1.3c1-1.8-.59-4.36-2.67-4.49A4.14,4.14,0,0,0,12.46,14"/>
</svg>
