<svg id="everything" xmlns="http://www.w3.org/2000/svg" viewBox="0 0 25 25">
  <defs>
    <style>
      .cls-1 {
        fill: none;
        stroke: red;
        stroke-miterlimit: 10;
      }
    </style>
  </defs>
  <title>n</title>
  <g>
    <path class="cls-1" d="M5.58,8.56a4.59,4.59,0,0,1,2.5-1.19A2.41,2.41,0,0,1,10,8.23c1.2,1.46.28,3.72-1.07,5s-3.12,2.31-4,4a21.84,21.84,0,0,0,7.37,1.06"/>
    <path class="cls-1" d="M16.3,8.15a7.65,7.65,0,0,1,5.75,1,37.61,37.61,0,0,1-3.82,3.59C17,14,15.92,15.64,16.14,17.38"/>
    <path class="cls-1" d="M15.85,10.76a9.09,9.09,0,0,0,4.53,3.81"/>
  </g>
</svg>
