<svg id="everything" xmlns="http://www.w3.org/2000/svg" viewBox="0 0 25 25">
  <defs>
    <style>
      .cls-1 {
        fill: none;
        stroke: red;
        stroke-miterlimit: 10;
      }
    </style>
  </defs>
  <title>n</title>
  <g>
    <path class="cls-1" d="M6.68,9l0-2.76a1,1,0,0,1,.18-0.72,1,1,0,0,1,.69-0.2A5.17,5.17,0,0,1,11,6.06a3.51,3.51,0,0,1,.53,4.23,10,10,0,0,1-3.21,3.24,10.78,10.78,0,0,0-3.27,3.19L11,16.65"/>
    <path class="cls-1" d="M15.43,17.72a4,4,0,0,0-.13-3.47,2.78,2.78,0,0,1-.55-1.41c0.06-.88,1.16-1.28,2-1.24a4.62,4.62,0,0,0,2.6-.19c1.13-.68.93-2.55-0.11-3.37a4.67,4.67,0,0,0-3.8-.57,2.34,2.34,0,0,0,.89,3.69c0.59,0.19,1.25.12,1.84,0.33,1.73,0.6,1.88,2.95,1.72,4.77a15.13,15.13,0,0,0-3.28.64,3.54,3.54,0,0,1-3.17-.57,2.45,2.45,0,0,1,0-3.34,3,3,0,0,1,3.43-.5"/>
  </g>
</svg>
