<svg id="everything" xmlns="http://www.w3.org/2000/svg" viewBox="0 0 25 25">
  <defs>
    <style>
      .cls-1 {
        fill: none;
        stroke: red;
        stroke-miterlimit: 10;
      }
    </style>
  </defs>
  <title>n</title>
  <g>
    <path class="cls-1" d="M6.44,13A4,4,0,0,1,6.8,9a2.5,2.5,0,0,1,3.63-.31c1.08,1.21.36,3.11-.47,4.5a7.37,7.37,0,0,1-2.88,3.05,1.3,1.3,0,0,0-.72.54c-0.28.63,0.65,1.08,1.34,1.14a32.81,32.81,0,0,0,4,.06"/>
    <path class="cls-1" d="M19.32,12.92a6.81,6.81,0,0,1-4.45-.45,1.79,1.79,0,0,1-1.26-1.67C13.77,9.89,15,9.67,15.9,9.67h1.55a1.11,1.11,0,0,1,.81.21,1.06,1.06,0,0,1,.19.85,11.39,11.39,0,0,1-3.14,6.94"/>
  </g>
</svg>
