<svg id="everything" xmlns="http://www.w3.org/2000/svg" viewBox="0 0 25 25">
  <defs>
    <style>
      .cls-1 {
        fill: none;
        stroke: red;
        stroke-miterlimit: 10;
      }
    </style>
  </defs>
  <title>n</title>
  <g>
    <path class="cls-1" d="M5.67,9c1.25,0.24,2.5-1.55,3.57-.84a1.81,1.81,0,0,1,.62,1.14,6.1,6.1,0,0,1,0,3.8,2.64,2.64,0,0,1-3.1,1.64c-0.09.34-.45-0.27-0.21-0.53a2.4,2.4,0,0,1,3.89,1A3.13,3.13,0,0,1,8.77,18.4a9.16,9.16,0,0,1-3.76,1"/>
    <path class="cls-1" d="M14.53,9.23A5,5,0,0,0,14,10.29a7.33,7.33,0,0,0-.84,4.3c0.32,1.45,2,2.68,3.3,2a18.3,18.3,0,0,0,1.18-8.2A2.23,2.23,0,0,0,15.21,9a6.55,6.55,0,0,0-1.28,2.3"/>
  </g>
</svg>
