<svg id="everything" xmlns="http://www.w3.org/2000/svg" viewBox="0 0 25 25">
  <defs>
    <style>
      .cls-1 {
        fill: none;
        stroke: red;
        stroke-miterlimit: 10;
      }
    </style>
  </defs>
  <title>n</title>
  <g>
    <path class="cls-1" d="M4.67,10c1.52,0.34,3.18-1.11,4.56-.39a2.1,2.1,0,0,1,.3,3.17,3.71,3.71,0,0,1-3.42.84C7.07,14,8,12.78,9,12.93a1.67,1.67,0,0,1,1.22,1.54,3.67,3.67,0,0,1-2.09,3.42A8.83,8.83,0,0,1,4,18.67"/>
    <path class="cls-1" d="M13.68,12.07A6.84,6.84,0,0,1,17.1,7.63L16.23,18"/>
  </g>
</svg>
