<svg id="everything" xmlns="http://www.w3.org/2000/svg" viewBox="0 0 25 25">
  <defs>
    <style>
      .cls-1 {
        fill: none;
        stroke: red;
        stroke-miterlimit: 10;
      }
    </style>
  </defs>
  <title>n</title>
  <g>
    <path class="cls-1" d="M5.2,11.44a5.32,5.32,0,0,1,4.87-2.5,1.17,1.17,0,0,1,.85.34,1.13,1.13,0,0,1,.19.58A4.51,4.51,0,0,1,6,14.56a12.08,12.08,0,0,1,4.5-1.19c0.91,1,.06,2.58-1.06,3.29s-2.52,1-3.32,2.09"/>
    <path class="cls-1" d="M13.69,10.38a7.51,7.51,0,0,1,4.17-.63A4,4,0,0,1,17,14.15a10.66,10.66,0,0,1-4,2.47,6.11,6.11,0,0,0,4.63.63"/>
  </g>
</svg>
