<svg id="everything" xmlns="http://www.w3.org/2000/svg" viewBox="0 0 25 25">
  <defs>
    <style>
      .cls-1 {
        fill: none;
        stroke: #fff;
        stroke-miterlimit: 10;
      }
    </style>
  </defs>
  <title>d</title>
  <g>
    <path class="cls-1" d="M3.42,10.4A6.48,6.48,0,0,1,9.09,8a6.7,6.7,0,0,1-3.66,4.51C5,10.82,6.94,9.41,8.69,9.21a3,3,0,0,1,2.9,1c0.94,1.37-.27,3.23-1.66,4.14s-3.12,1.56-3.84,3.06"/>
    <path class="cls-1" d="M14.8,8a2.23,2.23,0,0,1,1.92-1.71,6.55,6.55,0,0,1,2.71.31A7.12,7.12,0,0,1,15.81,9h4.1a1.12,1.12,0,0,1,.78.2,1,1,0,0,1,.2.88,5.26,5.26,0,0,1-5.23,4.47"/>
  </g>
</svg>
