<svg id="everything" xmlns="http://www.w3.org/2000/svg" viewBox="0 0 25 25">
  <defs>
    <style>
      .cls-1 {
        fill: none;
        stroke: #fff;
        stroke-miterlimit: 10;
      }
    </style>
  </defs>
  <title>d</title>
  <g>
    <path class="cls-1" d="M4.52,9.9a3.31,3.31,0,0,1,3.93-1c0.89,0.76.21,2.28-.77,2.91s-2.23.89-3,1.76a6.74,6.74,0,0,1,2.43-1.73,2.31,2.31,0,0,1,2.68.77c0.72,1.2-.26,2.7-1.32,3.62A10.18,10.18,0,0,1,4,18.6"/>
    <path class="cls-1" d="M16.41,6.38a26.18,26.18,0,0,0-3.24,8,19.82,19.82,0,0,0,9.09-2.88"/>
    <path class="cls-1" d="M18.65,10c0-.35-0.55,0-0.59.38A60.73,60.73,0,0,0,17.77,19"/>
  </g>
</svg>
