<svg id="everything" xmlns="http://www.w3.org/2000/svg" viewBox="0 0 25 25">
  <defs>
    <style>
      .cls-1 {
        fill: none;
        stroke: red;
        stroke-miterlimit: 10;
      }
    </style>
  </defs>
  <title>n</title>
  <g>
    <path class="cls-1" d="M1.53,10.58A6.14,6.14,0,0,1,8,8.2a6.16,6.16,0,0,1-3.25,3.59A6.81,6.81,0,0,1,10.58,10,6.28,6.28,0,0,1,5,16.62"/>
    <path class="cls-1" d="M21,6.3a10.71,10.71,0,0,0-4.86-.12,4.09,4.09,0,0,0-2.47,1.3A1.88,1.88,0,0,0,13.83,10l5.63-.58c0.77-.08,1.93.36,1.57,1a1.1,1.1,0,0,1-.72.44l-5.66,1.62"/>
  </g>
</svg>
