<svg id="everything" xmlns="http://www.w3.org/2000/svg" viewBox="0 0 25 25">
  <defs>
    <style>
      .cls-1 {
        fill: none;
        stroke: #fff;
        stroke-miterlimit: 10;
      }
    </style>
  </defs>
  <title>d</title>
  <g>
    <path class="cls-1" d="M4,9.23c-0.37.11-.17-0.57,0.18-0.72A25.73,25.73,0,0,1,9,7L9,10.58A12.45,12.45,0,0,0,6.12,12c1.07-.87,2.54-1.79,3.74-1.08,1.45,0.86.81,3.24-.57,4.19S6.12,16.19,4.64,17L7,16.37"/>
    <path class="cls-1" d="M16.33,5.67c-2.95,2.18-3.7,6.32-3.29,10a0.87,0.87,0,0,0,.22.59,0.89,0.89,0,0,0,.61.14l4.44-.06a2.41,2.41,0,0,0,1.51-.36,2.35,2.35,0,0,0,.55-2c-0.1-1.51-.73-3.41-2.24-3.44A3.27,3.27,0,0,0,16,11.58l-2,1.83c-0.77.7-1.54,2-.72,2.63"/>
  </g>
</svg>
