<svg xmlns="http://www.w3.org/2000/svg" viewBox="0 0 457.99 308.72"><defs><style>.cls-1{fill:#e0edb9;}</style></defs><g id="Calque_2" data-name="Calque 2"><g id="everything"><path class="cls-1" d="M94.43,32.37c21.53-4,22.76-9.46,22.76-9.46,3.2-1.48-4.22-1.53-7.46-2.25-3.51-.78-5.76-1.77-8.84-2.56-2.72-.7-5.79-1.34-5.87-2.36,0-.5.24-1,.11-1.52s-.94-.66-1.57-1-.8-.6-.82-1c0-.66-.59-1,1.21-1.75a34.44,34.44,0,0,1,8.24-1.59c4.65-.51,7.35-.7,10.26-.19a5.07,5.07,0,0,1,3.53,1.9c.67.62,1.65,1.23,2.28,1.89.41.44,1.46.81,1.76,1.27s-.3.89-.25,1.33.84.72.76,1.11-1.31,1-1.58,1.48c-.52.93-.92,1.87-1.49,2.86-.84,1.43-2.34,2.93-2.07,4.42.07.4,1.22.7,1.35,1.13.21.64-.52,1.42-.85,2.12-.71,1.53-2.77,2.93-5.27,4.62-1.48,1-4.41,2.44-5,3.49-.41.82.86,1.18,3.11,1.45,3.11.37,6.44.9,10.18,1,7.76.17,14.27-1.06,21.92-2,7.49-.94,13.85-1.44,20.65-2.73,3.35-.64,6.25-1.35,9.1-2.1,3.05-.8,6.4-1.34,9.58-2,2-.42,3.63-.92,5.6-1.31a34.28,34.28,0,0,0,4.58-.88,5.07,5.07,0,0,1,2-.64c1.72.56,1.34,1.78,1.29,2.54a11.84,11.84,0,0,0,.15,4c.22.89-.16,2.47,1.56,3.24S202,37.83,205,38c7.39.45,15.74.23,20.7-1.54,5.22-1.86,6.78-3.62,8.21-5.72-.89.72,5.16,1.92,6.79,2.24,5.06,1,11.41,1.79,17.27,2.5a235.56,235.56,0,0,0,26,1.63c8.1,0,16.64.28,24.13-.21,8.83-.58,14.21-2.27,19.64-3.81,5-1.42,9.48-2.88,13.91-4.24a28.06,28.06,0,0,1,6.18-1.42c3.94-.2,10.52,1.53,14,2.37,8.07,2,16.33,3.33,26.15,4.85,3.45.53,7,.87,10.43,1.14,4.64.35,9.2.83,13.78,1.11,9.49.58,18.32.25,26.74.28,4,0,8.88.21,11.59-.18a14,14,0,0,0,6.55-2.34c2.1-1.34.29-2.74-1.7-4.49-.82-.72-.59-1.33-2.65-2.14a89.21,89.21,0,0,0-9.24-2.75c-5.43-1.36-11.52-2.56-16.34-3.8-5.65-1.46-14.05-2.54-21-3.29-5.76-.63-10.33-1.26-15.7-2-3.25-.46-6.14-1.05-9.35-1.45-3.51-.43-5.44-.79-8.65-1.31s-6.39-.94-9.38-1.42c-4.52-.74-7.54-1.76-8.9-2.62-1.82-1.15,8-.74,12.68-.33,7.15.62,11,1.93,16.86,3,3.12.58,7.22,1.15,10.92,1.54,1.86.2,6.06.66,7.61.63.48-.42-1.89-1-3.69-1.42-1.48-.39-2.33-.73-3.59-1.1-2.75-.81-6.84-1.58-10.25-2.29A95.34,95.34,0,0,0,374,7.65c-3.38-.38-6.51-.62-9.84-.92a189.75,189.75,0,0,0-20.29-.87,34.83,34.83,0,0,0-3.69.32c-1.29.15-2.94.19-4.25.34a35.1,35.1,0,0,0-5.67,1.09c-1.26.41-1,1.12-1.13,1.66s0,1.12,2.94,1.69c3.92.77,8.3,1.33,11.75,2.27,1.5.41,2.53.82,4.28,1.22,1.2.28,2.65.52,3.87.81,6.88,1.61,12,3.35,17.87,5.27a54.67,54.67,0,0,1,6.68,2.61c1.38.65,6.63,2.48,5.44,2.81a202.47,202.47,0,0,1-28.78-4c-3.74-.78-6.35-1.62-9.69-2.4-3.95-.93-8.47-1.74-11.86-2.67-5.11-1.39-11.38-2.53-15.35-3.91l-9.46-4.12a45.59,45.59,0,0,0-8.76-1.62A63.56,63.56,0,0,0,290.36,7c-6.05.32-6.54,1.81-11.54,2.47a63.78,63.78,0,0,1-7.36.19c-1.9,0-5.26.12-7.09-.08-2.91-.33-2.71-1.45-3-1.87-.52-.86-1.06-1.69-1.57-2.49l-1.88-3c-.29-.45.47-.79.64-1.2S257.45.51,255.22.3a72.08,72.08,0,0,0-9-.26c-1.79.06-3.62.23-5.34.34-1.44.09-3,.18-4.23.34-2.53.32-4.72.73-7.33,1.06-1.86.23-4.27.63-4.65,1.08s3,.69,4.93.87c1.25.11,2.43.26,3.72.36s2.65.09,3.63.27c1.93.33,1.93,1,2.07,1.47.18.61,1.91,1.15,2.22,1.79a8.93,8.93,0,0,1,1,4c0,.83-.62,1.62-.39,2.51.19.72.89,1.56.32,2.3-.45.59-.44,1.23-1.12,1.85-1,.91-3.08,1.74-5.24,2.55a17.15,17.15,0,0,1-6.57,1.53c-4.72.25-5.36-1.81-5.45-2.58a19.13,19.13,0,0,1,.23-3.5c.07-1.22-.3-2.43,1.34-3.52,1.95-1.31,6.12-2.25,6.3-3.57.11-.78-.87-1.49-1.76-2.21A3.75,3.75,0,0,0,228,5.7c-1.81-.52-5.63-.6-8.65-.66-3.55-.08-7-.27-10.61-.15-3.18.1-6.15.13-9.33.28-2.4.11-4.7.25-7.06.37s-4.57.1-6.84.28c-3.95.31-2.2,1.09-1.72,1.68,1,1.21,3.11,2.38,3.58,3.74.52,1.54-.93,3.15-2.09,4.89-.55.81-1.18,1.64-1.68,2.49s-1.37,1.13-5,1.48c-5.9.56-15.33,1.21-20.46.54-6.06-.79-8.14-3.18-7.7-4.69.29-1,1.65-1.93,2.82-2.87A26.67,26.67,0,0,1,157.22,10c2.23-1.26,7.51-2.21,10.92-3.25A22.86,22.86,0,0,1,170.88,6c1.05-.21,3.32-.47,2.52-.76-1-.37-9.49,0-11.72.07-4.66.09-9.14.27-13.83.43-2.63.09-5.29,0-7.83,0-6.24,0-12-.2-17.7-.4s-11.55-.45-17.19-.67c-6.36-.25-14.1-.73-22.7.15a67.19,67.19,0,0,0-8.76,1.68c-3,.67-6.1,1.48-8.54,2.21s-4.22,1.5-4.57,2.21,2.86,1,2.67,1.79-2.9,2.09-3.94,3c-1.56,1.34.78,2.2,1.82,3.36.61.68,2.19,1.4.54,2.33-1,.58-3.24,1.3-4.73,1.91l-1.39.57c-.1-.43-3-.28-4.52-.36-2.12-.11-4.4-.37-6.08-.6-3.37-.45-3.35-1.14-3.43-2.07-.07-.74,1.11-1.43-1-1.86a12.75,12.75,0,0,0-3.06-.75,16.91,16.91,0,0,0-6.12,1.29c-3.89,1.13-9,2.13-14,3.26-3.44.78-8,1.55-11.19,2.41C-4.11,27.91.54,29.78,5.41,31s10.34,2.23,16.09,3.34c4.37.85,9.46,2.57,17.17,2.46,5.71-.09,7.22,0,15.39,0S70.4,36.87,94.43,32.37Zm208.93-8.7a13.44,13.44,0,0,1-2.75.21c-1.6.06-2.88.24-4.57.28-1.24,0-2.42,0-3.58-.09s-2.2.07-3.43.07c-3.81,0-9.14-.35-11.84-1.12-3.18-.9-2.62-1.73-3.32-2.66s-.84-2.1-1.53-3.12-2.42-1.9-3.27-2.81c-.6-.64-1.42-1.41-.19-2a25.28,25.28,0,0,1,4.88-1.18,33,33,0,0,1,6.85-.24c8.06.32,10,2.06,12.71,3.33,3.57,1.67,7.52,3.45,9.67,5.36C304.49,21.07,308.08,22.7,303.36,23.67Z"/></g></g></svg>
