<svg xmlns="http://www.w3.org/2000/svg" viewBox="0 0 1015.99 49.07"><defs><style>.cls-1{fill:#f00;}</style></defs><g id="Calque_2" data-name="Calque 2"><g id="everything"><path class="cls-1" d="M14.11,1.88c.67,4.53,4.72,9.94,8,13C26.57,19,34.36,21.07,40,23c7.66,2.65,15.49,4.55,23.35,6.49,7.32,1.81,14.88,2.46,22.27,4,15.24,3.07,30.66,5.07,46,7,8.65,1.09,17.54,1.71,26.24,2.28,8.5.56,16.89,2.22,25.42,2.21,8.69,0,17.38-.07,26.08-.06,8.34,0,16.8.55,25.09-.46,7.81-1,15.62-.34,23.47-.53a215.44,215.44,0,0,1,24,.88c16.78,1.42,33.81.18,50.63.18h104.8c8.48,0,17-.35,25.46-.23s16.66,1.61,25,1.8c17,.37,33.82,2,50.82,1.64,8.13-.15,16.34.18,24.44-.48,8.75-.71,17.39-2.41,26.14-3.08C597.6,44,606,44,614.34,44c8.74,0,17.57-.44,26.3-.08,3.59.15,7.1.86,10.68,1,4,.2,7.95-.21,11.93-.08,8.41.27,16.68,1.1,25.14,1.1q26.25,0,52.51,0c17.2,0,34.29,1.31,51.52,1.16s34.36-1,51.44-.26c8.4.37,16.72,1.84,25.14,2.07s17,0,25.48,0c32.74,0,65-6,97.74-6,6.16,0,16.29-1.9,21.58,1.79,1.59,1.11,3.09-1.49,1.52-2.59-4.64-3.23-10.47-2.24-15.8-2.2-7.77,0-15.63-.36-23.39.14-8.18.54-16.32,1.46-24.52,1.94S935.83,44,927.84,44.79c-16.32,1.65-33,1.2-49.41,1.2-16.87,0-33.51-2.46-50.41-2.18-17.09.28-34.2.49-51.3.39-8.57-.05-17.06-1.1-25.6-1.21-8.24-.11-16.49,0-24.73,0C709,43,691.28,44.06,674,42.84c-15.55-1.09-31.11-1.9-46.7-1.86-16.62.05-33.18-.32-49.69,1.93-17.28,2.36-34.72,2.6-52.16,2.38-8.16-.1-16.24-1.12-24.38-1.45-8.47-.33-17-.14-25.41-.87s-16.3-1-24.73-1-16.8,0-25.2,0c-34.59,0-69.19-.13-103.78,0-8.39,0-16.77.38-25.16.37s-16.42-1.08-24.67-1.54c-7.63-.42-15.28.25-22.91.11C241.31,40.78,233.63,42,225.8,42c-8.7,0-17.39-.09-26.08-.07-8.27,0-16.72.58-24.94-.36-8.58-1-17.12-1.73-25.71-2.58-4.23-.41-8.46-.75-12.7-1.06s-8.4-1.38-12.64-1.77a209.58,209.58,0,0,1-24.32-3.43c-7.15-1.51-14.63-3-21.85-4-16.27-2.26-32.38-6.14-47.48-12.79C24.45,13.46,18,7.57,17,1.09c-.28-1.91-3.18-1.1-2.9.79Z"/><path class="cls-1" d="M222.12,45.92H200.61c-7.23,0-14.53.34-21.72-.44s-14.34-1.88-21.57-2.16c-3.51-.13-7,.07-10.5.11a66.3,66.3,0,0,1-10.52-1c-7.11-1-14.25-2-21.43-2.36-3.59-.18-7.18-.11-10.77-.24s-7.13-.39-10.7-.51-7.13-.06-10.7-.35S75.56,38.6,72,38.6c-7.28,0-14.56,0-21.84,0-8.14,0-16.28.08-24.42,0-4,0-8,.31-12,.55s-8.2.11-12.28.11a1.5,1.5,0,0,0,0,3c3.61,0,7.24.1,10.85,0s7-.6,10.44-.64c7.3-.09,14.6,0,21.89,0s14.58,0,21.86,0c3.63,0,7.27-.11,10.9,0s7.08.64,10.64.65c7.16,0,14.29.62,21.44.66a168.55,168.55,0,0,1,21.64,1.79c3.52.48,7,1.12,10.56,1.52a75.92,75.92,0,0,0,10.34.06,147.37,147.37,0,0,1,21.5,1.54,109.31,109.31,0,0,0,12.25,1.11c4,0,7.92,0,11.88,0,8.16,0,16.32,0,24.48,0a1.5,1.5,0,0,0,0-3Z"/></g></g></svg>
