<svg xmlns="http://www.w3.org/2000/svg" viewBox="0 0 995.59 23.01"><defs><style>.cls-1{fill:#fff;}</style></defs><g id="Calque_2" data-name="Calque 2"><g id="everything"><path class="cls-1" d="M6.71,2.93c5.78,1.28,10.47,6.08,16,8.12a99.85,99.85,0,0,0,20,4.7C58.28,18,74.34,16.94,90,16.81c8-.06,15.74.34,23.67,1s16.18,0,24.25.45c16,.85,32,.42,48,.81,8,.19,16,.64,24,.87s15.82,2,23.87,2.08,16.17,1,24.28,1,16.51-.24,24.76-.45c16.25-.41,32.49-.57,48.75-.57,8.09,0,16.21.18,24.3,0s16-1.19,24-1.28c32.49-.39,65,.29,97.52.29,8.2,0,16.39.48,24.59.38s16.22-1.31,24.38-1.4c16.25-.18,32.52,0,48.77,0H776.69c16.35,0,32.69,0,49,0s32.37-2,48.59-2c7.48,0,15.06.34,22.53-.06,7.92-.43,15.69-1.17,23.64-1.22,16.17-.09,32.35.26,48.52.27,3.9,0,7.81,0,11.71,0,4.45,0,8.62,1.3,13,2,1.89.29,2.7-2.6.79-2.89-3.2-.49-6.34-1.47-9.56-1.86-4-.5-8.22-.19-12.28-.19-7.78,0-15.56,0-23.33-.06-16.31-.16-32.8-1-49.05.71-7.4.77-15,.34-22.41.35-8,0-15.69.38-23.62.95-16.06,1.16-32.12,1-48.21,1q-101.49.11-203,0H554c-8.27,0-16.54,0-24.8,0-7.87,0-15.6,1-23.44,1.32C489.44,19,472.86,18,456.48,18s-32.48,0-48.72-.16-32.14-.32-48.22,1c-15.88,1.26-32.18.11-48.11.21-16.51.1-33,.81-49.5,1-8.1.08-16.13-.52-24.21-.85-4.1-.16-8.2,0-12.27-.44s-7.85-1.26-11.81-1.57C197.81,15.86,181.78,16,165.92,16c-16.11,0-32.26-.52-48.36-1-8-.22-15.77-1.24-23.75-1.23S77.56,14,69.43,14C54.1,14,38,13.69,23.49,8.15,18,6.06,13.32,1.33,7.5,0,5.62-.37,4.82,2.52,6.71,2.93Z"/><path class="cls-1" d="M164.11,16c-5.33-.09-10.55-.66-15.85-1.15-2.7-.25-5.42-.16-8.13-.23s-5.35-.22-8-.35c-10.94-.53-21.93-.27-32.88-.27s-21.73.38-32.59-.08C61.4,13.69,56.22,13,51,12.78s-10.61-.9-15.93-.77a46.22,46.22,0,0,1-8.86-.66A82,82,0,0,0,18,10.08c-2.89-.18-5.8-.09-8.7-.09-1.35,0-2.73-.08-4.09,0a9.29,9.29,0,0,0-2,.29,4.42,4.42,0,0,1-1.71.37c-1.92-.15-1.91,2.85,0,3a9.45,9.45,0,0,0,2.87-.57,20.34,20.34,0,0,1,4-.09c2.55,0,5.1,0,7.65,0,5.1.11,10,1.61,15.1,2,2.65.18,5.29-.07,7.94,0s5.29.5,8,.63c5.32.27,10.6.82,15.92,1.13,10.8.63,21.58.29,32.39.27s21.84-.29,32.73.09c3.08.11,6.16.29,9.24.42s6,.05,9,.19,5.79.6,8.69.85c3.08.26,6.16.4,9.25.45,1.93,0,1.93-3,0-3Z"/></g></g></svg>