<svg xmlns="http://www.w3.org/2000/svg" viewBox="0 0 1012.9 26.29"><defs><style>.cls-1{fill:#fff;}</style></defs><g id="Calque_2" data-name="Calque 2"><g id="everything"><path class="cls-1" d="M12,1.45c.1,9.68,16.21,13.78,23.43,14.39C51.58,17.22,67.71,20.7,84,21c16.88.28,33.61,2.61,50.43,3.67,8,.5,15.65-.73,23.63-.85,8.49-.13,17,.15,25.52.15,8.19,0,16.67.65,24.83-.14,7.52-.73,15-1.16,22.58-1.66,16.61-1.11,33.09.89,49.66.8,17.27-.1,34.33,2.06,51.63,1.94,8.26-.06,16.37.94,24.6,1.26,8.67.34,17.34,0,26-.16,17.28-.24,34.57,0,51.85,0,8,0,16.08,0,24.1-.49s15.89-.1,23.8-.67c16.5-1.21,32.89-.84,49.45-.84,16.84,0,34.22,1.41,51-.13S616.62,23,633.37,23h52c34.36,0,68.72-.3,103.07.71s68.73.33,103.06.42c16.48,0,32.86-1.13,49.36-1.13,8.54,0,17.08,0,25.62,0,3.35,0,6.87.32,10.18-.3,4.38-.8,8.44-2.2,12.93-2.72a99.71,99.71,0,0,1,10.61-1c3.8,0,7.54-1,11.3-.95,1.93,0,1.93-3,0-3-3.27-.06-6.38,1-9.64,1-4.16.06-8.12.51-12.27,1A61.14,61.14,0,0,0,980,18.6a45.89,45.89,0,0,1-12.64,1.34c-16.09.06-32.4-.78-48.47.09-33.42,1.82-67,.92-100.5.92-33.28,0-66.55-1-99.85-1H616.71c-8.38,0-16.85-.41-25.21,0-7.93.39-15.68,1.25-23.66,1.19q-25-.16-50-.19c-8.25,0-16.54-.57-24.79-.11-7.61.44-15,1-22.64,1-7.78,0-15.56,1-23.35,1.08C438.72,23,430.36,23,422,23c-16.89,0-33.76,0-50.65.26a218,218,0,0,1-24.91-.86c-8.17-.77-16.39-.36-24.58-.41-8.36-.05-16.48-.92-24.79-1.71s-16.74,0-25.09-.42c-15.81-.78-31.42-1.32-47.24-.18S193.42,21,177.61,21c-8.34,0-16.93-.7-25.23.22a116.18,116.18,0,0,1-22.3.16c-16.66-1.3-33.21-3-49.93-3.38-8-.16-16-1.83-24-2.6C52,15,47.92,14,43.76,13.42s-8.22-.33-12.28-1.18C26.68,11.25,15,7.87,15,1.45a1.5,1.5,0,0,0-3,0Z"/><path class="cls-1" d="M129.45,20.28c-1.82.19-3.56-.4-5.36-.59s-3.86-.21-5.78-.37c-4.12-.35-8.25-.29-12.37-.57S97.81,18.4,93.77,18s-8.26-.42-12.43-.4c-17,.08-34.08,0-51.12,0H1.45a1.5,1.5,0,0,0,0,3c17,0,33.94,0,50.91,0,8.58,0,17.16.05,25.73,0,4.18,0,8.41-.23,12.59.11s8.11.47,12.16.76c4.61.33,9.22.29,13.82.66,2.21.18,4.41.34,6.62.45s4.07.86,6.17.65c1.9-.19,1.92-3.19,0-3Z"/></g></g></svg>