<svg xmlns="http://www.w3.org/2000/svg" viewBox="0 0 1020.23 22.42"><defs><style>.cls-1{fill:#fff;}</style></defs><g id="Calque_2" data-name="Calque 2"><g id="everything"><path class="cls-1" d="M5.78,3c2.91.31,5.51,3.1,7.89,4.57q4.23,2.64,8.66,4.9c6.26,3.15,11.21,5.2,18.25,5.54,16.86.83,33.65,4.44,50.59,2.79s34-.8,50.91-.8h52.31c17.32,0,34.79-.94,52.09-.16,17,.77,33.82,1.16,50.83,1.16h51.1l25.32,0c8.07,0,15.94-1,24-1,16.8.11,34.06,1.57,50.7-1.13,8-1.3,16.16-1.56,24.2-2.77,8.43-1.28,16.65-1.65,25.12-2.25,8.15-.58,16-1.85,24.24-1.83,8.53,0,17.06,0,25.59,0,16.27,0,33.1,1.23,49.28-.55,16.78-1.84,34-.54,50.9-.46,17.38.08,34.78-.27,52.16,0,16.83.24,33.81,2.47,50.49,4.57,8.62,1.09,17.17,1.08,25.8,1.6,8.38.51,16.62,2.19,25,2.76s16.9-.27,25.34.45c8.2.71,16.4.13,24.58.76,16.25,1.24,32.55.9,48.87.9,17.25,0,34.7.82,51.93.14,3.48-.13,6.86-.87,10.33-1.08,4.59-.29,9.26,0,13.87-.05,7.11,0,14.53.88,21.6,0s13.89-3.11,21.06-3c1.93,0,1.93-3,0-3-6.35-.12-12.34,1.35-18.57,2.53-7.85,1.48-16.14.46-24.09.48-4.33,0-8.69-.16-13,0-3.75.15-7.43,1-11.19,1.11-8.74.33-17.58-.14-26.33-.14q-25.38,0-50.77,0c-8,0-15.75-.28-23.7-.89-8.18-.63-16.38-.05-24.58-.76-8.44-.72-16.9.13-25.34-.45-8.68-.59-17.25-2.39-25.94-2.82-8.33-.4-16.55-.49-24.85-1.54s-16.57-2-24.93-2.72C717,9.15,708.48,8.1,699.92,8s-17.39,0-26.08,0c-17.27,0-34.55-.17-51.82-.25C605.31,7.68,588.74,9,572,9s-33.36,0-50,0c-8.2,0-16.09,1.25-24.24,1.83-7.49.53-14.82.67-22.27,1.8-17.2,2.6-34.7,4.68-52.09,4.62-8.55,0-17.11-.22-25.66-.27-8.07,0-15.94,1-24,1q-25.67,0-51.31,0c-16.8,0-33.6.1-50.4,0-8.87,0-17.65-.85-26.5-1.19-8.4-.33-16.8,0-25.19.15-34.79.49-69.62,0-104.41,0-16.64,0-33.1,1.79-49.72.41-8.54-.71-17.06-2-25.62-2.4-8.32-.4-15.21-3.92-22.25-8.17C14.45,4.51,10.39.51,5.78,0c-1.91-.21-1.9,2.79,0,3Z"/><path class="cls-1" d="M134.12,16.68c-4.26,0-8.47-.7-12.73-.67s-8.62,0-12.93,0c-8.8,0-17.63.18-26.42,0a79.72,79.72,0,0,1-12.42-1.46c-4.13-.75-8.37-.7-12.54-1.12-4.39-.44-8.76-.9-13.16-1.14s-8.65-.24-13-.28c-9.83-.09-19.65-.65-29.49-.66a1.5,1.5,0,0,0,0,3c8.69,0,17.36.45,26.05.61s17.44.22,26.17,1.12c2.19.23,4.38.46,6.57.64s4.16.17,6.23.37,4.15.72,6.22,1.08a55.87,55.87,0,0,0,6,.71c4.36.28,8.74.14,13.1.14s8.77,0,13.16,0c4.81,0,9.63,0,14.44,0,2.43,0,4.83,0,7.25.19s4.95.45,7.44.47a1.5,1.5,0,0,0,0-3Z"/></g></g></svg>