<svg xmlns="http://www.w3.org/2000/svg" viewBox="0 0 1011.93 30.07"><defs><style>.cls-1{fill:#f00;}</style></defs><g id="Calque_2" data-name="Calque 2"><g id="everything"><path class="cls-1" d="M.19,2.27c1.18,2.26,3.16,3,5.18,4.49C7.66,8.42,9.43,10.45,12,11.83c6.27,3.42,12.41,5.12,19.33,6.85,15.81,3.94,32.69,5.68,48.9,7,8.47.71,17,1.06,25.45,1.23,8.11.15,16-.8,24.09-1,16.55-.36,33.2-1.95,49.76-.44,8.2.75,16.43.35,24.65,1.1,7.57.69,15.18.69,22.77,1.31,8,.65,16.13-.16,24.19.26,8.69.45,17.16.79,25.88.75,8.19-.05,16.33.86,24.51,1.09,8.44.24,16.73-1.18,25.16-1.1,17.33.17,34.67.07,52,.07s34.83-.12,52.24.23c17,.35,34.07-.82,51-1.39,8.59-.28,17.06-1.54,25.62-2s17.3-.89,26-1.52c16.34-1.19,32.78-1.32,49.16-1.3,35,.05,69.93-.05,104.89,0,17.31,0,34.44.9,51.69,2.33,16.4,1.36,33,.67,49.46.67,16.63,0,33.66-1.32,50.26,0s33.14,1,49.76,1a427.71,427.71,0,0,0,50.73-2.54c7.81-.93,15.8-.44,23.65-.46,4.15,0,8.3,0,12.45,0s8.05-.93,12.18-1.11c7.55-.35,15.2-.68,22.76-.88,1.93-.05,1.93-3.05,0-3-15.54.41-30.89,2-46.43,2-7.87,0-15.93-.51-23.76.36s-16,1.61-23.94,2.28c-16.79,1.43-34.05.37-50.89.37-16.32,0-32.45-1.32-48.78-1.18-33,.28-65.88.93-98.73-2-17-1.53-34.18-.77-51.19-.77q-25.8,0-51.59,0c-17.08,0-34.17-.15-51.25-.05-16.23.1-32.45,2.12-48.67,2.61-8.5.26-16.88,1.29-25.35,1.87s-17.2.41-25.81.69c-8.27.27-16.49,1.16-24.77,1.2S423,26,414.86,26q-26.12,0-52.23,0c-16.95,0-34.05-.74-50.93.81-8.08.73-16.22-.09-24.3-.55-8.34-.47-16.67.15-25-.21-8.16-.35-16.16-1.11-24.35-1-7.82.14-15.47-1.09-23.26-1.1-15.64,0-31.28-2-46.92-2a235.22,235.22,0,0,0-24.91.78c-8,.83-16.07.4-24.08,1-16.51,1.28-34-.24-50.37-2.32C59.79,20.38,51,19.4,42.36,17.91,34.74,16.6,25.91,15.29,18.84,12A37.13,37.13,0,0,1,9.89,6.68C8,5,3.85,2.82,2.78.75,1.88-1-.71.56.19,2.27Z"/><path class="cls-1" d="M163.81,22.68c-5.21,0-10.33.09-15.53.54s-10.29.69-15.43.77c-10.09.16-20.18-.29-30.25.53-5.08.41-10.15,1.1-15.24,1.4s-10.17.19-15.26.12C61.75,25.91,51.38,26,41,26H5.81a1.5,1.5,0,0,0,0,3c20.81,0,41.62-.05,62.42,0,5.09,0,10.18.19,15.27.07s10.16-.73,15.23-1.22c10.14-1,20.26-.85,30.43-.85,5.73,0,11.45-.25,17.17-.63,2.84-.2,5.68-.56,8.53-.68s6,0,8.95,0a1.5,1.5,0,0,0,0-3Z"/></g></g></svg>
