<svg xmlns="http://www.w3.org/2000/svg" viewBox="0 0 1002.23 57.36"><defs><style>.cls-1{fill:#f00;}</style></defs><g id="Calque_2" data-name="Calque 2"><g id="everything"><path class="cls-1" d="M.34,1.88c.73,5.18,6,9.24,9.84,12.2,5.88,4.57,12.24,7.91,18.63,11.7C42,33.59,55.17,39.62,70.33,42.51c8.17,1.56,16.55.91,24.76,2.22,7.65,1.23,15.17,2.25,22.88,3,3.74.38,7.48,1.09,11.23,1.25,4.39.18,8.66-.23,13,.46,3.23.51,6.41,1.26,9.68,1.5,4.16.31,8.31-.12,12.47,0,3.8.12,7.53.94,11.33,1,4.36.1,8.7.15,13.06.37,7.86.39,15.81.22,23.61,1.13,8.31,1,16.61.12,24.93,1s17.09.43,25.56.44h26.94c8.63,0,17.55-.7,26.11.45,7.38,1,14.84.55,22.26.55q13,0,26,0Q417,56,469.88,56a236.45,236.45,0,0,0,25.24-1.52c8.26-.87,16.67-.53,25-.62,8.67-.1,17.45-.4,26.1.3,8,.65,16,2.18,24,2.91,8.26.74,16.84,0,25.14,0h26c16.58,0,33.13.59,49.6-1.54,16-2.08,32-2.38,48-3.32,17.54-1,35.41-.21,53-.14,8.33,0,16.67.18,25,.84,8.49.68,17.1.75,25.52,1.87,8,1,16.51.23,24.57.26,8.85,0,17.7,0,26.55,0s17.43-.22,26.18.86c8.33,1,16.94.4,25.31.24,17-.33,34.6-1.23,51.45.61,8,.87,16.21.3,24.22.3a1.5,1.5,0,0,0,0-3c-16.58,0-33-1-49.55-1-8.38,0-16.77-.08-25.15.07-8.57.15-17.33.75-25.87-.21C883.66,51,866.71,52,850,52c-16.49,0-32.84-.33-49.27-1.81C784,48.67,767.21,49,750.42,49c-9,0-18-.08-27,0-7.64.07-15.18,1-22.84.9-16-.17-31.85,3.85-47.86,4.1-16.88.27-33.78,0-50.66,0q-12.3,0-24.58.2c-8,.13-16.24-1.15-24.2-2.22-16.38-2.2-33.18-1.13-49.67-1-8.21.07-16.25,1.86-24.44,2-8.37.15-16.76,0-25.13,0H350.71c-8.14,0-16.3.12-24.45.09-8,0-15.83-1.12-23.85-1.1-17,.05-34,0-51.05,0-8.41,0-16.78-1.26-25.16-1-7.9.2-15.58-.88-23.45-1-16.1-.2-32.13-1.5-48.19-1.87-7.44-.16-14.53-2.19-22-2.09s-14.84-1.38-22.21-2c-8.4-.72-16.54-2.84-25-3.17A104.79,104.79,0,0,1,61,36.9C45.68,32.7,32,25,18.64,16.53,13.54,13.32,4.17,7.66,3.23,1.09,3-.82.07,0,.34,1.88Z"/><path class="cls-1" d="M237.45,53a38.83,38.83,0,0,1-5.16-.6,43,43,0,0,0-5.56-.07h-12c-7.54,0-15.31.15-22.76-1.19-3.66-.65-7.26-1.53-11-1.61s-7.62.12-11.42.15-7.89.07-11.83-.07-7.58-.56-11.37-.93c-7.94-.78-15.89-1.5-23.83-2.26-7.72-.73-15.36-1.5-23.12-1.51-15.6,0-31.21.09-46.81.08-4.48,0-9-.08-13.44.07-4.27.13-8.52.47-12.79.58s-8.49-.31-12.72-.07c-1.86.1-3.64.6-5.49.74-2.22.17-4.51,0-6.74,0a1.5,1.5,0,0,0,0,3c2,0,3.91,0,5.87,0a44.8,44.8,0,0,0,5-.67c3.66-.46,7.43,0,11.11,0,3.94,0,7.87-.25,11.8-.45S42.84,48,46.64,48c15.64,0,31.28.11,46.91,0a217.77,217.77,0,0,1,23.55,1c7.77.77,15.56,1.47,23.34,2.21s15.76,1.6,23.72,1.6c3.74,0,7.48,0,11.21-.08a53,53,0,0,1,11.26.53,108.42,108.42,0,0,0,12.56,1.76c4.19.29,8.39.42,12.59.42h13.46c2,0,4.12-.18,6.14,0s4,.7,6.07.69a1.5,1.5,0,0,0,0-3Z"/></g></g></svg>
