<svg xmlns="http://www.w3.org/2000/svg" viewBox="0 0 1002.56 27.01"><defs><style>.cls-1{fill:#fff;}</style></defs><g id="Calque_2" data-name="Calque 2"><g id="everything"><path class="cls-1" d="M8.05,2.52A76,76,0,0,0,43.8,19.77c15.84,2.8,31.82.92,47.65,2.91,7.17.91,14.6.28,21.81.28h75.63c33.74,0,67.55-.68,101.27,0,15.71.33,31.41,1.18,47.07,2,16.5.9,33,.94,49.48,1,33.58.05,67.09,1,100.67,1h51.07c8.38,0,16.79.23,25.16-.28,8.19-.5,16.35-1.55,24.56-1.68,16-.25,31.55-3.8,47.51-4,8.22-.12,16.44,0,24.66,0s16.22-1.12,24.35-1.3c16.66-.37,33.4.29,50.07.29,16.47,0,33-.13,49.42-.1,7.81,0,15.41,1.24,23.25,1.12,8.46-.13,16.93,0,25.39,0h51.24c7.28,0,14.85,1,22.09.14,7.88-.9,15.3-4.2,23.18-5,7.72-.83,15.48.3,23.21-.14,8.09-.46,16.08-2,24.19-2.39s16.2-.63,24.39-.57a1.5,1.5,0,0,0,0-3c-8.19-.06-16.21.14-24.39.57-7.81.42-15.48,1.76-23.26,2.32S938,12.31,930.22,13c-7.53.66-14.61,3.48-22,4.77S893.37,18,886,18H860.35c-16.71,0-33.43-.06-50.14,0-3.93,0-7.9.34-11.82.05s-7.54-1.09-11.43-1.13c-8.18-.1-16.35.08-24.52.08H712c-8.18,0-16.36-.35-24.53-.32-7.82,0-15.56,1.12-23.37,1.28-15.89.33-31.93-.86-47.73,1.35-32.28,4.52-65,4.69-97.57,4.69h-50.9C460,24,452,24,444,24c-8.26,0-16.48-1-24.74-1-16.77-.07-33.54,0-50.3,0-8.14,0-16.25-.14-24.37-.55-7.33-.37-14.69-1.39-22-1.47-16.31-.19-32.57-1-48.88-1q-25.11,0-50.22,0H122.78C115,20,107.26,19.9,99.5,20S84.06,19,76.29,19C60,19,43.62,18.59,28.7,11.6,22.05,8.48,15.69,5.35,10.18.4,8.74-.89,6.61,1.23,8.05,2.52Z"/><path class="cls-1" d="M177.45,18.63c-5.69,0-11.34.75-17,.74a141,141,0,0,1-16.83-.66c-2.79-.34-5.57-.77-8.38-.95s-5.69-.27-8.52-.63a157,157,0,0,0-17.06-1.19c-11.42-.23-22.86,0-34.28,0H1.45a1.5,1.5,0,0,0,0,3H71.12c11.45,0,22.9-.14,34.34-.07,5.71,0,11.42.19,17.1.76,2.84.28,5.65.7,8.5.88s5.52.27,8.27.62c3.14.41,6.28.86,9.44,1.05s6.3.12,9.45.15c6.43.08,12.8-.71,19.23-.72a1.5,1.5,0,0,0,0-3Z"/></g></g></svg>