<svg xmlns="http://www.w3.org/2000/svg" viewBox="0 0 1015.23 28.21"><defs><style>.cls-1{fill:#f00;}</style></defs><g id="Calque_2" data-name="Calque 2"><g id="everything"><path class="cls-1" d="M7.72,2.55c2.19,2.09,3.41,4.78,5.8,6.7,2.21,1.77,4.78,2.82,7.19,4.25,5.92,3.5,12.9,5.24,19.73,6.32a208.42,208.42,0,0,0,22.18,2c8.7.42,17.48-.76,26.08.91,15.26,2.95,31.1.36,46.54,1.18,3.66.19,7.2,1,10.87,1.11,4.23.09,8.46-.2,12.69,0,7.8.33,15.44,1.95,23.26,2,8.17.08,16.26,1,24.41,1.08S223,28,231.29,28c17.63,0,35.3.37,52.92,0,16.71-.39,33.33-1,50.06-1q26.39,0,52.77,0c8.22,0,16.23.32,24.42.92,8.37.62,16.87.06,25.26.07q25.88,0,51.76,0c8.24,0,16.43-1,24.67-1q12.63,0,25.26,0c17.52,0,35-.78,52.54-1.58,7.76-.35,15.55-.82,23.27-1.42,6.8-.53,13.56-1.78,20.38-2,8.22-.28,16.24-1,24.5-1,8.55.06,17.11,0,25.67,0,33.74,0,67.38,1,101.13,1,8.21,0,16.42.12,24.62,0s16.12-1,24.21-1.1c16.79-.27,33.33-2.52,50.13-2.08,34.26.91,68.64.15,102.91.15h26a1.5,1.5,0,0,0,0-3H910.25c-16.33,0-32.94-1.24-49.2.41q-12.18,1.23-24.43,1.48c-8.13.18-16.14.77-24.25,1.11-16.6.68-33.37,0-50,0-16.24,0-32.4-1-48.62-1-31.86,0-64-1.49-95.69,2.4-3.47.42-6.81.47-10.29.55-4,.1-7.9,1-11.89,1.22-8.58.39-17.16.79-25.74,1.11C553.09,23.93,536,24,519,24c-16.68,0-33.32,1-50,1-16.93,0-33.87.14-50.8.14C410,25.14,402,24,393.89,24c-8.54,0-17.09,0-25.63,0l-51.12,0c-17,0-33.89,1-50.88,1-16.78,0-33.58-.15-50.36.11-8.21.12-16.23-.47-24.41-.91s-16-.37-24.06-1.37c-7.76-1-15.38-.35-23.14-.8-3.9-.22-7.65-1.1-11.57-1.1s-7.67.06-11.5.07c-8,0-16.12.48-24.08.05C93,20.81,89,19.56,84.84,19.1a96.19,96.19,0,0,0-11.64-.19C65,19,57,18.35,48.8,17.72A68,68,0,0,1,35.94,15.8c-3.61-1-7.93-1.46-11.21-3.27A79.34,79.34,0,0,1,16.1,7.41c-2.62-1.91-4-4.78-6.26-7C8.45-.91,6.32,1.21,7.72,2.55Z"/><path class="cls-1" d="M198.12,25c-3.22,0-6.45.21-9.66.08s-6.45-.57-9.7-.64c-6.39-.13-12.77-.45-19.17-.67s-13.06-.1-19.59-.1H100.67c-3.21,0-6.43.09-9.64,0s-6.28-.39-9.42-.54c-6.39-.31-12.74-.27-19.1-1.12-3-.4-6-.26-9-.52-3.21-.28-6.4-.76-9.6-1.07-3.49-.35-7-1.12-10.5-1.19-1.72,0-3.45,0-5.15-.15s-3.2-.55-4.83-.65c-3.59-.23-7.23-.08-10.83-.07H1.45a1.5,1.5,0,0,0,0,3c6.6,0,13.2-.06,19.8,0,2.93,0,5.74.73,8.65.83,1.48.05,3,0,4.46.07s3.16.41,4.74.62c3.21.43,6.43.65,9.64,1.06a76.94,76.94,0,0,0,9.59.73c3.09,0,6.15.65,9.23.88s6.13.44,9.21.47c6.48.07,12.93.7,19.41.67s13,0,19.44,0c13,0,26,0,39,0,7.25,0,14.47.65,21.71.74,3.66,0,7.26.35,10.91.6s7.25,0,10.87,0a1.5,1.5,0,0,0,0-3Z"/></g></g></svg>
