<svg xmlns="http://www.w3.org/2000/svg" viewBox="0 0 917.9 12.53"><defs><style>.cls-1{fill:#fff;}</style></defs><g id="Calque_2" data-name="Calque 2"><g id="everything"><path class="cls-1" d="M1.45,5.29H24.71c7.66,0,15.59.63,23.19-.27C63.42,3.18,78.79,3.29,94.4,3.29c7.55,0,15,.21,22.54.53C124.78,4.15,132.45,5,140.35,5c15.61-.12,31.22-.24,46.84-.15,7.66,0,15.2-1.17,22.82-1s15.07,0,22.59,0,15,0,22.54,0c7.7,0,15.33.4,23,.44,15.43.08,30.86.13,46.18,2,7.91,1,15.81.33,23.74.66s15.75.59,23.66.41c8.35-.2,16.66-.48,25-.48,4.47,0,9.09-.31,13.55.11,3.4.33,6.75,1.08,10.17,1.41C428,9,436,9.49,443.5,8.38c9-1.34,18.42-.64,27.45.41,1.66.2,2.06-2.66.4-2.94l-3-.5L468,8.29h23.71a101.08,101.08,0,0,1,11.93.59c3.47.4,7,.15,10.45.86,5.63,1.17,11.73.88,17.51,1,7.22.17,14.44.24,21.65.55,14.36.62,28.83.85,43.22,1.18,7.76.18,15.53-.18,23.29-.19,6.84,0,13.8.4,20.63,0,6.51-.42,13.09-1.47,19.59-2.1,6.67-.64,13.43-1.45,20.13-1.75,7.34-.33,14.72-.12,22.07-.12s14.85-.49,22.14.12c7.1.58,14.13,2.09,21.22,2.84a215.08,215.08,0,0,0,22.41,1c7,0,14.06.46,21-.39a181.39,181.39,0,0,1,22-1.11H916.45a1.5,1.5,0,0,0,0-3H822c-7.4,0-15-.42-22.33.25-7,.65-14.21,1.49-21.29,1.35-14.62-.3-28.84-.51-43.37-2.48a152.65,152.65,0,0,0-20.93-1.6l-22.28,0A354.92,354.92,0,0,0,651.4,7.83a173.67,173.67,0,0,1-20.51,1.46c-7.59,0-15.18,0-22.77.14-15.17.29-30.34-.7-45.52-.64-7.55,0-15.12-.7-22.68-.94s-15.68.49-23.17-.59c-16.19-2.34-32.45-2-48.8-2-1.63,0-2.11,2.66-.4,3l3,.5.4-2.95a147,147,0,0,0-22-1c-7.79.24-15.47,1.47-23.32,1-6.48-.37-12.81-2-19.31-2.07-7.49,0-15-.07-22.48,0-15.72.19-31.37.11-47.09,0-8,0-15.69-1.61-23.62-1.95-7.66-.33-15.39-.61-23.05-.78C274.89.78,259.71.79,244.51.79s-30.92-1-46.08.73c-7.26.83-14.79.28-22.09.27-8,0-15.91,0-23.87,0-7.77.06-15.6.43-23.37,0-7.56-.38-15-1.58-22.61-1.56C89,.33,71.09-.83,53.7,1.23S18.81,2.29,1.45,2.29a1.5,1.5,0,0,0,0,3Z"/></g></g></svg>