<svg xmlns="http://www.w3.org/2000/svg" viewBox="0 0 1002.56 32.33"><defs><style>.cls-1{fill:#f00;}</style></defs><g id="Calque_2" data-name="Calque 2"><g id="everything"><path class="cls-1" d="M6.82,2.3c1.61,3.75,7.71,6.85,11.11,8.76,2.61,1.47,4.86,3.6,7.54,4.9,3.1,1.51,6.73,1.71,10,2.78a28.17,28.17,0,0,0,8.77,1.44c4.06.08,7.74,1.13,11.69,1.9A126.07,126.07,0,0,0,78.8,24c15.57.15,31,2,46.51,2,17.18,0,34.43-.47,51.6.09,8.58.28,17.12.9,25.71.91,7.76,0,15.31.63,23,1,8.06.38,16.21,0,24.28,0,8.32,0,16.48,1.22,24.83,1.05C309,28.39,343.39,29,377.67,29c16.08,0,32,1,48.11,1s32.57-1,48.62.18c16.83,1.22,33.5.83,50.37.83,8.23,0,16.48.06,24.71,0,7.83-.07,15.46.65,23.25,1,17,.7,34.11,0,51.09,0,16,0,31.8-1.61,47.69-3.55,4.35-.53,8.62-.16,13-.38,4.12-.21,8.13-1.07,12.27-1.14,8.63-.13,17.26.08,25.89.08q25.89,0,51.8,0,51.55,0,103.11.09c17.48.06,35,.09,52.44,0,7.94-.06,15.71,1,23.62,1,8.7-.06,17.16-.23,25.76,1.23,7.34,1.24,14.38,0,21.75-.27,1.92-.06,1.93-3.06,0-3-4,.13-7.87.66-11.82.9a54.28,54.28,0,0,1-12.51-1.14c-7.32-1.24-14.87-.79-22.27-.73-7.89.07-15.63-1-23.54-1q-12.87.09-25.73.09c-34.15,0-68.31-.14-102.46-.14-33.75,0-67.5-.18-101.25-.12-8.27,0-16.4,1-24.66,1.15a191.48,191.48,0,0,0-22,2c-16.86,2.27-33.55,2-50.54,1.95-32.6,0-65.08-1.48-97.69-.89-16,.29-31.87-1.1-47.87-1.11-16.38,0-32.75.05-49.13,0-7.55,0-14.91-1.27-22.47-1.07-8.41.22-16.83.07-25.24.07H285.16c-7.93,0-16,.6-23.86-.22a239,239,0,0,0-24.53-.77c-7.68,0-15.24-.92-22.88-1-16.52-.25-33.06-1-49.58-1s-33.34.56-49.94,0c-7.53-.24-15.1-1.39-22.66-1.72-7.94-.35-15.89-.11-23.81-.7-7.41-.55-14.67-3.24-22-3.47S29.48,15.42,23.58,11c-2.26-1.68-4.8-2.8-7.1-4.42s-6-3.36-7.07-5.83C8.65-1,6.07.54,6.82,2.3Z"/><path class="cls-1" d="M177.45,24.71c-11.7,0-23.41-.17-35.11,0a22.92,22.92,0,0,1-4.06-.15c-1.28-.21-2.54-.5-3.83-.59-2.88-.21-5.76-.35-8.63-.64s-5.75-.79-8.63-1.08a80.63,80.63,0,0,0-8.65-.27c-11.79.09-23.58-.06-35.37.13-11.47.19-23.06.47-34.44-1.32A61,61,0,0,0,29.38,20c-3.16,0-6.33.14-9.49.05s-6.21-.76-9.34-.85-6.07.17-9.1.19a1.5,1.5,0,0,0,0,3c2.66,0,5.32-.21,8-.2s5.37.54,8.08.74c5.68.43,11.39-.27,17.06.31,2.83.29,5.63.86,8.46,1.18s5.7.52,8.56.66c5.75.27,11.51.23,17.26.15,11.77-.17,23.53-.18,35.3-.18,2.9,0,5.81-.07,8.71,0a80.88,80.88,0,0,1,8.65.83c2.85.38,5.72.66,8.59.87,1.36.1,2.73.17,4.09.25s2.75.44,4.14.63a70.29,70.29,0,0,0,9.18.09h29.93a1.5,1.5,0,0,0,0-3Z"/></g></g></svg>
