<svg xmlns="http://www.w3.org/2000/svg" viewBox="0 0 1014.9 23.07"><defs><style>.cls-1{fill:#f00;}</style></defs><g id="Calque_2" data-name="Calque 2"><g id="everything"><path class="cls-1" d="M11.05,2.91c3.2.49,6.05,2.85,9,4.1C23.51,8.43,27,9.78,30.43,11.12A60.93,60.93,0,0,0,52.26,15a73.78,73.78,0,0,1,10.9,1.35c3.79.6,7.6.25,11.41.44,7.83.38,15.59,2.38,23.43,2.31,8.11-.07,15.71-.51,23.81.47A201.28,201.28,0,0,0,145,21.19c17.24.07,34.5-.22,51.74-.22,34.69,0,69.39-.32,104.08,0,34.07.33,68.28,2.31,102.36.73,8.53-.4,17-1.11,25.53-1.66,7.85-.5,15.7.1,23.56-.56s15.88-.44,23.85-.51c8.64-.06,17.13-1.62,25.7-2.47,8.38-.82,16.69-.38,25.06.06,8.82.47,17.63.4,26.46.39,16.59,0,33.14,1,49.71,1s33.29.82,50,.86c16.48,0,32.93,3.21,49.41,2.18,7.46-.46,14.72-1.82,22.18-2a124.13,124.13,0,0,0,21.33-2.18c8.32-1.67,17-1.31,25.47-1.24,8.69.08,17.39.33,26.09.35Q822.71,16,848,16c16.86,0,33.93-1.22,50.77,0,4.09.28,8,1.49,12.09,1.93A108,108,0,0,0,922.2,18c8.6,0,17.24.74,25.83,1.06,8,.29,15.78,2.7,23.73,3a103.52,103.52,0,0,1,10.71.54,36.42,36.42,0,0,0,10.58.14c3.09-.46,5.9-1.6,8.89-2.44,2-.58,4.06-.89,6-1.64s3.4-1.67,5.49-1.7c1.93,0,1.93-3,0-3-2.88,0-5.1,1.46-7.79,2.33-3.64,1.18-7.58,2.38-11.33,3.19-4.5,1-8.75.53-13.23-.13-3.14-.47-6.19-.13-9.34-.29-8-.43-15.72-2.75-23.73-3-8.28-.31-16.58-1-24.86-1.05-4.5-.05-9,.37-13.51-.29-3.66-.54-7.22-1.53-10.93-1.77-8.26-.54-16.63-.35-24.9-.26q-25.07.27-50.14.31c-17.12,0-34.23-.17-51.35-.34-7.63-.08-15.57-.49-23.15.57-7.91,1.11-15.8,2.48-23.81,2.82-7.44.31-14.67,1.41-22.11,1.93-7.86.55-15.63-.1-23.47-.58-8.32-.51-16.55-1.47-24.9-1.54s-17,.54-25.44-.13c-16.23-1.27-32.62-1-48.9-1.59-17.24-.67-34.54.42-51.78-.44-8.37-.41-16.72-1-25.09-.33S487.25,15.6,479,15.93c-16.1.62-32.24.62-48.34,1-8.2.21-16.46,1.18-24.67,1.6-8.61.45-17.21.41-25.83.41-16.91,0-33.86.29-50.76-.15C295.09,17.93,260.87,18,226.6,18H173.78c-16.61,0-33,.2-49.52-1.17-3.47-.29-6.88-1-10.36-1.18-4.38-.2-8.74.21-13.11.38-7.79.3-15.63-1.24-23.37-2-3.58-.36-7.16-.05-10.74-.27-3.75-.24-7.35-1.35-11.1-1.6-8.51-.58-16.25-.74-24.35-3.87C28.05,7,24.87,5.75,21.72,4.46,18.39,3.09,15.45.57,11.85,0c-1.89-.29-2.71,2.6-.8,2.89Z"/><path class="cls-1" d="M117.72,14.69a51.67,51.67,0,0,1-10.35,2.47c-3.68.54-7.44.14-11.14.14H72.75c-7.72,0-15.44.07-23.16,0a85.27,85.27,0,0,0-11,.26,96.39,96.39,0,0,1-11.4.42c-8.59,0-17.19,0-25.78,0a1.5,1.5,0,0,0,0,3l23.34,0a111.24,111.24,0,0,0,11.55-.16,93.3,93.3,0,0,1,10.83-.55c15.61.15,31.23.06,46.84.06,4.25,0,8.64.44,12.87-.07a50.84,50.84,0,0,0,11.63-2.65c1.8-.67,1-3.57-.79-2.89Z"/></g></g></svg>
