<svg xmlns="http://www.w3.org/2000/svg" viewBox="0 0 999.56 35.2"><defs><style>.cls-1{fill:#f00;}</style></defs><g id="Calque_2" data-name="Calque 2"><g id="everything"><path class="cls-1" d="M38.72,2.94c3.43.82,5.13,3.59,7.89,5.48,2.58,1.76,5.72,2.67,8.44,4.24C60.87,16,67.59,18,74.12,19.56c7.44,1.73,15,3.18,22.47,4.65,3.39.67,6.93.31,10.28,1.07,3.2.73,6,1.75,9.31,2,7.86.62,15.73,1.33,23.53,2.56C147.2,31,154.53,31,162.1,31c8.13,0,16.27-.14,24.39,0,3.78.06,7.48.72,11.25,1,4.33.27,8.73,0,13.07,0,16.32,0,32.64,0,48.95,0,16.54,0,33.05,1.09,49.61,1A225,225,0,0,1,333,34.46c8.31.83,16.69.49,25,.51a293.79,293.79,0,0,0,46.09-3.07A146.75,146.75,0,0,1,428.35,30c8.1,0,16.11-1,24.24-1s16.2-.38,24.24.06,16,1.87,24.11,1.89c16.48,0,32.94,1,49.43,1s33.06,0,49.6,0c16.25,0,32.36-1.35,48.64-1.12,16.81.25,33.63.12,50.45.12H748.5c7.76,0,15.67.67,23.41.32,3.35-.16,6.61-.95,10-1.22,4-.32,8.07-.09,12.1-.1,7.57,0,15.06-1.15,22.64-1.11,8.27,0,16.53.11,24.8.09s16.39-.13,24.63,1.45c7.21,1.39,14.54.32,21.83.74,8.28.48,16.5,1.49,24.79,1.81A190.48,190.48,0,0,1,934,34.81a63,63,0,0,0,10.19.19c4,0,8.12.42,12.16.08,7-.59,14-1.6,21-2.06s13.74-2.9,20.71-3c1.92,0,1.93-3,0-3-7,.13-13.8,2.41-20.71,3s-13.58,1.3-20.38,2c-14.8,1.44-29.63-1.46-44.38-2-8.3-.32-16.51-1.33-24.79-1.81-7.93-.46-15.63.47-23.46-1.14-7.56-1.56-15.31-1.06-23-1.05q-12,0-23.93-.08c-7.59-.07-15.09,1-22.68,1.1-3.74,0-7.48-.17-11.21,0s-7.21,1-10.84,1.27c-7.68.56-15.62-.27-23.32-.27H674.16c-16.54,0-33.26-.92-49.78,0-32.3,1.79-65,1.58-97.35.59-8.07-.25-16.14-.53-24.22-.58s-16.06-1.14-24.19-1.78-16.13-.16-24.15-.18c-4,0-8.11-.18-12.15-.05s-8.17,1-12.31,1c-7.28,0-14.33,0-21.54,1.15-8,1.26-16,2-24,2.8a228.51,228.51,0,0,1-24.55,1c-8,0-16.15.38-24.17-.26C327.5,31.05,319.48,30,311.19,30c-7.92.05-15.86.13-23.78-.06-16.05-.38-32-.94-48.1-1-16.46,0-32.94.42-49.33-.87S156.85,29.55,140.5,27c-7.2-1.14-14.51-2-21.79-2.5a63.33,63.33,0,0,1-11-2.07c-3.35-.84-6.87-.44-10.27-1.07-7.5-1.39-15-2.92-22.47-4.66-7.87-1.83-14.49-5-21.68-8.45a29,29,0,0,1-7.47-4.58A14.17,14.17,0,0,0,39.51.05c-1.87-.45-2.67,2.44-.79,2.89Z"/><path class="cls-1" d="M189.45,29H170.94c-6.09,0-12.21.28-18.29,0s-11.84-1.21-17.79-1.34q-9.33-.2-18.64-.2c-12.36,0-24.71.14-37.07.24a89.4,89.4,0,0,1-9.26-.24,89.19,89.19,0,0,0-9-.4c-6.19,0-12.37,0-18.55,0-6.87,0-13.75.17-20.61-.19s-13.54-.47-20.33-.47a1.5,1.5,0,0,0,0,3c6.06,0,12.09,0,18.14.34S31.83,30,38,30H56.21c3.12,0,6.27-.13,9.39,0,3,.16,5.88.63,8.84.65,12.35.05,24.7-.26,37.05-.28q9.33,0,18.65.11c6.1.1,12.11.55,18.19,1.1,6.8.62,13.59.42,20.41.39s13.81,0,20.71,0a1.5,1.5,0,0,0,0-3Z"/></g></g></svg>
