<svg xmlns="http://www.w3.org/2000/svg" viewBox="0 0 1010.56 28.94"><defs><style>.cls-1{fill:#f00;}</style></defs><g id="Calque_2" data-name="Calque 2"><g id="everything"><path class="cls-1" d="M3.05,2.47c5.21,4.15,10.25,8.88,16.16,12S31.76,19.09,38.49,20c7.92,1.05,16,2.83,24,3,8.35.15,16.49,0,24.84.76,16.54,1.49,33.36-.69,49.93-.82s32.71-.44,49.16.89c8.1.65,16.26.75,24.36,1.43s16.26,2.14,24.45,2.59c7.74.43,15.3,1.1,23.06,1.1,8,0,16.08.08,24.12,0,17.23-.18,34.42-1,51.66-1,16.26,0,33.05-2.35,49.25-.86,17,1.57,34.12.81,51.14.84,16.74,0,33.47.08,50.2,0,8.6,0,17.14-.84,25.71-1.48,8.28-.61,16.6-.57,24.86-1.33,16.11-1.48,32.42-2.62,48.61-2.61,34.69,0,69.41.29,104.1.42,8.37,0,16.19-1.11,24.48-1.83,8-.69,16,.3,24-.63a456.42,456.42,0,0,1,51.09-2.57c17.68-.07,35.51-.79,53,2C848,21,855.5,21,863,22c8.28,1.1,16.58.89,24.91,1.34,8.1.44,16.17.56,24.28.56,7,0,13.56-1.08,20.55-1.73,8.3-.77,16.81-.26,25.15-.26h51.2a1.5,1.5,0,0,0,0-3h-51.2c-8.06,0-16.26-.48-24.29.18-6.92.56-13.63,1.86-20.54,1.81-8.08,0-16.1-.07-24.17-.51s-16.08-.17-24-1.15c-8.5-1-17-1.3-25.43-2.57a154.23,154.23,0,0,0-23.31-1.75c-17.09,0-34.19-.27-51.27.38-8.52.32-17,.88-25.51,1.81-8.13.9-16,.48-24.18.8s-16,2.1-24.25,2c-8.66-.08-17.32,0-26,0-17,0-33.95.1-50.93,0-16.67-.12-33.53-1.28-50.17.24-15.77,1.43-31.68,2-47.51,2.9-8.57.47-17.11,1.44-25.69,1.76-8.21.31-16.44.1-24.65.11-17.17,0-34.34-.06-51.51-.05-8.38,0-17.05.66-25.4-.12A185,185,0,0,0,365.4,24c-16.45.56-32.82.92-49.29.9s-33,1-49.48,1a382.75,382.75,0,0,1-47.36-2.76c-8.16-1-16.33-1.33-24.53-1.9-7.73-.54-15.46-1.45-23.22-1.63-16.46-.39-33.22-.27-49.67.67-8,.46-16,.68-24.08.75-8.28.06-16.43-1.24-24.71-1.19a171.5,171.5,0,0,1-25-1.64c-7.7-1.07-15.65-1.46-23-4.29C17.48,11,11.46,5.35,5.18.35c-1.5-1.19-3.64.92-2.13,2.12Z"/><path class="cls-1" d="M138.78,19.25a18.21,18.21,0,0,0-5.51,1,18,18,0,0,1-5.68,1c-4.63,0-9.26,0-13.89,0s-9.19.15-13.76-.17-9-1.08-13.55-1.15-9.13.05-13.7-.2S63.57,19,59,18.54,49.8,18,45.19,17.92c-2.28,0-4.57.09-6.84-.06s-4.28-.5-6.44-.63c-5-.28-10.11.1-15.17-.08s-10.19-.56-15.29-.57a1.5,1.5,0,0,0,0,3c4.47,0,8.92.3,13.38.49s9.1.1,13.66.09,8.79.76,13.23.75c4.62,0,9.24.06,13.84.36s9.13.87,13.71,1.2,9.13.46,13.71.43a125.84,125.84,0,0,1,13.59.86,132.37,132.37,0,0,0,13.65.47c5.13,0,10.26,0,15.39,0a24.42,24.42,0,0,0,6.93-.59c2.07-.59,4.06-1.4,6.24-1.39a1.5,1.5,0,0,0,0-3Z"/></g></g></svg>
