<svg xmlns="http://www.w3.org/2000/svg" viewBox="0 0 1016.9 28.23"><defs><style>.cls-1{fill:#f00;}</style></defs><g id="Calque_2" data-name="Calque 2"><g id="everything"><path class="cls-1" d="M5.05,2.93c3.21.69,5.59,3,8.24,4.79a65.35,65.35,0,0,0,9.52,5.18,99.27,99.27,0,0,0,21.76,7.53c7.09,1.43,14.23,2.93,21.46,3.4,7.85.52,15.83.16,23.69.15,16.82,0,33.46-1.13,50.29-.92,8,.11,15.48-1.43,23.41-2s16.13,0,24.11,0c8.37,0,16.61.76,24.95,1s17,0,25.41.07,17.07.32,25.6.57S280.78,23.8,289.43,24c8.3.22,16.41.25,24.71,1s16.39,1,24.62,1q26.17,0,52.34,0c8.37,0,16.74,0,25.11,0,7.88,0,15.64,1.23,23.52,1.08a229,229,0,0,1,23.29.85c8.23.67,16.69.07,24.94.08,16.85,0,33.84.64,50.67-.2A198.53,198.53,0,0,0,562,25.26a73.35,73.35,0,0,1,12.87-1.4c4.38,0,8.77.33,13.15,0,8-.53,15.95-1.75,23.94-2.59,8.52-.88,17.16-.34,25.71-.33q26.13.06,52.26,0a249.26,249.26,0,0,0,25-1.68c8.13-.81,16.46-.3,24.62-.31,17.1,0,34.15-1,51.26-1q26.38,0,52.77,0c17.2,0,34.35,1,51.54,1,8.28,0,16.64-.34,24.9.14,8.09.48,16.07,1.84,24.19,1.85s16.41-.64,24.48-.05C977,21.53,985.1,22,993.47,22c7.4,0,14.65-1.2,22-1,1.93.06,1.93-2.94,0-3-7.38-.2-14.56,1-22,1-8.08,0-15.88-.22-23.91-1-8.31-.79-17,0-25.35,0-8.12,0-16.1-1.37-24.19-1.85-16.63-1-33.39,0-50-.72-17.38-.77-34.81-.42-52.21-.43-17.23,0-34.58-.54-51.79.37-16.65.89-33.57-.59-50.15.87-8.37.74-16.55,1.74-25,1.76-8.67,0-17.34,0-26,0s-17.46,0-26.19,0c-8.23,0-16.57-.55-24.78.14-8.05.68-16,1.89-24.05,2.62s-16-.64-23.9.72C549,24.38,532.57,25,515.48,25c-16.85,0-33.9.77-50.72,0-7.83-.35-15.36-1.13-23.24-1S426,23,418.14,23c-16.89,0-33.78,0-50.67,0-17.13,0-34.38.62-51.46-.8-8.28-.69-16.35-1.06-24.67-1.14s-16.58-1.11-24.89-1.35c-17.09-.5-34.16-.65-51.25-.68-7.95,0-15.85-1-23.82-1-8.41,0-16.87-.3-25.27-.08-7.82.2-15.37,2.2-23.23,2.19-8.29,0-16.59-.56-24.89-.18S101.69,21,93.43,21c-8,0-16,.12-23.94,0A112.71,112.71,0,0,1,21.13,8.75C16.12,6.17,11.38,1.22,5.85,0,4-.36,3.16,2.53,5.05,2.93Z"/><path class="cls-1" d="M155.45,19c-5.14,0-10.27,0-15.41,0s-10.13.67-15.22.68-10,.08-15-.34-10.23-.93-15.35-1.27q-3.92-.26-7.82-.35c-2.52-.06-5,0-7.54-.18S74,17,71.43,17a55.19,55.19,0,0,1-7.15-.51c-10-1.34-20.05-.64-30.1-.81-2.9-.05-5.77-.41-8.66-.58-2.7-.16-5.38,0-8.08.06a39,39,0,0,1-7.86-.61,47,47,0,0,0-8.13-.21,1.5,1.5,0,0,0,0,3,47.18,47.18,0,0,1,7.33.11,44.59,44.59,0,0,0,6.83.74c2.33,0,4.66-.18,7-.18,2.58,0,5.15.26,7.72.46,10,.79,20.14-.4,30.17.55,2.49.24,5,.68,7.45.86s4.88.09,7.32.3,5.07.51,7.64.5,5.08.06,7.61.17c10.16.48,20.25,2,30.43,1.86,2.91,0,5.82,0,8.73-.18s5.6-.54,8.42-.54c5.79,0,11.57,0,17.36,0a1.5,1.5,0,0,0,0-3Z"/></g></g></svg>
