<svg xmlns="http://www.w3.org/2000/svg" viewBox="0 0 1008.23 28.26"><defs><style>.cls-1{fill:#fff;}</style></defs><g id="Calque_2" data-name="Calque 2"><g id="everything"><path class="cls-1" d="M8.38,3c2.95.87,5.75,3.35,8.75,4.43C21,8.77,24.88,9.83,28.81,10.83a129,129,0,0,0,22.74,4c16.48,1.2,33-.38,49.53.69,8.27.53,16.35,2.51,24.64,2.63,8,.11,16.08.41,24.08.69,3.64.12,7.16,1,10.79,1.2,4.38.22,8.82,0,13.21,0,7.86,0,15.8-.47,23.63.4A195,195,0,0,0,220.09,22c8.06,0,16.24-.4,24.28,0,3.68.18,7.25,1,10.94,1.1,4,.07,8-.13,12,.21,8.07.7,16.15.45,24.23,1.22,15.69,1.49,31.64,1.29,47.3,3.08,8.47,1,16.93.56,25.44.42,7.94-.13,15.9.41,23.84.09s15.85-1.86,23.8-2.68c8.16-.83,16.32-.28,24.5-.36a219.81,219.81,0,0,0,25-2c7.91-1,15.73-.89,23.63-1.68,32.88-3.32,66.22-2.68,99.22-2.28,16.46.2,33.59,1.58,49.94-.56s32.88-1.14,49.41-1.92c33.47-1.58,67.14-.62,100.65-.62,8.32,0,16.66-.28,25-.06s16.47,2,24.76,2.08c16.72.24,33,3.13,49.61,4.53,8.24.69,16.35,2.42,24.59,3.12s16.77.29,25.12.29c16.53,0,33,.27,49.51-.72,8-.48,16-1,24-1.24,1.93,0,1.94-3,0-3-16.09.41-32.08,2-48.2,2-16.67,0-33.8,1.08-50.41-.33-8.23-.7-16.35-2.43-24.59-3.12-8.66-.73-17.07-1.73-25.66-3a157.78,157.78,0,0,0-23-1.49c-8.3,0-16.47-1.79-24.77-2.07-16.76-.55-33.65,0-50.42,0H708.89c-16.36,0-32.67,1.33-49,1.14s-32.29,2.2-48.62,2.22C594.51,16.4,577.77,16,561,16s-33.57-.71-50.22.63c-8,.64-16.11.92-24.13,1.57-7.82.64-15.61.63-23.39,1.61a245.75,245.75,0,0,1-25,2.24c-8.19.19-16.39-.49-24.56.21-8,.69-15.83,2.32-23.82,2.78s-15.86-.11-23.79,0c-16.18.15-32.34,0-48.46-1.71-15.85-1.64-31.7-1.88-47.58-2.76s-31.38-1.5-47.19-1.53a173.25,173.25,0,0,1-22.77-1.28c-7.85-1-15.72-.8-23.62-.74-16.1.12-32.05-1.42-48.14-1.86-7.94-.22-15.57-1.71-23.46-2.38-8.3-.69-16.62-.8-24.93-.71-17.19.21-33.62.17-50.38-4.11A115,115,0,0,1,17.93,4.5C14.8,3.34,12.33,1,9.18.07,7.32-.48,6.53,2.42,8.38,3Z"/><path class="cls-1" d="M136.78,14.35c-8.91,0-17.8-.85-26.7-1.18-4.38-.17-8.77,0-13.14-.39s-8.76-1-13.17-1.09c-8.75-.13-17.51.18-26.25-.08-4.33-.14-8.66-.38-13-.12-2.12.13-4.22.48-6.34.65s-4.31.2-6.47.21c-10.09,0-20.19,0-30.28,0a1.5,1.5,0,0,0,0,3H28.34a102.33,102.33,0,0,0,13-.55,80.38,80.38,0,0,1,12.89-.31c8.71.3,17.43.23,26.14.2a124.43,124.43,0,0,1,13.24.77c4.37.46,8.68.51,13,.6,10.06.21,20.08,1.27,30.14,1.29a1.5,1.5,0,0,0,0-3Z"/></g></g></svg>