<svg xmlns="http://www.w3.org/2000/svg" viewBox="0 0 1001.23 26.06"><defs><style>.cls-1{fill:#fff;}</style></defs><g id="Calque_2" data-name="Calque 2"><g id="everything"><path class="cls-1" d="M7.38,2.91c2.52.4,4.11,3.29,5.91,4.87a45.22,45.22,0,0,0,7.17,5.13c5.63,3.18,12.67,3.82,18.94,4.84a313.17,313.17,0,0,0,47.81,4.3c33.34.21,66.7-.59,100-.48,15.73.06,31.42,3,47.12,3.46,8.08.23,16.16-.26,24.24,0s16.08,1.13,24.21,1c32.47-.37,64.91-1.08,97.38-1.08H534.59c7.87,0,16.11.73,23.92-.32,8.22-1.1,16.58-1.55,24.85-2.17,7.94-.59,15.88-.79,23.79-1.73,7.62-.91,14.81-1.89,22.53-1.88,16.24,0,32.49.1,48.73.1h50.8c8.84,0,17.45-.19,26.23,1,7.51,1,14.91,1,22.47,1,33.64,0,67.28-.42,100.92-.35,16.23,0,32.36.48,48.56,1.23,16,.73,32.05.14,48,.14h24.37a1.5,1.5,0,0,0,0-3H950.92c-15.61,0-31.11-.94-46.7-1.17-33.53-.49-67.07,0-100.6.15C787,18,770,19,753.54,16.7c-16-2.18-32.86-.73-49-.73H655.33c-15.69,0-31.21-.69-46.74,1.56-15.81,2.3-32,1.66-47.79,3.76-8,1.06-16.14.68-24.24.68H357.66c-16.31,0-32.56,1-48.87,1-15.81,0-31.51.14-47.29-.83-8.13-.5-16.3-.05-24.44-.08a218,218,0,0,1-23.4-1.65c-15.57-1.76-31-1.45-46.61-1.44-17.08,0-34.17.11-51.25.14S82,19.29,65,17.79c-8.26-.73-16.65-1.62-24.84-2.93-7.13-1.15-14.75-1.95-20.77-6.24a57.87,57.87,0,0,1-6.78-5.81C11.34,1.55,10,.32,8.18,0s-2.7,2.59-.8,2.89Z"/><path class="cls-1" d="M179.45,20.3a14.29,14.29,0,0,0-3.74.45,19,19,0,0,1-4.26.25,26.09,26.09,0,0,0-3.75.06c-1.37.17-2.72.52-4.1.6-2.94.17-5.93,0-8.87,0H145.8c-5.92,0-11.84.1-17.76-.24-3-.17-6-.37-9-.42s-5.89-.44-8.84-.61-5.81-.11-8.72-.32-5.84-.41-8.77-.4-5.93.06-8.9.05c-1.44,0-2.9,0-4.34-.07-1.29-.1-2.54-.41-3.82-.57-2.93-.35-5.9,0-8.85-.28s-6-.37-8.95-.42c-5.66-.1-11.44.55-17.06-.2-3.3-.44-6.62-.48-9.93-.63s-6.54-.64-9.83-.71-6.34.11-9.51.16c-3.35.05-6.7,0-10,0a1.5,1.5,0,0,0,0,3c5.8,0,11.6-.14,17.41-.18,3,0,5.84.28,8.79.53s5.87.26,8.8.42,5.69.67,8.55.71,5.61-.14,8.41-.15c3,0,6,0,9,.18s5.93.45,8.92.42a27.87,27.87,0,0,1,4.09.13c1.35.17,2.66.48,4,.58,2.9.22,5.88.08,8.79.06s5.9-.11,8.85,0,5.82.48,8.74.55,5.89.21,8.86.48,6,.23,9,.38c5.91.31,11.77.5,17.69.5,6.72,0,13.44,0,20.15.06,3,0,5.85-.79,8.82-.72a32.74,32.74,0,0,0,4.54-.06,27.61,27.61,0,0,1,4.6-.61c1.93.12,1.92-2.88,0-3Z"/></g></g></svg>