<svg xmlns="http://www.w3.org/2000/svg" viewBox="0 0 1005.9 25.34"><defs><style>.cls-1{fill:#f00;}</style></defs><g id="Calque_2" data-name="Calque 2"><g id="everything"><path class="cls-1" d="M1.45,3c4.1-.16,7.21,2.84,10.76,4.48A48.32,48.32,0,0,0,22,10.56C29.2,12.2,36.6,14,44,14.73,59.75,16.34,75.5,15.83,91.34,16c7.94.09,16.15,1.76,24,2.72a79,79,0,0,0,10,.35c4.49,0,8.58,1.05,13,1.67,7.86,1.12,16.17.26,24.09.26h25.79c16.69,0,33.38.08,50.06-.07,8.29-.08,16.42,1.3,24.66,1.33,7.55,0,15.1-.26,22.65-.26,8.17,0,16.11.25,24.23,1,3.8.36,7.56-.05,11.36,0,4.2.07,8.25,1.08,12.38,1.65,7.84,1.09,16,.52,23.92.41,8.23-.12,16.43.05,24.65.15,16.18.19,32-3.21,48.07-3.22q25.6,0,51.22,0,26-.06,52-.1c17,0,34.45,1.2,51.41-.14,16.61-1.3,33.35-.73,50-.73H686c8.64,0,17.28,0,25.92,0,3.77,0,7.55.25,11.31.08s7.5-1.07,11.32-1.1c16.44-.1,32.9,0,49.35,0,16.28,0,32.52-1,48.81-1,16.9,0,33.84.36,50.73,0,8.22-.18,16.74-.49,24.92-1.32A222.34,222.34,0,0,1,932.31,17c8.56,0,17.2-.52,25.66.85,7.42,1.2,14.49,1.16,22,1.15q12.24,0,24.49,0a1.5,1.5,0,0,0,0-3Q992.2,16,980,16c-3.62,0-7.24.21-10.85.16-4.72-.07-9.27-1.14-13.93-1.76-7.51-1-15.3-.36-22.87-.4a225,225,0,0,0-23.94.66c-33.37,3.38-67.09-.21-100.53,1.57-16.24.86-32.44.74-48.7.78-8.51,0-17.07-.28-25.57,0-3.17.09-6.24.85-9.4,1.07-4.06.28-8.17,0-12.24,0-34.09-.11-68.18,0-102.27,0-16.8,0-33.49,1-50.3.91q-26-.11-52,0t-51.94.1c-15.72,0-31.83-.8-47.4,1.68-16.71,2.66-33.73,1.16-50.58,1.4-8.64.12-17.48.65-26-.77-7.52-1.25-14.85-.58-22.36-1.4-15.68-1.71-31.37-.44-47.09-.66-8.25-.12-16.37-1.4-24.68-1.31-7.92.08-15.84.06-23.76.06H162.43c-8.29,0-17.27,1.12-25.44-.52-7.7-1.54-15.23-1-23-2-7.5-.9-15.11-2.43-22.66-2.52-8.1-.09-16.22,0-24.32.08a201.71,201.71,0,0,1-23-1.36A157.73,157.73,0,0,1,19.37,6.84,41.09,41.09,0,0,1,9,2.28,13.1,13.1,0,0,0,1.45,0c-1.93.07-1.94,3.07,0,3Z"/><path class="cls-1" d="M194.45,20.68H136.18q-4.67,0-9.33,0c-3,0-6,.27-9-.26s-6.08-1.06-9.19-1.35-6.2-.29-9.3-.44-6.47-.52-9.72-.59a74.56,74.56,0,0,1-9-.67,51.38,51.38,0,0,0-9-.69c-3.07.09-6.06-.48-9.11-.67-6.24-.4-12.5-.1-18.76,0-3.41,0-6.76.09-10.16.42s-6.95.27-10.42.57-7.06.58-10.63.56-7.18-.18-10.78-.19a1.5,1.5,0,0,0,0,3c6.36,0,12.69.4,19-.15,3.11-.28,6.2-.43,9.32-.54s6-.63,9-.66c6.32-.06,12.67-.29,19-.16,3,.06,6,.3,9,.65s6.09,0,9.14.32,6,.89,9,1.12,6.1.15,9.15.37c6.33.46,12.77.27,19,1.34a49.66,49.66,0,0,0,8.92,1.1c3.11,0,6.21-.06,9.31-.06h62.69a1.5,1.5,0,0,0,0-3Z"/></g></g></svg>
