<svg xmlns="http://www.w3.org/2000/svg" viewBox="0 0 1018.9 38.52"><defs><style>.cls-1{fill:#f00;}</style></defs><g id="Calque_2" data-name="Calque 2"><g id="everything"><path class="cls-1" d="M6.39,2.55c4,3.8,6.16,9.21,10.82,12.31,6.17,4.11,13.51,6.26,20.64,7.85s14.28,4.83,21.41,5.37C66.55,28.62,73.74,30.73,81,31a104.87,104.87,0,0,1,13.47.83c3.85.62,7.66,1.43,11.54,1.86,8.28.92,16.86.29,25.18.3s16.67-.1,25,.15c8.16.24,15.93-.62,24-1.09,17.2-1,34.85-.29,52.08,0,7.87.13,15.64.58,23.49-.23a176.88,176.88,0,0,1,26.24-.72c8.45.41,16.75,1.56,25.12,2.69,8.12,1.1,16.33.06,24.49,1,17,1.86,34.11,1.27,51.14,1.31,17.43,0,34.85.08,52.28.06,9,0,18.07-.36,27.07-.06,8.1.26,16.06,1.14,24.19,1,16.42-.23,32.87-.11,49.3.16,16.11.25,32.39,1.12,48.28-1.75C617.69,30.36,651.58,32,685.7,32H791.62c16.8,0,33.52-.22,50.27.93,8,.55,16.08-.15,24.13.38,8.51.57,17,.67,25.48.68,16.72,0,33.44,0,50.16,0s33.24-1,49.91-1h25.88a1.5,1.5,0,0,0,0-3c-33.32,0-66.54,1-99.85,1-16.51,0-33.16.59-49.63-.55-8.11-.56-16.17-.08-24.27-.42-7.89-.33-15.66-1-23.57-1Q768.05,29,716,29c-33.85,0-68.08-1.84-101.82.83-7.68.61-15.14,1.15-22.75,2.44-8.21,1.4-16.22,2.84-24.56,3C550,35.69,533.08,35,516.21,35c-33.44,0-66.77-.87-100.21-.91-17.43,0-34.85-.08-52.28-.09-16.41,0-32.66-1.64-49-1.73-8.31,0-16.59-1.95-24.87-2.66a181.59,181.59,0,0,0-25.23-.51c-8.09.42-16,1.39-24.12,1.16C232.18,30,223.9,30,215.6,30c-8.55,0-17.09-.12-25.64-.17-8.26,0-16.36,1.33-24.58,1.46-16.59.27-33.24-.39-49.84-.32-8.32,0-16.16-1.68-24.37-2.67-4.2-.51-8.41-.06-12.6-.54-3.91-.45-7.74-1.39-11.63-2-3.31-.53-6.72-.34-10-1-4-.79-7.84-2.45-11.82-3.43-8.26-2-16-3.61-23.63-7.55-6-3.08-8.32-8.87-13-13.33C7.12-.91,5,1.21,6.39,2.55Z"/><path class="cls-1" d="M155.45,33.32c-5-.1-9.94,1-14.92,1.38s-10,.57-15.06.61-10.2.14-15.28-.13S100.34,34,95.34,33.9c-10.08-.12-20.18.09-30.26.09-2.58,0-5.16,0-7.73,0-2.4-.09-4.72-.62-7.1-.76s-4.64,0-7,.1c-2.48.08-5,0-7.47,0-5.8,0-11.6-.06-17.4,0A53.09,53.09,0,0,1,9.87,33a51.88,51.88,0,0,0-8.42-1,1.5,1.5,0,0,0,0,3,48,48,0,0,1,7.63.89,44.54,44.54,0,0,0,7.39.47c5.12-.05,10.25,0,15.37,0s10,0,15-.17a41.48,41.48,0,0,1,6.78.49,55.17,55.17,0,0,0,7.49.35c10.11,0,20.22.06,30.33-.07,2.57,0,5.14-.05,7.71.12s4.91.62,7.38.87a144.22,144.22,0,0,0,15,.41c5.68,0,11.36-.08,17-.48s11.22-1.63,16.87-1.52c1.93,0,1.93-3,0-3Z"/></g></g></svg>
