<svg xmlns="http://www.w3.org/2000/svg" viewBox="0 0 996.9 25.99"><defs><style>.cls-1{fill:#f00;}</style></defs><g id="Calque_2" data-name="Calque 2"><g id="everything"><path class="cls-1" d="M4.05,2.93c6.55,1.39,11.5,6.59,18,8.39,6.7,1.86,14,2.65,20.87,3.54C59,17,75.1,18.1,91.19,19.82c7.86.83,16.08.16,24,.16,8.33,0,16.65.05,25-.06,7.78-.1,15.46,1.07,23.26,1,8,0,16.06,0,24.1,0a184.35,184.35,0,0,1,24.26,1.94c8.09,1,16.16.81,24.25,1.48C243.88,25,251.64,26,259.55,26c8.48,0,17,0,25.45,0a414.72,414.72,0,0,0,46.6-2.49c7.94-.88,15.48-3.12,23.55-3.39s16.24.23,24.35-.3c15.73-1,31.48-1.13,47.25-.93,7.83.1,15.49,1.63,23.33,1.5S465.72,20,473.55,20s15.32,1.2,23.07,1.17S512.41,21,520.3,21s15.82-1,23.74-1c8.37,0,16.74.09,25.11.07Q619.58,20,670,20c16.9,0,33.8,0,50.7,0,7.46,0,15.15.58,22.54-.5,8-1.18,16.27-.4,24.37-.72C783.87,18.11,800,17,816.27,17H995.45a1.5,1.5,0,0,0,0-3H817.26c-7.89,0-16-.47-23.79.35-8.27.86-16.6,1-24.91,1.38-7.46.31-15.19-.51-22.6.31-16.3,1.81-33,1-49.41,1H595.23c-16.74,0-33.48.09-50.22,0-7.67,0-15.27,1-23,1-7.86,0-15.72.11-23.58.19S483.13,17,475.41,17s-15.68.1-23.54.32c-7.54.22-14.84-1.12-22.35-1.39-8-.29-16,.09-24.06,0s-16,.08-24.1.74-16.23.23-24.35.4a120.8,120.8,0,0,0-21.52,2.82c-7.77,1.55-16.12,1.64-24,2.2-16.32,1.17-32.62.81-49,.89a228.05,228.05,0,0,1-23.66-1.37c-8.09-.79-16.21-.51-24.3-1.41s-16-2.23-24.22-2.28-16.1.06-24.15.06c-7.78,0-15.43-1-23.17-1.08-8-.1-16,.09-24,.09s-16.19.18-24.28,0-16.22-1.43-24.22-2c-8.27-.62-16.54-1.76-24.77-2.77-7.53-.91-15.59-1.71-22.91-3.78-6.5-1.83-11.4-7-18-8.39C3-.36,2.16,2.53,4.05,2.93Z"/><path class="cls-1" d="M166.12,16c-5.21.09-10.27,1.35-15.4,2.09a139,139,0,0,1-16.05,1.12c-10.85.29-21.71.13-32.56.13H85.46c-5.26,0-10.51.25-15.76.24s-10.34-.77-15.54-1.3-10.62,0-15.94-.52c-6-.55-12-.52-18.11-.5-6.22,0-12.44.08-18.66.08a1.5,1.5,0,0,0,0,3c5.47,0,11-.05,16.42-.07s10.91-.24,16.32.14c2.69.18,5.38.56,8.08.62s5.26-.18,7.89-.06c5.19.23,10.3,1.29,15.49,1.52s10.64-.06,16-.14,10.85,0,16.27,0c10.89,0,21.78.1,32.66-.05,6-.08,12-.31,18-.93s11.66-2.26,17.61-2.36c1.92,0,1.93-3,0-3Z"/></g></g></svg>
