<svg xmlns="http://www.w3.org/2000/svg" viewBox="0 0 103.96 46.87"><defs><style>.cls-1{isolation:isolate;}.cls-2{mix-blend-mode:multiply;}.cls-3{fill:#999;}.cls-4{fill:#fff;}</style></defs><g class="cls-1"><g id="Calque_2" data-name="Calque 2"><g id="everything"><g class="cls-2"><path class="cls-3" d="M84.47,34.51c1.66.15,3.31-.56,5-.66,1.45-.1,2.95-.22,4.4-.36a31.78,31.78,0,0,1,3.36-.31c1.07,0,2-.24,3-.33,1.49-.13,5.1-1,3.2-3.07-2.19-2.34-5.1-3.14-7.79-4.77A29.52,29.52,0,0,1,93,23a4.46,4.46,0,0,0-2.17-.87c-2.19-.15-4,1.08-4,3.36a27.62,27.62,0,0,1,0,5c-.15.84-.93,1.82-.64,2.68.45,1.34,2.21,1.34,3.29,1.32"/></g><path class="cls-4" d="M82.63,43.68c-1.56,0-2.89-.41-4.41-.52-1.16-.1-2.4,0-3.56,0l-5.57,0c-3.89,0-7.67.93-11.54,1.05-1.94,0-3.88-.09-5.82,0-1.76.1-3.48.45-5.24.49-2.53,0-5.07-.16-7.6,0a215.21,215.21,0,0,1-24.23.49c-2.18-.1-4.27-.55-6.47-.53-1.53,0-3.07,0-4.6,0-1.16,0-1.71.16-2-1.08-.35-1.57.41-3.35.53-4.9.15-1.93.53-3.76.51-5.72,0-2.77,0-5.55,0-8.32,0-3.33-.49-6.51-.5-9.84,0-1.51,0-3,0-4.53,0-1.29.47-2.42.52-3.71s-.5-3.14,0-4.15C3.4,1,7.41,1.68,9,1.68c2.4,0,4.79,0,7.19,0,3.25,0,6.45.55,9.7.53,3.61,0,7.22,0,10.83,0,2,0,4-.1,6,0,1.54,0,3,.48,4.54.54,10.13.37,20.17,1,30.33,1h5.11c1.18,0,3.23-.39,4.38-.06,1.68.48,1.8,2.62,1.5,4.08A24.15,24.15,0,0,0,87.62,13c0,3.39,0,6.78,0,10.18,0,3.88-.5,7.71-.5,11.62,0,1.49.27,3-.36,4.41-.52,1.13-.59,2.37-1.09,3.48-1.26,2.76-5.8,1.48-8.05,1.52"/><path class="cls-4" d="M82.63,42.18c-2.08,0-4.09-.6-6.19-.55s-4.12,0-6.19,0c-4.36,0-8.6.95-13,1-2.17,0-4.35-.12-6.52.09a59.54,59.54,0,0,1-6.67.4c-4.41-.08-8.78.28-13.19.47s-9.07.26-13.6.13c-2.13,0-4.23-.23-6.35-.45s-4.3-.14-6.46-.16a7.74,7.74,0,0,0-1.36,0c-.6.11-.19-.17-.21.16l.19.17A1.49,1.49,0,0,1,3,43a3.11,3.11,0,0,1,0-.61,10.54,10.54,0,0,1,.29-1.68,49.35,49.35,0,0,0,.76-6c.19-2.26.06-4.56.06-6.83s0-4.47-.14-6.71-.34-4.2-.36-6.31a32.8,32.8,0,0,1,.23-6.19,11.59,11.59,0,0,0,.28-2.49c0-.85-.25-1.7-.21-2.56,0-.51-.1-.44.44-.5A11.94,11.94,0,0,1,6.26,3c3.71.15,7.42,0,11.13.17,2.18.07,4.35.35,6.53.46s4.58,0,6.87,0,4.55,0,6.82,0a43.31,43.31,0,0,1,6.24.08c4.36.59,8.76.65,13.15.84,4.56.2,9.12.39,13.68.5,4.21.09,8.54.33,12.75,0,1-.06,3.27-.73,3.65.55.44,1.47-.41,3.22-.68,4.65a35.34,35.34,0,0,0-.27,6.51c0,2.26,0,4.52,0,6.78,0,4.34-.49,8.64-.44,13a6.54,6.54,0,0,1-.53,2.55A20.8,20.8,0,0,1,84.32,42c-.53,1-1.9,1-2.89.92-1.27,0-2.53-.25-3.8-.25a1.5,1.5,0,0,0,0,3c2.73,0,6,1,8.3-.94,1.45-1.22,1.52-3.13,2.13-4.78.76-2.07.54-4,.58-6.17,0-2.42.27-4.83.4-7.25s.08-4.85.09-7.27-.19-4.85,0-7.22c.18-1.94,1.07-3.79,1-5.76a4.29,4.29,0,0,0-2.09-3.86c-1.57-.8-3.47-.32-5.14-.26-4.72.18-9.49,0-14.21-.12-4.89-.14-9.77-.36-14.66-.57-2.43-.11-4.89-.11-7.31-.31A67.78,67.78,0,0,0,39.92.64C35.08.7,30.22.76,25.38.7,23,.67,20.54.34,18.12.22s-4.82,0-7.22,0C9.29.18,7.71.07,6.11,0,4.74,0,3.06,0,2,.94.7,2.05.91,3.81,1.07,5.32c.2,2-.45,3.89-.46,5.88,0,4.66.52,9.29.52,14S1.41,34.79.5,39.5c-.34,1.77-1,3.93.1,5.59C1.52,46.5,3.52,46.19,5,46.2a61.48,61.48,0,0,1,6.92.25c2.37.27,4.74.35,7.12.39,4.86.09,9.72-.05,14.58-.3,2.39-.12,4.8-.36,7.2-.38s4.76.18,7.14,0a69.17,69.17,0,0,1,7.19-.42,48.74,48.74,0,0,0,7-.42,57.55,57.55,0,0,1,6.93-.62c2.3,0,4.6.06,6.9,0s4.4.51,6.64.53a1.5,1.5,0,0,0,0-3Z"/></g></g></g></svg>