<svg xmlns="http://www.w3.org/2000/svg" viewBox="0 0 152.29 46.53"><defs><style>.cls-1{isolation:isolate;}.cls-2{mix-blend-mode:multiply;}.cls-3{fill:#999;}.cls-4{fill:#fff;}</style></defs><g class="cls-1"><g id="Calque_2" data-name="Calque 2"><g id="everything"><g class="cls-2"><path class="cls-3" d="M133,21.89a8,8,0,0,0,4.35.75,18,18,0,0,1,7,1.05,31.24,31.24,0,0,1,4.36,2.2A8.53,8.53,0,0,1,151,27.62a6.37,6.37,0,0,1,1.2,3.16,3,3,0,0,1-.94,3,5.47,5.47,0,0,1-3.77,1.37,48.17,48.17,0,0,0-5.08.46,60.28,60.28,0,0,1-8,.28,11.41,11.41,0,0,1-3-.26c-.34-.09-.47,0-.75-.27s-.32-1.38-.42-1.9c-.14-.68-.06-1.38-.17-2.07a18.54,18.54,0,0,1-.4-2.46c0-1.18-.29-2.79.25-3.86s1.16-2.06,2.45-2.2,2.51.37,3.81.52"/></g><path class="cls-4" d="M131.76,44.14c-9,0-14.74.83-23.73.83H40.92a56,56,0,0,1-6.08,0,51.35,51.35,0,0,0-5.26-.63c-5.75-.07-11.51,0-17.26,0H7.26c-1.42,0-3.55.45-4.69-.41-2.1-1.58-.54-6.22-.14-8.26.26-1.34.37-2.72.65-4.05.24-1.15.92-2.13,1.13-3.27A67.25,67.25,0,0,0,5.6,15.64,34.18,34.18,0,0,1,7.4,6.31C8.14,3.8,10,2.76,12.57,2.36a57.88,57.88,0,0,1,9-.72c6.23,0,12.85-.64,19,.31A78.82,78.82,0,0,0,53,3H70.06c3.37,0,7,.42,10.34-.15a65.35,65.35,0,0,1,11.11-.51c2.84,0,5.48.63,8.27.68a61.8,61.8,0,0,1,7.09.59,64.68,64.68,0,0,0,8.12.06c2.75,0,5.87-.41,8.59.06a20.44,20.44,0,0,0,4,.61,13.73,13.73,0,0,1,2.64,0c2.33.47,4.21.7,4.65,3.37.23,1.41-.2,2.21-.5,3.5a16.31,16.31,0,0,0-.15,3.63c0,2.53.12,5.09,0,7.61s-1.12,5.06-1.36,7.62c-.22,2.37-1.31,4.57-1.35,7,0,2,0,4,0,6"/><path class="cls-4" d="M131.76,42.64c-5.11,0-10.2.35-15.31.6-5.58.28-11.17.23-16.75.23H46.61q-4.36,0-8.73.06c-2.67,0-5.21-.6-7.85-.73-5.88-.28-11.82,0-17.71,0-2.5,0-5,.12-7.51.12-.82,0-1.47,0-1.71-.9a5.88,5.88,0,0,1,0-2.47c.29-1.94.83-3.83,1.11-5.77a13.4,13.4,0,0,1,.87-3.43,17.53,17.53,0,0,0,1-4,70.77,70.77,0,0,0,1-8.34c.06-1.31,0-2.63.11-3.95A26.68,26.68,0,0,1,8,9.76c.51-2,.79-4.42,2.84-5.37s4.9-1,7.19-1.13c2.8-.19,5.62-.12,8.43-.2s5.61-.17,8.42-.09c5.44.15,10.77,1.33,16.22,1.48,5.69.15,11.39,0,17.08,0,2.74,0,5.48.16,8.21.15s5.55-.61,8.35-.75a67.47,67.47,0,0,1,8.65,0c2.75.22,5.46.51,8.21.67s5.3.66,8,.69,5.42-.08,8.12-.19c1.23-.06,2.46-.12,3.68-.07a31.2,31.2,0,0,1,4.21.63c2.1.35,4.14-.08,6.21.52s1.66,2.62,1.24,4.39c-.64,2.64-.24,5.6-.2,8.29,0,1.33.05,2.68-.06,4a33,33,0,0,1-.85,4.3c-.28,1.26-.38,2.53-.63,3.79s-.7,2.57-.95,3.88A43.7,43.7,0,0,0,130.1,43a1.5,1.5,0,0,0,3,0c0-2.89-.29-5.84.42-8.67s1.12-5.59,1.74-8.38a36.8,36.8,0,0,0,.53-8.77c0-1.4-.08-2.81-.06-4.2a38.49,38.49,0,0,1,.69-3.86,5.22,5.22,0,0,0-2.37-5.26,11.41,11.41,0,0,0-6.07-1,15.33,15.33,0,0,1-3.57-.47A21.85,21.85,0,0,0,120,2c-2.87,0-5.74.18-8.61.25a75.86,75.86,0,0,1-8.25-.56c-2.8-.25-5.58-.34-8.38-.65A63.69,63.69,0,0,0,85.69.84c-3,.09-5.88.73-8.85.78s-5.78-.15-8.67-.15H59.4A118.53,118.53,0,0,1,41.93.64C36.06-.21,30.27,0,24.35.11c-2.91.06-5.81,0-8.71.35C13.37.7,10.79.83,8.8,2.09S6.08,5.41,5.46,7.63a31.91,31.91,0,0,0-1.36,8.5,57.47,57.47,0,0,1-.85,9A19.84,19.84,0,0,1,2.43,29a17.35,17.35,0,0,0-1.06,3.74c-.3,2-.82,4-1.15,6-.3,1.85-.47,4,.69,5.56,1.44,2,3.91,1.56,6,1.49,2.94-.1,5.89,0,8.83,0,6,0,12.06-.35,18,.48a62,62,0,0,0,8.62.19h65.14c5.35,0,10.67-.35,16-.61,2.74-.14,5.48-.22,8.22-.22a1.5,1.5,0,0,0,0-3Z"/></g></g></g></svg>