<svg xmlns="http://www.w3.org/2000/svg" viewBox="0 0 169.12 45.25"><defs><style>.cls-1{isolation:isolate;}.cls-2{mix-blend-mode:multiply;}.cls-3{fill:#999;}.cls-4{fill:#fff;}</style></defs><g class="cls-1"><g id="Calque_2" data-name="Calque 2"><g id="everything"><g class="cls-2"><path class="cls-3" d="M153.68,21.66a9.55,9.55,0,0,1,3.3,1c1.53.67,3.1,1.2,4.6,1.95a14.26,14.26,0,0,1,5.34,4.3c.74,1,2.77,2.59,2.05,4-.49,1-2,1.26-3,1.57a8.41,8.41,0,0,1-3.27.65c-3.11-.26-5.91-1.28-8.88-2.06-.85-.23-2.25-.3-3-.89s0-1.54.06-2.3a30.88,30.88,0,0,1,0-3.47,13.36,13.36,0,0,0,.44-2.25c0-.87.29-1.12,1.06-1.3,1-.22,1.67-.82,2.7-.7"/></g><path class="cls-4" d="M2.27,37.16v-24c0-1.63,0-3.27,0-4.91,0-1.36-.44-3.18.08-4.46C3,2.11,5.14,2.16,6.89,2.14c3.08,0,6-.14,9.06-.36,7.53-.55,15.3-.12,22.85-.12,5.67,0,11.24,0,16.9.38,3.51.21,7,.53,10.52.69,4.52.2,9,.44,13.48.43a89.8,89.8,0,0,1,13.23.64c6.64,1,13.73.36,20.46.36,7.35,0,14.83-.36,22.17,0,2.38.11,4.87.62,7.23.91,2.2.27,4.39-.08,6.55.34,2.37.46,2.82.77,3.08,2.93.42,3.64.48,7.46.67,11.11.3,5.94.57,11.82.57,17.78,0,1.22,0,2.45,0,3.68,0,1.55-.69,2.16-2.53,2.31-3.41.27-7,0-10.44,0-2.78,0-5.56.05-8.34,0-5.76,0-11.49-.53-17.27-.52H30.86c-2.79,0-5.78-.33-8.53.12a82.82,82.82,0,0,1-8.79.91c-2.06.11-4.24.05-6.31,0-1.15,0-3.89-.16-4.72-.81C.9,41.62,1.7,38.24,1.7,36.51V32.16"/><path class="cls-4" d="M3.77,37.16V17.52c0-3.14.1-6.29,0-9.42,0-1.07-.47-2.52-.09-3.55s1.43-.87,2.26-.89C12.1,3.45,18.27,3,24.44,3c6.4,0,12.8.13,19.2.18,12.68.1,25.3,1.46,38,1.48A90.07,90.07,0,0,1,90.78,5c3.09.32,6.12.72,9.23.78,6.33.13,12.7-.11,19-.21s13-.57,19.28.3c1.41.19,2.82.44,4.24.61,1.64.2,3.27.09,4.91.17a7.31,7.31,0,0,1,3,.51c.48.28.48,1.16.55,1.81.66,6.22.75,12.56,1,18.81.12,3.21.18,6.41.19,9.62,0,.69,0,1.38,0,2.07,0,.42.19,1.42-.06,1.8-.4.6-1.72.44-2.39.47-3.17.12-6.35-.12-9.52-.12s-6.55.07-9.82,0c-6.43-.15-12.84-.49-19.27-.49H32.36c-3,0-6-.3-8.93,0s-6,.81-9,1a69,69,0,0,1-8.26,0,6.44,6.44,0,0,1-2.7-.41c-.61-.4-.51-1.53-.49-2.17.05-2.46.19-4.91.19-7.39a1.5,1.5,0,0,0-3,0c0,1.53,0,3.06,0,4.58C.16,37.84,0,38.93,0,40c0,2.25.91,4.19,3.25,4.73a33.82,33.82,0,0,0,7.59.49,74.64,74.64,0,0,0,9.68-.7,41.75,41.75,0,0,1,4.48-.5c1.66,0,3.32.07,5,.1,3.45.07,6.92,0,10.38,0h62.31c6.94,0,13.88-.07,20.82.24,6.68.29,13.35.13,20,.31,1.59,0,3.19.11,4.78.1a15.18,15.18,0,0,0,4.46-.39c2.63-.86,2.42-3.55,2.4-5.83,0-6.86-.34-13.69-.64-20.54-.15-3.24-.22-6.5-.61-9.73-.25-2-.9-3.48-3-4.1-2.89-.86-5.93-.35-8.87-.77a79.07,79.07,0,0,0-9.46-.91c-6.88-.16-13.77.06-20.65.13-6.71.07-13.32.33-20-.5s-13.32-.41-20-.68S58.72.62,52.07.36,38.7.2,32,.08C28.59,0,25.17,0,21.76,0S15,.38,11.66.52Q9.28.61,6.89.64A11.08,11.08,0,0,0,3.4,1C.63,2,.51,4.68.71,7.19,1,10.36.77,13.61.77,16.8V37.16a1.5,1.5,0,0,0,3,0Z"/></g></g></g></svg>