<svg xmlns="http://www.w3.org/2000/svg" viewBox="0 0 1029.59 514.02"><defs><style>.cls-1{fill:#ea9a00;}</style></defs><g id="Calque_2" data-name="Calque 2"><g id="everything"><rect class="cls-1" x="5.14" y="8.02" width="1024" height="506"/><path class="cls-1" d="M22.8,26c-4.72,0-10.22.43-14.66-1.32-1.72-.68-1.69-1.08-2-2.7a4.38,4.38,0,0,0-1.36-2.38c-1-1.14-1.62-2.5-2.68-3.62a6.05,6.05,0,0,1-2-3.34c-.36-2,0-2.9,1.81-3.51a23.11,23.11,0,0,1,5.41-1C9.24,8,11,7.43,12.85,7.32c1.45-.09,3,0,4.44,0a14.15,14.15,0,0,0,4.15-.52c2.2-.59,4.89-.15,7.2-.15H70.11c6.23,0,12.59-.25,18.76.85a64.2,64.2,0,0,0,11.72,1.14c3.13,0,6.14.71,9.26.69,3.39,0,6.78,0,10.17,0h31.19c12.45,0,24.91-.12,37.37,0,9.56.1,19.09-2.53,28.65-2.72,1.2,0,2.42.13,3.62.07,1.7-.09,3.27-.68,5-.74,3.8-.12,7.62,0,11.42,0,6.49,0,12.89-.7,19.37-.7,5.95,0,11.85.73,17.81.7H307.6a18.46,18.46,0,0,0,3.24,0c.89-.17,1.53-.62,2.46-.73,3.56-.43,7.44,0,11,0q10.86,0,21.73,0a20.73,20.73,0,0,0,5.45-.52c3.8-.92,8.06.3,11.92-.3,6.83-1.05,14-.51,20.95-.51,4.58,0,9.17,0,13.75,0,3.36,0,6.46.53,9.79.7,7.41.37,14.81-.55,22.18.48,3.07.43,6.06-.09,9.07.63,6.68,1.6,13.69.66,20.39,2a52.24,52.24,0,0,0,11.25.84c1.8,0,3.26.61,5,.7,6.47.3,13,.14,19.43,1,7.23.94,15,.34,22.32.33,6.69,0,13.23-.66,19.92-.66,3.51,0,7,.17,10.55-.15,3.09-.29,6.07-.29,9.15-.49s6.2-.77,9.25-1.18a122.05,122.05,0,0,1,16.33-.85c9,0,18.4.7,27.31-.82,3.46-.58,6.9-1.15,10.36-1.7,3.91-.62,8.29-.14,12.24-.15,4.34,0,8.52-.51,12.83-.68,3.68-.15,7.18-1.2,10.83-1.35,8.44-.34,17,0,25.43,0H714c7.19,0,14.49-.32,21.67.15,3.38.22,6.7.56,10.09.55a59.3,59.3,0,0,1,9,.12c8,1.18,16.39.49,24.49.52,4.72,0,9.34-.73,14-.69,4.5,0,9,0,13.5,0,9.54,0,19.13-.27,28.66,0,5.45.13,10.82.69,16.3.7,3.78,0,7.25-.65,11-.82,3.59-.16,7.18-.42,10.76-.7,7.28-.56,14.57-1.2,21.87-1.16,8.45,0,16.87.14,25.3-.47C927.88.34,935,0,942.21,0c16.58,0,33.17,0,49.75,0,7.28,0,14.51-.21,21.74.81,2.15.31,4.12,1.17,6.3,1.2a29.94,29.94,0,0,1,3.14,0c1.16.16,2.14.58,3.33.69.8.08,2,.08,2.61.77.85,1,.39,3.61.39,4.92s.46,3.45-.67,4.31"/></g></g></svg>