<svg xmlns="http://www.w3.org/2000/svg" viewBox="0 0 33.35 473.9"><defs><style>.cls-1{fill:blue;}</style></defs><g id="Calque_2" data-name="Calque 2"><g id="everything"><path class="cls-1" d="M30.11,1.45c0,7.9.47,15.5-.89,23.34a92.91,92.91,0,0,0-1.45,11.15c-.22,4-1.33,7.93-1.95,11.93-.57,3.59-1.05,7.22-1.49,10.83-.49,4.08.2,8.19-.41,12.26-1.08,7.22-2.82,14.21-2.8,21.58q0,5.85,0,11.7c0,3.84-.9,7.54-.85,11.38a23.43,23.43,0,0,1-.4,6.09c-.37,1.42-1,2.75-1.41,4.17-1,3.69,0,7.63-.52,11.39A149.15,149.15,0,0,0,17,160a102.37,102.37,0,0,1,0,11.62c-.35,3.9-.88,7.7-.86,11.63,0,7.7.87,16.29-1.08,23.81a23.35,23.35,0,0,0-.95,4.76,62.69,62.69,0,0,1-.27,6.28c-.55,3.7-1.3,7.37-1.69,11.1a102.67,102.67,0,0,1-1.53,11.59c-.76,3.39-2.32,6.87-2.5,10.34a30.05,30.05,0,0,1-.43,5.43,27.28,27.28,0,0,0-.72,4.68c-.17,3.61.18,7.26.18,10.87,0,7.73,0,15.45.18,23.17s.42,15.23-.85,22.74S4.51,333.3,3.15,340.87A184.94,184.94,0,0,0,.24,363.36c-.44,8-.14,16.1-.14,24.12v24.28q0,24.27,0,48.55v12.14a1.5,1.5,0,0,0,3,0q0-48.56,0-97.11a170.9,170.9,0,0,1,1.41-24c1.06-7.43,2.49-14.79,3.38-22.25s2.39-14.89,2.54-22.47-.32-15-.32-22.48v-12c0-3.61-.37-7.27-.18-10.87a44.48,44.48,0,0,1,.93-5.38,46.79,46.79,0,0,0,.22-4.73c.27-3.76,2.05-7.55,2.75-11.28.66-3.52.9-7.1,1.28-10.65.41-3.89,1.3-7.71,1.77-11.59.24-1.93.07-3.85.19-5.79s.85-3.69,1.16-5.6A76.37,76.37,0,0,0,19.1,195c0-3.89,0-7.78,0-11.67s.51-7.73.86-11.63c.7-7.71-.28-15.59,0-23.33.12-3.9.68-7.7,1.08-11.57s-.53-7.68.75-11.33a26.92,26.92,0,0,0,1.51-9.8c-.05-3.83.84-7.54.85-11.38s0-7.8,0-11.7A87.73,87.73,0,0,1,25,81.81c.46-3.81,1.52-7.52,2-11.33.48-4.08-.14-8.18.4-12.25.49-3.77,1-7.55,1.59-11.3s1.58-7.24,1.78-11c.42-7.78,2.59-15.27,2.58-23.1,0-3.8-.23-7.59-.24-11.39a1.5,1.5,0,0,0-3,0Z"/></g></g></svg>