<svg xmlns="http://www.w3.org/2000/svg" viewBox="0 0 34 473.9"><defs><style>.cls-1{fill:blue;}</style></defs><g id="Calque_2" data-name="Calque 2"><g id="everything"><path class="cls-1" d="M31,1.45c0,3.77-.54,7.49-.86,11.24s-.23,7.7-.19,11.54c.08,7.89.27,15.79.36,23.68a211.59,211.59,0,0,1-1.39,23.87c-.82,8-1.44,16-2.08,24s-2.25,15.9-3.2,23.87a181.09,181.09,0,0,0-.72,23.64c.12,7.81-.39,15.5-.78,23.3-.19,3.79-.05,7.56,0,11.36s-.55,7.33-.82,11.05-1,7.16-1.14,10.78-.29,7.3-.76,11c-1,7.52,0,15.13-.76,22.67-.37,3.7-.78,7.36-.81,11.08s0,7.55-.43,11.32-.23,7.6-.32,11.4A81.18,81.18,0,0,1,16,278.67c-.57,3.52-.82,7.05-1.22,10.58-.44,3.88-1.33,7.66-2.1,11.47s-1.1,7.68-1.58,11.48a48.62,48.62,0,0,0-.13,5.66,33.22,33.22,0,0,1-.81,6.12c-1.47,7.34-1.79,14.71-2.24,22.16C7.7,350,7,353.78,7,357.64a103.34,103.34,0,0,1-.77,11.53c-.45,3.83-1,7.66-1.14,11.51S4.22,388.29,4,392.12c-.18,3.62.37,7.23.23,10.84S3,410,3,413.62c0,7.75.22,15.55-.23,23.29S.89,452.56.39,460.43c-.26,4-.38,8-.39,12a1.5,1.5,0,0,0,3,0,203.24,203.24,0,0,1,1.49-23.9A188,188,0,0,0,6,425.31c0-3.9,0-7.79,0-11.69C6,410,7.12,406.57,7.26,403s-.4-7.22-.23-10.84c.19-3.83.87-7.61,1.06-11.44.4-7.86,1.86-15.59,1.91-23.49,0-3.85.76-7.65,1-11.5s.33-7.43.74-11.18,1-7.59,1.69-11.41.27-7.77.86-11.65.86-7.8,1.7-11.64a102.26,102.26,0,0,0,1.84-10.56c.8-7.3,2.18-14.66,2.34-22,.17-7.59.69-15.14.75-22.72,0-3.72.44-7.38.81-11.08s.31-7.51.32-11.28c0-7.5.9-14.86,1.2-22.35.29-7.3,2.13-14.49,2-21.83-.17-7.7.33-15.23.7-22.91.39-8-.16-16,0-24.07s1.4-16,2.59-24c1.14-7.71,1.57-15.44,2.26-23.2.71-8,1.82-16,2.33-24s.14-15.92,0-23.87c-.15-7.69-.57-15.59.08-23.27.32-3.75.88-7.47.86-11.24a1.5,1.5,0,0,0-3,0Z"/></g></g></svg>