<svg xmlns="http://www.w3.org/2000/svg" viewBox="0 0 26.62 481.69"><defs><style>.cls-1{fill:blue;}</style></defs><g id="Calque_2" data-name="Calque 2"><g id="everything"><path class="cls-1" d="M23.59,1.45c0,3.85.1,7.72-.09,11.57s-1.16,7.54-1.22,11.32a48.39,48.39,0,0,1,0,5.11A48.74,48.74,0,0,0,21.63,35,89.86,89.86,0,0,1,21,46.23c-.47,3.71,0,7.45,0,11.17.07,3.87,0,7.74,0,11.61,0,8.16-.05,16.32,0,24.48,0,4.15.47,8.61-.11,12.72-.51,3.59-.9,7.17-1.31,10.78s-1,7.51-1.27,11.25.23,7.79-.05,11.69c-.55,7.87-.47,15.7-.49,23.6,0,8.11.37,16.32-.18,24.42-.27,4-.52,7.89-.4,11.89a69.67,69.67,0,0,1-1,11.08c-.9,7.15-.54,14.42-1.5,21.55-.52,3.86-.08,7.81-.4,11.7-.16,2,0,3.88-.61,5.78a40.3,40.3,0,0,0-1.55,5.38c-1.41,7.57-.77,15.53-.77,23.2q0,12.39,0,24.77c0,7.94.71,15.89.39,23.82A150.45,150.45,0,0,1,8.68,352a58.24,58.24,0,0,0-1.54,10.17c-.07,1.73-.43,3.43-.52,5.16-.11,2,0,4.05-.18,6.08-.67,8.3-.56,16.54-.74,24.86-.09,4-.62,8-1,12s-1.4,8.06-1.44,12.23a79.11,79.11,0,0,1-1.14,11.8A89.74,89.74,0,0,0,1.5,445c-.13,3.72-.62,7.46-.63,11.18,0,4.24,0,8.48,0,12.72,0,1.67.12,3.33.1,5,0,1.13.17,4.2-.62,5.17-1.21,1.49.9,3.63,2.12,2.13,1.61-2,1.5-5.29,1.5-7.72,0-3.88-.09-7.76-.09-11.65,0-7.81.73-15.56.93-23.37.09-3.79,1-7.5,1.34-11.28.36-4.34.22-8.54,1-12.86,1.44-7.86,1.53-16,1.56-24,0-4.06,0-8.12.31-12.18s.21-8.57.77-12.73c.49-3.56.45-7,1.28-10.55.93-4,1.58-8,2.17-12a128.39,128.39,0,0,0,1.57-24c-.35-8.18-.4-16.32-.4-24.5q0-12.51,0-25c0-4-.21-8,.43-12,.58-3.56,2.36-6.91,2.39-10.51,0-4,.19-8,.3-11.92.05-1.75.43-3.44.63-5.17.21-1.88-.05-3.76.09-5.64s.5-3.54.59-5.34c.09-2,0-3.92.18-5.88.3-3.67,1.26-7.18,1.25-10.88,0-8.1.52-16.14.52-24.24s0-16.29,0-24.43c0-4.07,0-8.07.38-12.13s0-7.79.1-11.72c.09-3.73.79-7.51,1.18-11.23q.6-5.85,1.43-11.66c.55-3.82.19-7.89.14-11.74Q24,88.54,24,82.21c0-8.13.09-16.28,0-24.42-.05-3.7-.55-7.46-.1-11.16a91.06,91.06,0,0,0,.7-11.21,41.47,41.47,0,0,1,.61-5.56,48.41,48.41,0,0,0,0-5.52c.06-3.77,1-7.54,1.22-11.32s.09-7.72.09-11.57a1.5,1.5,0,0,0-3,0Z"/></g></g></svg>