<svg xmlns="http://www.w3.org/2000/svg" viewBox="0 0 33 485.56"><defs><style>.cls-1{fill:blue;}</style></defs><g id="Calque_2" data-name="Calque 2"><g id="everything"><path class="cls-1" d="M30,1.45c0,8.38-.67,16.74-.67,25.12s0,16.65,0,25a112.45,112.45,0,0,1-.61,11.89c-.4,3.83.4,7.68-.15,11.5-1.11,7.75-.36,15.36-.47,23.14-.05,3.72-.77,7.31-.75,11,0,3.93-.64,8-.93,11.91-.31,4.12-1.54,8.06-1.86,12.17-.27,3.65-.88,7.2-.79,10.87s.33,7.47.05,11.23c-.3,4.07-.94,8.1-1.38,12.16s-.35,7.85-.54,11.8c-.21,4.15-.69,8.29-1.07,12.43s-.34,8.42-1,12.52c-.58,3.83-.31,7.59-.67,11.44-.4,4.13-.92,8.25-1.26,12.38S17.49,236,16.85,240c-.6,3.74-.71,7.52-1.34,11.25a26.2,26.2,0,0,0-.14,4.85,37.59,37.59,0,0,1-.87,6.51c-.61,3.74-.88,7.55-1.29,11.31-.2,1.82-.34,3.65-.43,5.48-.1,2-.49,3.86-.76,5.84a51.86,51.86,0,0,0,0,5.29c-.06,1.81-.65,3.55-.76,5.36-.21,3.61.15,7.29.12,10.91s-.89,7.38-.73,11.14a26.76,26.76,0,0,1-.37,5.65c-.29,1.84-.2,3.71-.53,5.54a95.26,95.26,0,0,0-1.65,11c-.23,4,.14,7.95-.14,11.91-.57,8-1.91,16-2,24-.12,8.19.25,16.38-.08,24.56A68.94,68.94,0,0,1,4.6,412.9c-.79,3.55-2,7-2.52,10.6-1.1,8-.69,16.16-1,24.21q-.44,12.53-.44,25c0,3.81-.6,7.57-.66,11.38,0,1.93,3,1.93,3,0,.06-3.81.66-7.57.66-11.38,0-4.28,0-8.57,0-12.85.16-8.12.57-16.22.63-24.34A78.11,78.11,0,0,1,5.16,423c.63-3.75,2-7.32,2.68-11.06C9.17,404.13,9,396,9,388.1c0-4-.13-8.06-.07-12.09s.65-7.87,1-11.82.72-8.12,1-12.16-.09-7.95.14-11.91c.45-7.44,2.89-14.73,2.55-22.22-.16-3.75.68-7.39.73-11.14s-.46-7.59-.1-11.3c.15-1.52.65-3,.73-4.53.12-2.23-.24-4.34.2-6.57.68-3.45.6-7,1-10.48.47-4.24.82-8.48,1.59-12.68.66-3.59.24-7.17.91-10.73.71-3.79.69-7.7,1.34-11.52s.58-7.56.91-11.35c.36-4,.85-8,1.23-11.95.19-2.06.12-4.11.11-6.18a47.89,47.89,0,0,1,.64-5.72c.47-4.15.55-8.36.93-12.53.37-4,.83-8,1-12s.12-7.87.54-11.8,1.08-8.09,1.38-12.16c.28-3.76,0-7.47-.05-11.23a104.14,104.14,0,0,1,.79-10.87c.34-4.1,1.55-8,1.86-12.17.29-3.94.95-8,.93-11.91,0-3.73.7-7.32.75-11,.06-4-.22-8.07-.28-12.1a86.54,86.54,0,0,1,.83-11.48c.42-3.68-.3-7.37.07-11.06,1.68-16.46.14-33.17.88-49.69.19-4.1.38-8.2.4-12.3a1.5,1.5,0,0,0-3,0Z"/></g></g></svg>