<svg xmlns="http://www.w3.org/2000/svg" viewBox="0 0 36.31 476.9"><defs><style>.cls-1{fill:blue;}</style></defs><g id="Calque_2" data-name="Calque 2"><g id="everything"><path class="cls-1" d="M33.31,1.45A56.34,56.34,0,0,1,32,13c-.74,3.69-1.22,7.37-1.82,11.07a50.52,50.52,0,0,0-.78,5,37.49,37.49,0,0,1-.52,5.59,59.08,59.08,0,0,0-1.65,9.88c-.18,3.7-1,7.4-1.29,11.13s-.66,7.62-1.2,11.37a81.24,81.24,0,0,0-1.22,10.67,110.85,110.85,0,0,1-1,11.64c-.48,4-1,8-1.13,12s.23,8-.07,12c-.56,7.44-1.67,14.78-2,22.23-.17,3.83-.91,7.66-.93,11.5s-.53,7.46-.72,11.25c-.41,8-2.21,16-3.22,24a112.66,112.66,0,0,0-1,11.75c-.08,3.89.05,7.76-.27,11.64s-.82,7.6-.84,11.43.26,7.68-.13,11.52c-.8,7.85-.41,15.68-1,23.52-.3,3.85-.69,7.62-.7,11.49s0,7.62-.4,11.43a96.77,96.77,0,0,0-.67,11.41A76.2,76.2,0,0,1,9,298.75c-.53,3.73-1.42,7.39-1.69,11.16S7,317.58,6.7,321.42c-.58,8-1.42,16-2.18,23.94S2.34,361.18,1.27,369.1s-.94,15.6-1,23.47C.12,400.66-.38,409,.58,417a79,79,0,0,1,.66,11.51,85.89,85.89,0,0,0,.55,11.56A210.61,210.61,0,0,1,3.31,463.6v11.85a1.5,1.5,0,0,0,3,0c0-7.88.25-15.81-.34-23.68S4.05,436.32,4.24,428.5a83.71,83.71,0,0,0-.71-11.95,107.57,107.57,0,0,1-.42-11.91q0-12,.2-24.08c.12-8.05,1.7-16,2.88-23.91,1.15-7.73,1.72-15.54,2.41-23.32s1.19-15.61,1.75-23.42c.29-4,1.32-7.87,1.79-11.83a85,85,0,0,0,.17-11.51A96.77,96.77,0,0,1,13,275.16c.38-3.81.38-7.6.4-11.43s.4-7.64.7-11.49.2-7.81.23-11.73.37-7.86.78-11.79.1-7.67.13-11.52.53-7.62.84-11.43.19-7.75.27-11.64c.19-8.21,1.56-16.44,2.86-24.54a146.29,146.29,0,0,0,2.11-22.48c0-3.84.76-7.66.93-11.5s.49-7.34.93-11.05.78-7.47,1.06-11.18c.3-4-.09-8,.07-12,.31-7.91,2.05-15.71,2.18-23.62a97.22,97.22,0,0,1,1.25-10.9c.51-3.83.93-7.71,1.2-11.56.26-3.6,1.08-7.13,1.26-10.71S31.43,37.6,32,34a39,39,0,0,0,.29-4.45c.1-2,.63-3.93.9-5.9.51-3.87,1.23-7.67,2-11.51A54.79,54.79,0,0,0,36.31,1.45a1.5,1.5,0,0,0-3,0Z"/></g></g></svg>