<svg xmlns="http://www.w3.org/2000/svg" viewBox="0 0 31.81 485.56"><defs><style>.cls-1{fill:blue;}</style></defs><g id="Calque_2" data-name="Calque 2"><g id="everything"><path class="cls-1" d="M28.67,1.45c0,3.93.53,8.28-.06,12.16-.54,3.51-.9,7-1.17,10.58a111,111,0,0,0-.77,12,17,17,0,0,1-.24,4.78A21,21,0,0,0,25.94,46c0,7.93,1,16.14.1,24a41.26,41.26,0,0,0-.72,5.19,31.07,31.07,0,0,1-.54,5.69c-.58,3.56,0,7.34-.3,10.94-.65,8.24-2.3,16.34-2.76,24.61s-.37,16.54-.24,24.82c.06,4.06.19,8.17-.11,12.22-.12,1.75-.58,3.46-.7,5.21-.14,2.16,0,4.34,0,6.51,0,4.06.19,8.13,0,12.2s-1,8.33-1.59,12.48c-.52,3.79-1,7.5-1.79,11.25s-.81,7.67-1.62,11.47c-1.61,7.47-1.57,14.95-2.14,22.54-.3,4,0,8-.16,12.05s-.74,8.26-.72,12.43.07,8.13-.05,12.19-.66,8.4-.65,12.6a93.67,93.67,0,0,1-.47,11.36c-.49,4.1.07,8.24-.22,12.35-.28,3.94-.6,7.85-1.15,11.75s.09,7.93-.05,11.87-.77,7.8-.72,11.75A114.21,114.21,0,0,1,9,355.64c-.74,8.1-.86,16.21-1.85,24.28-.49,3.93-.5,7.88-.79,11.82-.31,4.13-.74,8.24-.91,12.38-.16,3.62-1.48,7-1.68,10.6-.22,4.13-1.27,8.12-2,12.16C.26,434.63,0,442.81,0,450.68c0,4.05,0,8.1,0,12.15s.5,8,.65,12c.11,3.13.78,6.14.69,9.27-.05,1.93,3,1.93,3,0,.09-3.29-.56-6.43-.71-9.72-.18-3.87-.65-7.69-.63-11.57,0-8.26,0-16.46.52-24.71a89.21,89.21,0,0,1,1.42-12.2,78.66,78.66,0,0,0,1.79-11.2c.21-3.77,1.52-7.26,1.7-11.06.18-4,.59-8,.89-11.92s.3-7.89.79-11.82c.5-4.1.81-8.07.91-12.2.2-8.11,1.42-16.08,1.3-24.21-.05-3.95.58-7.82.72-11.75.15-4.17-.53-8.37.2-12.51a108.38,108.38,0,0,0,1-11.11c.3-4.25-.31-8.53.28-12.76a78.51,78.51,0,0,0,.41-10.95c0-4.2.53-8.4.65-12.6s.07-8.12.05-12.19.59-8.27.72-12.43c.25-8.08.28-16.14.76-24.21a82.44,82.44,0,0,1,1.78-11.26c.76-3.81.82-7.67,1.63-11.49s1.13-7.53,1.69-11.32,1.23-7.64,1.44-11.51c.21-4.07.05-8.14,0-12.2,0-2-.12-4.08,0-6.1s.59-3.73.72-5.62c.58-8.27-.08-16.63,0-24.92A184.65,184.65,0,0,1,26,103.38c.55-3.84,1.16-7.67,1.46-11.53s-.25-8.09.61-12a15.78,15.78,0,0,0,.25-4.23c-.08-2,.56-3.85.73-5.81a104.13,104.13,0,0,0,0-12.24q-.16-5.79-.17-11.57a25.93,25.93,0,0,1,.64-5.28,22.67,22.67,0,0,0,.09-5c-.07-3.91.47-7.63.77-11.51.15-2,.46-3.88.56-5.84.09-1.8.58-3.49.7-5.28.27-3.83,0-7.78,0-11.62a1.5,1.5,0,0,0-3,0Z"/></g></g></svg>